M48
INCH,TZ
T1C0.0118
T2C0.0315
T3C0.0394
T4C0.0433
T5C0.1160
%
G90
G05
T1
X45000Y-48800
X46750Y-35000
X47600Y-51200
X50000Y-47750
X52500Y-27200
X53500Y-43500
X55300Y-44000
X60000Y-40750
X62250Y-38000
X63050Y-44050
X65500Y-37500
X72500Y-32000
X82000Y-48250
T2
X37750Y-30016
X37750Y-31984
X38000Y-49000
X40750Y-30016
X40750Y-31000
X42000Y-49000
X42000Y-53200
X45000Y-39000
X46000Y-53200
X47016Y-49250
X48016Y-46250
X48984Y-49250
X49000Y-39000
X49000Y-46250
X49750Y-30016
X49750Y-31000
X50250Y-35500
X50250Y-37500
X51900Y-53300
X51937Y-49200
X52250Y-43016
X52250Y-44984
X52750Y-30016
X52750Y-31984
X54250Y-35500
X54250Y-37500
X55000Y-39000
X55900Y-53300
X55937Y-49200
X56500Y-25500
X56500Y-27500
X56500Y-29500
X56500Y-31500
X56500Y-33500
X56500Y-35500
X57016Y-49250
X58016Y-46500
X58984Y-49250
X59000Y-39000
X59000Y-46500
X60500Y-25500
X60500Y-27500
X60500Y-29500
X60500Y-31500
X60500Y-33500
X60500Y-35500
X61900Y-49200
X61900Y-53300
X62250Y-43016
X62250Y-44984
X63502Y-31994
X63502Y-34994
X64502Y-31994
X64502Y-34994
X65000Y-39000
X65502Y-31994
X65502Y-34994
X65900Y-49200
X65900Y-53300
X66500Y-28016
X66500Y-29984
X66502Y-31994
X66502Y-34994
X67016Y-49500
X67502Y-31994
X67502Y-34994
X68016Y-46500
X68502Y-31994
X68502Y-34994
X68984Y-49500
X69000Y-39000
X69000Y-46500
X69502Y-31994
X69502Y-34994
X70766Y-37750
X71500Y-26543
X71500Y-27527
X71900Y-49200
X71900Y-53300
X72250Y-43016
X72250Y-44984
X72734Y-37750
X74994Y-25504
X74994Y-26504
X74994Y-27504
X74994Y-28504
X75000Y-35000
X75000Y-37000
X75000Y-39000
X75900Y-49200
X75900Y-53300
X77016Y-49500
X77994Y-25504
X77994Y-26504
X77994Y-27504
X77994Y-28504
X78016Y-46750
X78984Y-49500
X79000Y-35000
X79000Y-37000
X79000Y-39000
X79000Y-46750
X80250Y-25516
X80250Y-27484
X80250Y-30250
X80250Y-31234
X82000Y-35000
X82000Y-39000
X82250Y-43266
X82250Y-45234
X84250Y-35000
X84250Y-39000
T3
X37000Y-43500
X37000Y-44500
X38750Y-40500
X38750Y-41500
X38750Y-42500
X38750Y-43500
X38750Y-44500
X38750Y-45500
X38750Y-46500
X38750Y-47500
X38919Y-34250
X38919Y-35250
X45000Y-40500
X45000Y-41500
X45000Y-42500
X45000Y-43500
X45000Y-44500
X45000Y-45500
X45000Y-46500
X45000Y-47500
X47969Y-52750
X48969Y-52750
X49969Y-52750
X57969Y-52750
X58969Y-52750
X59969Y-52750
X67969Y-52750
X68969Y-52750
X69969Y-52750
X77969Y-52750
X78969Y-52750
X79969Y-52750
T4
X42000Y-51250
X43969Y-51250
X44250Y-30872
X45250Y-30872
X45937Y-51250
X46250Y-30872
X48000Y-43000
X49000Y-43000
X50000Y-43000
X51969Y-51250
X53937Y-51250
X55906Y-51250
X58000Y-43000
X59000Y-43000
X60000Y-43000
X61969Y-51250
X63937Y-51250
X65906Y-51250
X68000Y-43000
X69000Y-43000
X70000Y-43000
X71969Y-51250
X73937Y-51250
X75906Y-51250
X78000Y-43122
X79000Y-43122
X80000Y-43122
T5
X38300Y-26400
X38300Y-52200
X84100Y-26400
X84100Y-52200
M30
