G04 #@! TF.GenerationSoftware,KiCad,Pcbnew,9.0.0*
G04 #@! TF.CreationDate,2025-02-20T19:15:02-05:00*
G04 #@! TF.ProjectId,surfboard,73757266-626f-4617-9264-2e6b69636164,rev?*
G04 #@! TF.SameCoordinates,Original*
G04 #@! TF.FileFunction,Legend,Top*
G04 #@! TF.FilePolarity,Positive*
%FSLAX46Y46*%
G04 Gerber Fmt 4.6, Leading zero omitted, Abs format (unit mm)*
G04 Created by KiCad (PCBNEW 9.0.0) date 2025-02-20 19:15:02*
%MOMM*%
%LPD*%
G01*
G04 APERTURE LIST*
%ADD10C,0.150000*%
%ADD11C,0.152400*%
%ADD12C,0.000000*%
%ADD13C,0.120000*%
G04 APERTURE END LIST*
D10*
X142113095Y-101674819D02*
X142113095Y-102484342D01*
X142113095Y-102484342D02*
X142160714Y-102579580D01*
X142160714Y-102579580D02*
X142208333Y-102627200D01*
X142208333Y-102627200D02*
X142303571Y-102674819D01*
X142303571Y-102674819D02*
X142494047Y-102674819D01*
X142494047Y-102674819D02*
X142589285Y-102627200D01*
X142589285Y-102627200D02*
X142636904Y-102579580D01*
X142636904Y-102579580D02*
X142684523Y-102484342D01*
X142684523Y-102484342D02*
X142684523Y-101674819D01*
X143684523Y-102674819D02*
X143113095Y-102674819D01*
X143398809Y-102674819D02*
X143398809Y-101674819D01*
X143398809Y-101674819D02*
X143303571Y-101817676D01*
X143303571Y-101817676D02*
X143208333Y-101912914D01*
X143208333Y-101912914D02*
X143113095Y-101960533D01*
X139750800Y-97952068D02*
X139750800Y-98190163D01*
X139512705Y-98094925D02*
X139750800Y-98190163D01*
X139750800Y-98190163D02*
X139988895Y-98094925D01*
X139607943Y-98380639D02*
X139750800Y-98190163D01*
X139750800Y-98190163D02*
X139893657Y-98380639D01*
X142708333Y-93544580D02*
X142660714Y-93592200D01*
X142660714Y-93592200D02*
X142517857Y-93639819D01*
X142517857Y-93639819D02*
X142422619Y-93639819D01*
X142422619Y-93639819D02*
X142279762Y-93592200D01*
X142279762Y-93592200D02*
X142184524Y-93496961D01*
X142184524Y-93496961D02*
X142136905Y-93401723D01*
X142136905Y-93401723D02*
X142089286Y-93211247D01*
X142089286Y-93211247D02*
X142089286Y-93068390D01*
X142089286Y-93068390D02*
X142136905Y-92877914D01*
X142136905Y-92877914D02*
X142184524Y-92782676D01*
X142184524Y-92782676D02*
X142279762Y-92687438D01*
X142279762Y-92687438D02*
X142422619Y-92639819D01*
X142422619Y-92639819D02*
X142517857Y-92639819D01*
X142517857Y-92639819D02*
X142660714Y-92687438D01*
X142660714Y-92687438D02*
X142708333Y-92735057D01*
X143660714Y-93639819D02*
X143089286Y-93639819D01*
X143375000Y-93639819D02*
X143375000Y-92639819D01*
X143375000Y-92639819D02*
X143279762Y-92782676D01*
X143279762Y-92782676D02*
X143184524Y-92877914D01*
X143184524Y-92877914D02*
X143089286Y-92925533D01*
X134667666Y-112909819D02*
X134667666Y-113624104D01*
X134667666Y-113624104D02*
X134620047Y-113766961D01*
X134620047Y-113766961D02*
X134524809Y-113862200D01*
X134524809Y-113862200D02*
X134381952Y-113909819D01*
X134381952Y-113909819D02*
X134286714Y-113909819D01*
X135667666Y-113909819D02*
X135096238Y-113909819D01*
X135381952Y-113909819D02*
X135381952Y-112909819D01*
X135381952Y-112909819D02*
X135286714Y-113052676D01*
X135286714Y-113052676D02*
X135191476Y-113147914D01*
X135191476Y-113147914D02*
X135096238Y-113195533D01*
X150542666Y-90469819D02*
X150542666Y-91184104D01*
X150542666Y-91184104D02*
X150495047Y-91326961D01*
X150495047Y-91326961D02*
X150399809Y-91422200D01*
X150399809Y-91422200D02*
X150256952Y-91469819D01*
X150256952Y-91469819D02*
X150161714Y-91469819D01*
X150971238Y-90565057D02*
X151018857Y-90517438D01*
X151018857Y-90517438D02*
X151114095Y-90469819D01*
X151114095Y-90469819D02*
X151352190Y-90469819D01*
X151352190Y-90469819D02*
X151447428Y-90517438D01*
X151447428Y-90517438D02*
X151495047Y-90565057D01*
X151495047Y-90565057D02*
X151542666Y-90660295D01*
X151542666Y-90660295D02*
X151542666Y-90755533D01*
X151542666Y-90755533D02*
X151495047Y-90898390D01*
X151495047Y-90898390D02*
X150923619Y-91469819D01*
X150923619Y-91469819D02*
X151542666Y-91469819D01*
D11*
X140805878Y-104899700D02*
X144944122Y-104899700D01*
X144944122Y-99540300D02*
X140805878Y-99540300D01*
D12*
G36*
X146837400Y-104035465D02*
G01*
X146583400Y-104035465D01*
X146583400Y-103654465D01*
X146837400Y-103654465D01*
X146837400Y-104035465D01*
G37*
D13*
X142246000Y-94315000D02*
X143504000Y-94315000D01*
X142246000Y-96155000D02*
X143504000Y-96155000D01*
X133671000Y-109855000D02*
X133671000Y-92015000D01*
X136331000Y-92015000D02*
X133671000Y-92015000D01*
X136331000Y-109855000D02*
X133671000Y-109855000D01*
X136331000Y-109855000D02*
X136331000Y-92015000D01*
X136331000Y-111125000D02*
X136331000Y-112455000D01*
X136331000Y-112455000D02*
X135001000Y-112455000D01*
X149546000Y-92015000D02*
X150876000Y-92015000D01*
X149546000Y-93345000D02*
X149546000Y-92015000D01*
X149546000Y-94615000D02*
X149546000Y-112455000D01*
X149546000Y-94615000D02*
X152206000Y-94615000D01*
X149546000Y-112455000D02*
X152206000Y-112455000D01*
X152206000Y-94615000D02*
X152206000Y-112455000D01*
M02*
