G04 #@! TF.GenerationSoftware,KiCad,Pcbnew,9.0.0*
G04 #@! TF.CreationDate,2025-02-20T19:15:02-05:00*
G04 #@! TF.ProjectId,surfboard,73757266-626f-4617-9264-2e6b69636164,rev?*
G04 #@! TF.SameCoordinates,Original*
G04 #@! TF.FileFunction,Soldermask,Top*
G04 #@! TF.FilePolarity,Negative*
%FSLAX46Y46*%
G04 Gerber Fmt 4.6, Leading zero omitted, Abs format (unit mm)*
G04 Created by KiCad (PCBNEW 9.0.0) date 2025-02-20 19:15:02*
%MOMM*%
%LPD*%
G01*
G04 APERTURE LIST*
G04 APERTURE END LIST*
G36*
X135851000Y-111975000D02*
G01*
X134151000Y-111975000D01*
X134151000Y-110275000D01*
X135851000Y-110275000D01*
X135851000Y-111975000D01*
G37*
G36*
X151122742Y-110311601D02*
G01*
X151276687Y-110375367D01*
X151415234Y-110467941D01*
X151533059Y-110585766D01*
X151625633Y-110724313D01*
X151689399Y-110878258D01*
X151721907Y-111041685D01*
X151721907Y-111208315D01*
X151689399Y-111371742D01*
X151625633Y-111525687D01*
X151533059Y-111664234D01*
X151415234Y-111782059D01*
X151276687Y-111874633D01*
X151122742Y-111938399D01*
X150959315Y-111970907D01*
X150792685Y-111970907D01*
X150629258Y-111938399D01*
X150475313Y-111874633D01*
X150336766Y-111782059D01*
X150218941Y-111664234D01*
X150126367Y-111525687D01*
X150062601Y-111371742D01*
X150030093Y-111208315D01*
X150030093Y-111041685D01*
X150062601Y-110878258D01*
X150126367Y-110724313D01*
X150218941Y-110585766D01*
X150336766Y-110467941D01*
X150475313Y-110375367D01*
X150629258Y-110311601D01*
X150792685Y-110279093D01*
X150959315Y-110279093D01*
X151122742Y-110311601D01*
G37*
G36*
X135247742Y-107771601D02*
G01*
X135401687Y-107835367D01*
X135540234Y-107927941D01*
X135658059Y-108045766D01*
X135750633Y-108184313D01*
X135814399Y-108338258D01*
X135846907Y-108501685D01*
X135846907Y-108668315D01*
X135814399Y-108831742D01*
X135750633Y-108985687D01*
X135658059Y-109124234D01*
X135540234Y-109242059D01*
X135401687Y-109334633D01*
X135247742Y-109398399D01*
X135084315Y-109430907D01*
X134917685Y-109430907D01*
X134754258Y-109398399D01*
X134600313Y-109334633D01*
X134461766Y-109242059D01*
X134343941Y-109124234D01*
X134251367Y-108985687D01*
X134187601Y-108831742D01*
X134155093Y-108668315D01*
X134155093Y-108501685D01*
X134187601Y-108338258D01*
X134251367Y-108184313D01*
X134343941Y-108045766D01*
X134461766Y-107927941D01*
X134600313Y-107835367D01*
X134754258Y-107771601D01*
X134917685Y-107739093D01*
X135084315Y-107739093D01*
X135247742Y-107771601D01*
G37*
G36*
X151122742Y-107771601D02*
G01*
X151276687Y-107835367D01*
X151415234Y-107927941D01*
X151533059Y-108045766D01*
X151625633Y-108184313D01*
X151689399Y-108338258D01*
X151721907Y-108501685D01*
X151721907Y-108668315D01*
X151689399Y-108831742D01*
X151625633Y-108985687D01*
X151533059Y-109124234D01*
X151415234Y-109242059D01*
X151276687Y-109334633D01*
X151122742Y-109398399D01*
X150959315Y-109430907D01*
X150792685Y-109430907D01*
X150629258Y-109398399D01*
X150475313Y-109334633D01*
X150336766Y-109242059D01*
X150218941Y-109124234D01*
X150126367Y-108985687D01*
X150062601Y-108831742D01*
X150030093Y-108668315D01*
X150030093Y-108501685D01*
X150062601Y-108338258D01*
X150126367Y-108184313D01*
X150218941Y-108045766D01*
X150336766Y-107927941D01*
X150475313Y-107835367D01*
X150629258Y-107771601D01*
X150792685Y-107739093D01*
X150959315Y-107739093D01*
X151122742Y-107771601D01*
G37*
G36*
X135247742Y-105231601D02*
G01*
X135401687Y-105295367D01*
X135540234Y-105387941D01*
X135658059Y-105505766D01*
X135750633Y-105644313D01*
X135814399Y-105798258D01*
X135846907Y-105961685D01*
X135846907Y-106128315D01*
X135814399Y-106291742D01*
X135750633Y-106445687D01*
X135658059Y-106584234D01*
X135540234Y-106702059D01*
X135401687Y-106794633D01*
X135247742Y-106858399D01*
X135084315Y-106890907D01*
X134917685Y-106890907D01*
X134754258Y-106858399D01*
X134600313Y-106794633D01*
X134461766Y-106702059D01*
X134343941Y-106584234D01*
X134251367Y-106445687D01*
X134187601Y-106291742D01*
X134155093Y-106128315D01*
X134155093Y-105961685D01*
X134187601Y-105798258D01*
X134251367Y-105644313D01*
X134343941Y-105505766D01*
X134461766Y-105387941D01*
X134600313Y-105295367D01*
X134754258Y-105231601D01*
X134917685Y-105199093D01*
X135084315Y-105199093D01*
X135247742Y-105231601D01*
G37*
G36*
X151122742Y-105231601D02*
G01*
X151276687Y-105295367D01*
X151415234Y-105387941D01*
X151533059Y-105505766D01*
X151625633Y-105644313D01*
X151689399Y-105798258D01*
X151721907Y-105961685D01*
X151721907Y-106128315D01*
X151689399Y-106291742D01*
X151625633Y-106445687D01*
X151533059Y-106584234D01*
X151415234Y-106702059D01*
X151276687Y-106794633D01*
X151122742Y-106858399D01*
X150959315Y-106890907D01*
X150792685Y-106890907D01*
X150629258Y-106858399D01*
X150475313Y-106794633D01*
X150336766Y-106702059D01*
X150218941Y-106584234D01*
X150126367Y-106445687D01*
X150062601Y-106291742D01*
X150030093Y-106128315D01*
X150030093Y-105961685D01*
X150062601Y-105798258D01*
X150126367Y-105644313D01*
X150218941Y-105505766D01*
X150336766Y-105387941D01*
X150475313Y-105295367D01*
X150629258Y-105231601D01*
X150792685Y-105199093D01*
X150959315Y-105199093D01*
X151122742Y-105231601D01*
G37*
G36*
X140589000Y-104647351D02*
G01*
X139420600Y-104647351D01*
X139420600Y-104342551D01*
X140589000Y-104342551D01*
X140589000Y-104647351D01*
G37*
G36*
X146329400Y-104647351D02*
G01*
X145161000Y-104647351D01*
X145161000Y-104342551D01*
X146329400Y-104342551D01*
X146329400Y-104647351D01*
G37*
G36*
X135247742Y-102691601D02*
G01*
X135401687Y-102755367D01*
X135540234Y-102847941D01*
X135658059Y-102965766D01*
X135750633Y-103104313D01*
X135814399Y-103258258D01*
X135846907Y-103421685D01*
X135846907Y-103588315D01*
X135814399Y-103751742D01*
X135750633Y-103905687D01*
X135658059Y-104044234D01*
X135540234Y-104162059D01*
X135401687Y-104254633D01*
X135247742Y-104318399D01*
X135084315Y-104350907D01*
X134917685Y-104350907D01*
X134754258Y-104318399D01*
X134600313Y-104254633D01*
X134461766Y-104162059D01*
X134343941Y-104044234D01*
X134251367Y-103905687D01*
X134187601Y-103751742D01*
X134155093Y-103588315D01*
X134155093Y-103421685D01*
X134187601Y-103258258D01*
X134251367Y-103104313D01*
X134343941Y-102965766D01*
X134461766Y-102847941D01*
X134600313Y-102755367D01*
X134754258Y-102691601D01*
X134917685Y-102659093D01*
X135084315Y-102659093D01*
X135247742Y-102691601D01*
G37*
G36*
X151122742Y-102691601D02*
G01*
X151276687Y-102755367D01*
X151415234Y-102847941D01*
X151533059Y-102965766D01*
X151625633Y-103104313D01*
X151689399Y-103258258D01*
X151721907Y-103421685D01*
X151721907Y-103588315D01*
X151689399Y-103751742D01*
X151625633Y-103905687D01*
X151533059Y-104044234D01*
X151415234Y-104162059D01*
X151276687Y-104254633D01*
X151122742Y-104318399D01*
X150959315Y-104350907D01*
X150792685Y-104350907D01*
X150629258Y-104318399D01*
X150475313Y-104254633D01*
X150336766Y-104162059D01*
X150218941Y-104044234D01*
X150126367Y-103905687D01*
X150062601Y-103751742D01*
X150030093Y-103588315D01*
X150030093Y-103421685D01*
X150062601Y-103258258D01*
X150126367Y-103104313D01*
X150218941Y-102965766D01*
X150336766Y-102847941D01*
X150475313Y-102755367D01*
X150629258Y-102691601D01*
X150792685Y-102659093D01*
X150959315Y-102659093D01*
X151122742Y-102691601D01*
G37*
G36*
X140589000Y-103997365D02*
G01*
X139420600Y-103997365D01*
X139420600Y-103692565D01*
X140589000Y-103692565D01*
X140589000Y-103997365D01*
G37*
G36*
X146329400Y-103997365D02*
G01*
X145161000Y-103997365D01*
X145161000Y-103692565D01*
X146329400Y-103692565D01*
X146329400Y-103997365D01*
G37*
G36*
X140589000Y-103347379D02*
G01*
X139420600Y-103347379D01*
X139420600Y-103042579D01*
X140589000Y-103042579D01*
X140589000Y-103347379D01*
G37*
G36*
X146329400Y-103347379D02*
G01*
X145161000Y-103347379D01*
X145161000Y-103042579D01*
X146329400Y-103042579D01*
X146329400Y-103347379D01*
G37*
G36*
X140589000Y-102697393D02*
G01*
X139420600Y-102697393D01*
X139420600Y-102392593D01*
X140589000Y-102392593D01*
X140589000Y-102697393D01*
G37*
G36*
X146329400Y-102697393D02*
G01*
X145161000Y-102697393D01*
X145161000Y-102392593D01*
X146329400Y-102392593D01*
X146329400Y-102697393D01*
G37*
G36*
X140589000Y-102047407D02*
G01*
X139420600Y-102047407D01*
X139420600Y-101742607D01*
X140589000Y-101742607D01*
X140589000Y-102047407D01*
G37*
G36*
X146329400Y-102047407D02*
G01*
X145161000Y-102047407D01*
X145161000Y-101742607D01*
X146329400Y-101742607D01*
X146329400Y-102047407D01*
G37*
G36*
X135247742Y-100151601D02*
G01*
X135401687Y-100215367D01*
X135540234Y-100307941D01*
X135658059Y-100425766D01*
X135750633Y-100564313D01*
X135814399Y-100718258D01*
X135846907Y-100881685D01*
X135846907Y-101048315D01*
X135814399Y-101211742D01*
X135750633Y-101365687D01*
X135658059Y-101504234D01*
X135540234Y-101622059D01*
X135401687Y-101714633D01*
X135247742Y-101778399D01*
X135084315Y-101810907D01*
X134917685Y-101810907D01*
X134754258Y-101778399D01*
X134600313Y-101714633D01*
X134461766Y-101622059D01*
X134343941Y-101504234D01*
X134251367Y-101365687D01*
X134187601Y-101211742D01*
X134155093Y-101048315D01*
X134155093Y-100881685D01*
X134187601Y-100718258D01*
X134251367Y-100564313D01*
X134343941Y-100425766D01*
X134461766Y-100307941D01*
X134600313Y-100215367D01*
X134754258Y-100151601D01*
X134917685Y-100119093D01*
X135084315Y-100119093D01*
X135247742Y-100151601D01*
G37*
G36*
X151122742Y-100151601D02*
G01*
X151276687Y-100215367D01*
X151415234Y-100307941D01*
X151533059Y-100425766D01*
X151625633Y-100564313D01*
X151689399Y-100718258D01*
X151721907Y-100881685D01*
X151721907Y-101048315D01*
X151689399Y-101211742D01*
X151625633Y-101365687D01*
X151533059Y-101504234D01*
X151415234Y-101622059D01*
X151276687Y-101714633D01*
X151122742Y-101778399D01*
X150959315Y-101810907D01*
X150792685Y-101810907D01*
X150629258Y-101778399D01*
X150475313Y-101714633D01*
X150336766Y-101622059D01*
X150218941Y-101504234D01*
X150126367Y-101365687D01*
X150062601Y-101211742D01*
X150030093Y-101048315D01*
X150030093Y-100881685D01*
X150062601Y-100718258D01*
X150126367Y-100564313D01*
X150218941Y-100425766D01*
X150336766Y-100307941D01*
X150475313Y-100215367D01*
X150629258Y-100151601D01*
X150792685Y-100119093D01*
X150959315Y-100119093D01*
X151122742Y-100151601D01*
G37*
G36*
X140589000Y-101397421D02*
G01*
X139420600Y-101397421D01*
X139420600Y-101092621D01*
X140589000Y-101092621D01*
X140589000Y-101397421D01*
G37*
G36*
X146329400Y-101397421D02*
G01*
X145161000Y-101397421D01*
X145161000Y-101092621D01*
X146329400Y-101092621D01*
X146329400Y-101397421D01*
G37*
G36*
X140589000Y-100747435D02*
G01*
X139420600Y-100747435D01*
X139420600Y-100442635D01*
X140589000Y-100442635D01*
X140589000Y-100747435D01*
G37*
G36*
X146329400Y-100747435D02*
G01*
X145161000Y-100747435D01*
X145161000Y-100442635D01*
X146329400Y-100442635D01*
X146329400Y-100747435D01*
G37*
G36*
X140589000Y-100097449D02*
G01*
X139420600Y-100097449D01*
X139420600Y-99792649D01*
X140589000Y-99792649D01*
X140589000Y-100097449D01*
G37*
G36*
X146329400Y-100097449D02*
G01*
X145161000Y-100097449D01*
X145161000Y-99792649D01*
X146329400Y-99792649D01*
X146329400Y-100097449D01*
G37*
G36*
X135247742Y-97611601D02*
G01*
X135401687Y-97675367D01*
X135540234Y-97767941D01*
X135658059Y-97885766D01*
X135750633Y-98024313D01*
X135814399Y-98178258D01*
X135846907Y-98341685D01*
X135846907Y-98508315D01*
X135814399Y-98671742D01*
X135750633Y-98825687D01*
X135658059Y-98964234D01*
X135540234Y-99082059D01*
X135401687Y-99174633D01*
X135247742Y-99238399D01*
X135084315Y-99270907D01*
X134917685Y-99270907D01*
X134754258Y-99238399D01*
X134600313Y-99174633D01*
X134461766Y-99082059D01*
X134343941Y-98964234D01*
X134251367Y-98825687D01*
X134187601Y-98671742D01*
X134155093Y-98508315D01*
X134155093Y-98341685D01*
X134187601Y-98178258D01*
X134251367Y-98024313D01*
X134343941Y-97885766D01*
X134461766Y-97767941D01*
X134600313Y-97675367D01*
X134754258Y-97611601D01*
X134917685Y-97579093D01*
X135084315Y-97579093D01*
X135247742Y-97611601D01*
G37*
G36*
X151122742Y-97611601D02*
G01*
X151276687Y-97675367D01*
X151415234Y-97767941D01*
X151533059Y-97885766D01*
X151625633Y-98024313D01*
X151689399Y-98178258D01*
X151721907Y-98341685D01*
X151721907Y-98508315D01*
X151689399Y-98671742D01*
X151625633Y-98825687D01*
X151533059Y-98964234D01*
X151415234Y-99082059D01*
X151276687Y-99174633D01*
X151122742Y-99238399D01*
X150959315Y-99270907D01*
X150792685Y-99270907D01*
X150629258Y-99238399D01*
X150475313Y-99174633D01*
X150336766Y-99082059D01*
X150218941Y-98964234D01*
X150126367Y-98825687D01*
X150062601Y-98671742D01*
X150030093Y-98508315D01*
X150030093Y-98341685D01*
X150062601Y-98178258D01*
X150126367Y-98024313D01*
X150218941Y-97885766D01*
X150336766Y-97767941D01*
X150475313Y-97675367D01*
X150629258Y-97611601D01*
X150792685Y-97579093D01*
X150959315Y-97579093D01*
X151122742Y-97611601D01*
G37*
G36*
X135247742Y-95071601D02*
G01*
X135401687Y-95135367D01*
X135540234Y-95227941D01*
X135658059Y-95345766D01*
X135750633Y-95484313D01*
X135814399Y-95638258D01*
X135846907Y-95801685D01*
X135846907Y-95968315D01*
X135814399Y-96131742D01*
X135750633Y-96285687D01*
X135658059Y-96424234D01*
X135540234Y-96542059D01*
X135401687Y-96634633D01*
X135247742Y-96698399D01*
X135084315Y-96730907D01*
X134917685Y-96730907D01*
X134754258Y-96698399D01*
X134600313Y-96634633D01*
X134461766Y-96542059D01*
X134343941Y-96424234D01*
X134251367Y-96285687D01*
X134187601Y-96131742D01*
X134155093Y-95968315D01*
X134155093Y-95801685D01*
X134187601Y-95638258D01*
X134251367Y-95484313D01*
X134343941Y-95345766D01*
X134461766Y-95227941D01*
X134600313Y-95135367D01*
X134754258Y-95071601D01*
X134917685Y-95039093D01*
X135084315Y-95039093D01*
X135247742Y-95071601D01*
G37*
G36*
X151122742Y-95071601D02*
G01*
X151276687Y-95135367D01*
X151415234Y-95227941D01*
X151533059Y-95345766D01*
X151625633Y-95484313D01*
X151689399Y-95638258D01*
X151721907Y-95801685D01*
X151721907Y-95968315D01*
X151689399Y-96131742D01*
X151625633Y-96285687D01*
X151533059Y-96424234D01*
X151415234Y-96542059D01*
X151276687Y-96634633D01*
X151122742Y-96698399D01*
X150959315Y-96730907D01*
X150792685Y-96730907D01*
X150629258Y-96698399D01*
X150475313Y-96634633D01*
X150336766Y-96542059D01*
X150218941Y-96424234D01*
X150126367Y-96285687D01*
X150062601Y-96131742D01*
X150030093Y-95968315D01*
X150030093Y-95801685D01*
X150062601Y-95638258D01*
X150126367Y-95484313D01*
X150218941Y-95345766D01*
X150336766Y-95227941D01*
X150475313Y-95135367D01*
X150629258Y-95071601D01*
X150792685Y-95039093D01*
X150959315Y-95039093D01*
X151122742Y-95071601D01*
G37*
G36*
X141857228Y-94469448D02*
G01*
X142002117Y-94529463D01*
X142132515Y-94616592D01*
X142243408Y-94727485D01*
X142330537Y-94857883D01*
X142390552Y-95002772D01*
X142421148Y-95156586D01*
X142421148Y-95313414D01*
X142390552Y-95467228D01*
X142330537Y-95612117D01*
X142243408Y-95742515D01*
X142132515Y-95853408D01*
X142002117Y-95940537D01*
X141857228Y-96000552D01*
X141703414Y-96031148D01*
X141546586Y-96031148D01*
X141392772Y-96000552D01*
X141247883Y-95940537D01*
X141117485Y-95853408D01*
X141006592Y-95742515D01*
X140919463Y-95612117D01*
X140859448Y-95467228D01*
X140828852Y-95313414D01*
X140828852Y-95156586D01*
X140859448Y-95002772D01*
X140919463Y-94857883D01*
X141006592Y-94727485D01*
X141117485Y-94616592D01*
X141247883Y-94529463D01*
X141392772Y-94469448D01*
X141546586Y-94438852D01*
X141703414Y-94438852D01*
X141857228Y-94469448D01*
G37*
G36*
X144357228Y-94469448D02*
G01*
X144502117Y-94529463D01*
X144632515Y-94616592D01*
X144743408Y-94727485D01*
X144830537Y-94857883D01*
X144890552Y-95002772D01*
X144921148Y-95156586D01*
X144921148Y-95313414D01*
X144890552Y-95467228D01*
X144830537Y-95612117D01*
X144743408Y-95742515D01*
X144632515Y-95853408D01*
X144502117Y-95940537D01*
X144357228Y-96000552D01*
X144203414Y-96031148D01*
X144046586Y-96031148D01*
X143892772Y-96000552D01*
X143747883Y-95940537D01*
X143617485Y-95853408D01*
X143506592Y-95742515D01*
X143419463Y-95612117D01*
X143359448Y-95467228D01*
X143328852Y-95313414D01*
X143328852Y-95156586D01*
X143359448Y-95002772D01*
X143419463Y-94857883D01*
X143506592Y-94727485D01*
X143617485Y-94616592D01*
X143747883Y-94529463D01*
X143892772Y-94469448D01*
X144046586Y-94438852D01*
X144203414Y-94438852D01*
X144357228Y-94469448D01*
G37*
G36*
X151726000Y-94195000D02*
G01*
X150026000Y-94195000D01*
X150026000Y-92495000D01*
X151726000Y-92495000D01*
X151726000Y-94195000D01*
G37*
G36*
X135247742Y-92531601D02*
G01*
X135401687Y-92595367D01*
X135540234Y-92687941D01*
X135658059Y-92805766D01*
X135750633Y-92944313D01*
X135814399Y-93098258D01*
X135846907Y-93261685D01*
X135846907Y-93428315D01*
X135814399Y-93591742D01*
X135750633Y-93745687D01*
X135658059Y-93884234D01*
X135540234Y-94002059D01*
X135401687Y-94094633D01*
X135247742Y-94158399D01*
X135084315Y-94190907D01*
X134917685Y-94190907D01*
X134754258Y-94158399D01*
X134600313Y-94094633D01*
X134461766Y-94002059D01*
X134343941Y-93884234D01*
X134251367Y-93745687D01*
X134187601Y-93591742D01*
X134155093Y-93428315D01*
X134155093Y-93261685D01*
X134187601Y-93098258D01*
X134251367Y-92944313D01*
X134343941Y-92805766D01*
X134461766Y-92687941D01*
X134600313Y-92595367D01*
X134754258Y-92531601D01*
X134917685Y-92499093D01*
X135084315Y-92499093D01*
X135247742Y-92531601D01*
G37*
M02*
