G04 #@! TF.GenerationSoftware,KiCad,Pcbnew,9.0.0*
G04 #@! TF.CreationDate,2025-02-20T19:15:02-05:00*
G04 #@! TF.ProjectId,surfboard,73757266-626f-4617-9264-2e6b69636164,rev?*
G04 #@! TF.SameCoordinates,Original*
G04 #@! TF.FileFunction,Copper,L1,Top*
G04 #@! TF.FilePolarity,Positive*
%FSLAX46Y46*%
G04 Gerber Fmt 4.6, Leading zero omitted, Abs format (unit mm)*
G04 Created by KiCad (PCBNEW 9.0.0) date 2025-02-20 19:15:02*
%MOMM*%
%LPD*%
G01*
G04 APERTURE LIST*
G04 #@! TA.AperFunction,SMDPad,CuDef*
%ADD10R,1.168400X0.304800*%
G04 #@! TD*
G04 #@! TA.AperFunction,ComponentPad*
%ADD11C,1.600000*%
G04 #@! TD*
G04 #@! TA.AperFunction,ComponentPad*
%ADD12R,1.700000X1.700000*%
G04 #@! TD*
G04 #@! TA.AperFunction,ComponentPad*
%ADD13O,1.700000X1.700000*%
G04 #@! TD*
G04 #@! TA.AperFunction,Conductor*
%ADD14C,0.203200*%
G04 #@! TD*
G04 APERTURE END LIST*
D10*
X140004800Y-99945049D03*
X140004800Y-100595035D03*
X140004800Y-101245021D03*
X140004800Y-101895007D03*
X140004800Y-102544993D03*
X140004800Y-103194979D03*
X140004800Y-103844965D03*
X140004800Y-104494951D03*
X145745200Y-104494951D03*
X145745200Y-103844965D03*
X145745200Y-103194979D03*
X145745200Y-102544993D03*
X145745200Y-101895007D03*
X145745200Y-101245021D03*
X145745200Y-100595035D03*
X145745200Y-99945049D03*
D11*
X141625000Y-95235000D03*
X144125000Y-95235000D03*
D12*
X135001000Y-111125000D03*
D13*
X135001000Y-108585000D03*
X135001000Y-106045000D03*
X135001000Y-103505000D03*
X135001000Y-100965000D03*
X135001000Y-98425000D03*
X135001000Y-95885000D03*
X135001000Y-93345000D03*
D12*
X150876000Y-93345000D03*
D13*
X150876000Y-95885000D03*
X150876000Y-98425000D03*
X150876000Y-100965000D03*
X150876000Y-103505000D03*
X150876000Y-106045000D03*
X150876000Y-108585000D03*
X150876000Y-111125000D03*
D14*
X135255000Y-93345000D02*
X135001000Y-93345000D01*
X140004800Y-98094800D02*
X135255000Y-93345000D01*
X135128000Y-95885000D02*
X135001000Y-95885000D01*
X135255000Y-96012000D02*
X135128000Y-95885000D01*
X135255000Y-96415070D02*
X135255000Y-96012000D01*
X138075021Y-101245021D02*
X135255000Y-98425000D01*
X140004800Y-101245021D02*
X138075021Y-101245021D01*
X136185007Y-101895007D02*
X135255000Y-100965000D01*
X140004800Y-101895007D02*
X136185007Y-101895007D01*
X135255000Y-103505000D02*
X135001000Y-103505000D01*
X135255000Y-98425000D02*
X135001000Y-98425000D01*
X136215007Y-102544993D02*
X135255000Y-103505000D01*
X140004800Y-99945049D02*
X140004800Y-98094800D01*
X135255000Y-106045000D02*
X135001000Y-106045000D01*
X140004800Y-100595035D02*
X139434965Y-100595035D01*
X138105021Y-103194979D02*
X135255000Y-106045000D01*
X135255000Y-100965000D02*
X135001000Y-100965000D01*
X135128000Y-108585000D02*
X135001000Y-108585000D01*
X135255000Y-108458000D02*
X135128000Y-108585000D01*
X139360035Y-103844965D02*
X135255000Y-107950000D01*
X140004800Y-103844965D02*
X139360035Y-103844965D01*
X140004800Y-106375200D02*
X135255000Y-111125000D01*
X135255000Y-111125000D02*
X135001000Y-111125000D01*
X140004800Y-104494951D02*
X140004800Y-106375200D01*
X135255000Y-107950000D02*
X135255000Y-108458000D01*
X140004800Y-103194979D02*
X138105021Y-103194979D01*
X140004800Y-102544993D02*
X136215007Y-102544993D01*
X139434965Y-100595035D02*
X135255000Y-96415070D01*
X145745200Y-106375200D02*
X150495000Y-111125000D01*
X145745200Y-104494951D02*
X145745200Y-106375200D01*
X150622000Y-108585000D02*
X150876000Y-108585000D01*
X150495000Y-108458000D02*
X150622000Y-108585000D01*
X150495000Y-108162965D02*
X150495000Y-108458000D01*
X145745200Y-103844965D02*
X146177000Y-103844965D01*
X147644979Y-103194979D02*
X150495000Y-106045000D01*
X150495000Y-111125000D02*
X150876000Y-111125000D01*
X150495000Y-103505000D02*
X150876000Y-103505000D01*
X149534993Y-102544993D02*
X150495000Y-103505000D01*
X145745200Y-102544993D02*
X149534993Y-102544993D01*
X145745200Y-103194979D02*
X147644979Y-103194979D01*
X150495000Y-100965000D02*
X150876000Y-100965000D01*
X149564993Y-101895007D02*
X150495000Y-100965000D01*
X145745200Y-101895007D02*
X149564993Y-101895007D01*
X150495000Y-98425000D02*
X150876000Y-98425000D01*
X146177000Y-103844965D02*
X150495000Y-108162965D01*
X150622000Y-95885000D02*
X150876000Y-95885000D01*
X145745200Y-100595035D02*
X146177000Y-100595035D01*
X150495000Y-93345000D02*
X150876000Y-93345000D01*
X146685000Y-97155000D02*
X150495000Y-93345000D01*
X146177000Y-100595035D02*
X150495000Y-96277035D01*
X150495000Y-96277035D02*
X150495000Y-96012000D01*
X145745200Y-101245021D02*
X147674979Y-101245021D01*
X150495000Y-96012000D02*
X150622000Y-95885000D01*
X147674979Y-101245021D02*
X150495000Y-98425000D01*
X150495000Y-106045000D02*
X150876000Y-106045000D01*
X146045000Y-97155000D02*
X144125000Y-95235000D01*
X146685000Y-97155000D02*
X146045000Y-97155000D01*
X145745200Y-98094800D02*
X146685000Y-97155000D01*
X145745200Y-99945049D02*
X145745200Y-98094800D01*
G04 #@! TA.AperFunction,NonConductor*
G36*
X154882539Y-90190185D02*
G01*
X154928294Y-90242989D01*
X154939500Y-90294500D01*
X154939500Y-114175500D01*
X154919815Y-114242539D01*
X154867011Y-114288294D01*
X154815500Y-114299500D01*
X130934500Y-114299500D01*
X130867461Y-114279815D01*
X130821706Y-114227011D01*
X130810500Y-114175500D01*
X130810500Y-93238713D01*
X133650500Y-93238713D01*
X133650500Y-93451286D01*
X133683753Y-93661239D01*
X133749444Y-93863414D01*
X133845951Y-94052820D01*
X133970890Y-94224786D01*
X134121213Y-94375109D01*
X134293182Y-94500050D01*
X134301946Y-94504516D01*
X134352742Y-94552491D01*
X134369536Y-94620312D01*
X134346998Y-94686447D01*
X134301946Y-94725484D01*
X134293182Y-94729949D01*
X134121213Y-94854890D01*
X133970890Y-95005213D01*
X133845951Y-95177179D01*
X133749444Y-95366585D01*
X133683753Y-95568760D01*
X133657546Y-95734228D01*
X133650500Y-95778713D01*
X133650500Y-95991287D01*
X133683754Y-96201243D01*
X133740205Y-96374982D01*
X133749444Y-96403414D01*
X133845951Y-96592820D01*
X133970890Y-96764786D01*
X134121213Y-96915109D01*
X134293182Y-97040050D01*
X134301946Y-97044516D01*
X134352742Y-97092491D01*
X134369536Y-97160312D01*
X134346998Y-97226447D01*
X134301946Y-97265484D01*
X134293182Y-97269949D01*
X134121213Y-97394890D01*
X133970890Y-97545213D01*
X133845951Y-97717179D01*
X133749444Y-97906585D01*
X133683753Y-98108760D01*
X133650500Y-98318713D01*
X133650500Y-98531286D01*
X133683753Y-98741239D01*
X133683753Y-98741241D01*
X133683754Y-98741243D01*
X133732864Y-98892388D01*
X133749444Y-98943414D01*
X133845951Y-99132820D01*
X133970890Y-99304786D01*
X134121213Y-99455109D01*
X134293182Y-99580050D01*
X134301946Y-99584516D01*
X134352742Y-99632491D01*
X134369536Y-99700312D01*
X134346998Y-99766447D01*
X134301946Y-99805484D01*
X134293182Y-99809949D01*
X134121213Y-99934890D01*
X133970890Y-100085213D01*
X133845951Y-100257179D01*
X133749444Y-100446585D01*
X133683753Y-100648760D01*
X133650500Y-100858713D01*
X133650500Y-101071286D01*
X133683753Y-101281239D01*
X133683753Y-101281241D01*
X133683754Y-101281243D01*
X133748924Y-101481816D01*
X133749444Y-101483414D01*
X133845951Y-101672820D01*
X133970890Y-101844786D01*
X134121213Y-101995109D01*
X134293182Y-102120050D01*
X134301946Y-102124516D01*
X134352742Y-102172491D01*
X134369536Y-102240312D01*
X134346998Y-102306447D01*
X134301946Y-102345484D01*
X134293182Y-102349949D01*
X134121213Y-102474890D01*
X133970890Y-102625213D01*
X133845951Y-102797179D01*
X133749444Y-102986585D01*
X133683753Y-103188760D01*
X133651050Y-103395243D01*
X133650500Y-103398713D01*
X133650500Y-103611287D01*
X133683754Y-103821243D01*
X133729132Y-103960902D01*
X133749444Y-104023414D01*
X133845951Y-104212820D01*
X133970890Y-104384786D01*
X134121213Y-104535109D01*
X134293182Y-104660050D01*
X134301946Y-104664516D01*
X134352742Y-104712491D01*
X134369536Y-104780312D01*
X134346998Y-104846447D01*
X134301946Y-104885484D01*
X134293182Y-104889949D01*
X134121213Y-105014890D01*
X133970890Y-105165213D01*
X133845951Y-105337179D01*
X133749444Y-105526585D01*
X133683753Y-105728760D01*
X133650500Y-105938713D01*
X133650500Y-106151286D01*
X133676686Y-106316622D01*
X133683754Y-106361243D01*
X133730456Y-106504977D01*
X133749444Y-106563414D01*
X133845951Y-106752820D01*
X133970890Y-106924786D01*
X134121213Y-107075109D01*
X134293182Y-107200050D01*
X134301946Y-107204516D01*
X134352742Y-107252491D01*
X134369536Y-107320312D01*
X134346998Y-107386447D01*
X134301946Y-107425484D01*
X134293182Y-107429949D01*
X134121213Y-107554890D01*
X133970890Y-107705213D01*
X133845951Y-107877179D01*
X133749444Y-108066585D01*
X133683753Y-108268760D01*
X133650500Y-108478713D01*
X133650500Y-108691286D01*
X133683753Y-108901239D01*
X133749444Y-109103414D01*
X133845951Y-109292820D01*
X133970890Y-109464786D01*
X134084430Y-109578326D01*
X134117915Y-109639649D01*
X134112931Y-109709341D01*
X134071059Y-109765274D01*
X134040083Y-109782189D01*
X133908669Y-109831203D01*
X133908664Y-109831206D01*
X133793455Y-109917452D01*
X133793452Y-109917455D01*
X133707206Y-110032664D01*
X133707202Y-110032671D01*
X133656908Y-110167517D01*
X133650501Y-110227116D01*
X133650500Y-110227135D01*
X133650500Y-112022870D01*
X133650501Y-112022876D01*
X133656908Y-112082483D01*
X133707202Y-112217328D01*
X133707206Y-112217335D01*
X133793452Y-112332544D01*
X133793455Y-112332547D01*
X133908664Y-112418793D01*
X133908671Y-112418797D01*
X134043517Y-112469091D01*
X134043516Y-112469091D01*
X134050444Y-112469835D01*
X134103127Y-112475500D01*
X135898872Y-112475499D01*
X135958483Y-112469091D01*
X136093331Y-112418796D01*
X136208546Y-112332546D01*
X136294796Y-112217331D01*
X136345091Y-112082483D01*
X136351500Y-112022873D01*
X136351499Y-110403857D01*
X136371184Y-110336819D01*
X136387813Y-110316182D01*
X140199022Y-106504974D01*
X140199022Y-106504972D01*
X140199024Y-106504971D01*
X140216461Y-106462872D01*
X140233900Y-106420770D01*
X140233900Y-106329629D01*
X140233900Y-105271850D01*
X140253585Y-105204811D01*
X140306389Y-105159056D01*
X140357900Y-105147850D01*
X140636871Y-105147850D01*
X140636872Y-105147850D01*
X140696483Y-105141442D01*
X140831331Y-105091147D01*
X140946546Y-105004897D01*
X141032796Y-104889682D01*
X141083091Y-104754834D01*
X141089500Y-104695224D01*
X141089499Y-104294679D01*
X141083091Y-104235068D01*
X141074968Y-104213292D01*
X141069983Y-104143602D01*
X141074966Y-104126630D01*
X141083091Y-104104848D01*
X141089500Y-104045238D01*
X141089499Y-103644693D01*
X141083091Y-103585082D01*
X141074968Y-103563306D01*
X141069983Y-103493616D01*
X141074966Y-103476644D01*
X141083091Y-103454862D01*
X141089500Y-103395252D01*
X141089499Y-102994707D01*
X141083091Y-102935096D01*
X141074968Y-102913320D01*
X141069983Y-102843630D01*
X141074966Y-102826658D01*
X141083091Y-102804876D01*
X141089500Y-102745266D01*
X141089499Y-102344721D01*
X141083091Y-102285110D01*
X141074968Y-102263334D01*
X141069983Y-102193644D01*
X141074966Y-102176672D01*
X141083091Y-102154890D01*
X141089500Y-102095280D01*
X141089499Y-101694735D01*
X141083091Y-101635124D01*
X141074968Y-101613348D01*
X141069983Y-101543658D01*
X141074966Y-101526686D01*
X141083091Y-101504904D01*
X141089500Y-101445294D01*
X141089499Y-101044749D01*
X141083091Y-100985138D01*
X141074968Y-100963362D01*
X141069983Y-100893672D01*
X141074966Y-100876700D01*
X141083091Y-100854918D01*
X141089500Y-100795308D01*
X141089499Y-100394763D01*
X141083091Y-100335152D01*
X141074968Y-100313376D01*
X141069983Y-100243686D01*
X141074966Y-100226714D01*
X141083091Y-100204932D01*
X141089500Y-100145322D01*
X141089499Y-99744777D01*
X141083091Y-99685166D01*
X141073553Y-99659594D01*
X141032797Y-99550320D01*
X141032793Y-99550313D01*
X140946547Y-99435104D01*
X140946544Y-99435101D01*
X140831335Y-99348855D01*
X140831328Y-99348851D01*
X140696482Y-99298557D01*
X140696483Y-99298557D01*
X140636883Y-99292150D01*
X140636881Y-99292149D01*
X140636873Y-99292149D01*
X140636865Y-99292149D01*
X140357900Y-99292149D01*
X140290861Y-99272464D01*
X140245106Y-99219660D01*
X140233900Y-99168149D01*
X140233900Y-98049229D01*
X140223684Y-98024566D01*
X140219452Y-98014350D01*
X140219450Y-98014346D01*
X140213024Y-97998831D01*
X140199022Y-97965026D01*
X140199020Y-97965024D01*
X140199020Y-97965023D01*
X137366645Y-95132648D01*
X140324500Y-95132648D01*
X140324500Y-95337351D01*
X140356522Y-95539534D01*
X140419781Y-95734223D01*
X140512715Y-95916613D01*
X140633028Y-96082213D01*
X140777786Y-96226971D01*
X140932372Y-96339282D01*
X140943390Y-96347287D01*
X141053541Y-96403412D01*
X141125776Y-96440218D01*
X141125778Y-96440218D01*
X141125781Y-96440220D01*
X141230137Y-96474127D01*
X141320465Y-96503477D01*
X141421557Y-96519488D01*
X141522648Y-96535500D01*
X141522649Y-96535500D01*
X141727351Y-96535500D01*
X141727352Y-96535500D01*
X141929534Y-96503477D01*
X142124219Y-96440220D01*
X142306610Y-96347287D01*
X142399590Y-96279732D01*
X142472213Y-96226971D01*
X142472215Y-96226968D01*
X142472219Y-96226966D01*
X142616966Y-96082219D01*
X142616968Y-96082215D01*
X142616971Y-96082213D01*
X142684212Y-95989662D01*
X142737287Y-95916610D01*
X142764515Y-95863171D01*
X142812490Y-95812376D01*
X142880311Y-95795581D01*
X142946446Y-95818118D01*
X142985485Y-95863172D01*
X143012715Y-95916613D01*
X143133028Y-96082213D01*
X143277786Y-96226971D01*
X143432372Y-96339282D01*
X143443390Y-96347287D01*
X143553541Y-96403412D01*
X143625776Y-96440218D01*
X143625778Y-96440218D01*
X143625781Y-96440220D01*
X143730137Y-96474127D01*
X143820465Y-96503477D01*
X143921557Y-96519488D01*
X144022648Y-96535500D01*
X144022649Y-96535500D01*
X144227351Y-96535500D01*
X144227352Y-96535500D01*
X144429534Y-96503477D01*
X144624219Y-96440220D01*
X144624224Y-96440217D01*
X144624228Y-96440216D01*
X144797009Y-96352179D01*
X144865678Y-96339282D01*
X144930418Y-96365558D01*
X144940985Y-96374982D01*
X145915225Y-97349222D01*
X145915230Y-97349224D01*
X145921648Y-97351883D01*
X145976052Y-97395724D01*
X145998117Y-97462018D01*
X145980838Y-97529717D01*
X145961877Y-97554125D01*
X145550979Y-97965023D01*
X145550977Y-97965026D01*
X145526313Y-98024569D01*
X145516100Y-98049228D01*
X145516100Y-99168149D01*
X145496415Y-99235188D01*
X145443611Y-99280943D01*
X145392100Y-99292149D01*
X145113130Y-99292149D01*
X145113123Y-99292150D01*
X145053516Y-99298557D01*
X144918671Y-99348851D01*
X144918664Y-99348855D01*
X144803455Y-99435101D01*
X144803452Y-99435104D01*
X144717206Y-99550313D01*
X144717202Y-99550320D01*
X144666910Y-99685162D01*
X144666909Y-99685166D01*
X144660500Y-99744776D01*
X144660500Y-99744783D01*
X144660500Y-99744784D01*
X144660500Y-100145319D01*
X144660501Y-100145325D01*
X144666908Y-100204930D01*
X144675031Y-100226708D01*
X144680015Y-100296400D01*
X144675032Y-100313372D01*
X144666909Y-100335152D01*
X144660500Y-100394762D01*
X144660500Y-100394769D01*
X144660500Y-100394770D01*
X144660500Y-100795305D01*
X144660501Y-100795311D01*
X144666908Y-100854916D01*
X144675031Y-100876694D01*
X144680015Y-100946386D01*
X144675032Y-100963358D01*
X144668967Y-100979621D01*
X144666909Y-100985138D01*
X144660500Y-101044748D01*
X144660500Y-101044755D01*
X144660500Y-101044756D01*
X144660500Y-101445291D01*
X144660501Y-101445297D01*
X144666908Y-101504902D01*
X144675031Y-101526680D01*
X144680015Y-101596372D01*
X144675032Y-101613344D01*
X144668974Y-101629588D01*
X144666909Y-101635124D01*
X144660500Y-101694734D01*
X144660500Y-101694741D01*
X144660500Y-101694742D01*
X144660500Y-102095277D01*
X144660501Y-102095283D01*
X144666908Y-102154888D01*
X144675031Y-102176666D01*
X144680015Y-102246358D01*
X144675032Y-102263330D01*
X144666909Y-102285110D01*
X144660500Y-102344720D01*
X144660500Y-102344727D01*
X144660500Y-102344728D01*
X144660500Y-102745263D01*
X144660501Y-102745269D01*
X144666908Y-102804874D01*
X144675031Y-102826652D01*
X144680015Y-102896344D01*
X144675032Y-102913316D01*
X144666909Y-102935096D01*
X144660500Y-102994706D01*
X144660500Y-102994713D01*
X144660500Y-102994714D01*
X144660500Y-103395249D01*
X144660501Y-103395255D01*
X144666908Y-103454860D01*
X144675031Y-103476638D01*
X144680015Y-103546330D01*
X144675032Y-103563302D01*
X144669726Y-103577530D01*
X144666909Y-103585082D01*
X144660500Y-103644692D01*
X144660500Y-103644699D01*
X144660500Y-103644700D01*
X144660500Y-104045235D01*
X144660501Y-104045241D01*
X144666908Y-104104846D01*
X144675031Y-104126624D01*
X144680015Y-104196316D01*
X144675032Y-104213288D01*
X144666909Y-104235068D01*
X144660500Y-104294678D01*
X144660500Y-104294685D01*
X144660500Y-104294686D01*
X144660500Y-104695221D01*
X144660501Y-104695227D01*
X144666908Y-104754834D01*
X144717202Y-104889679D01*
X144717206Y-104889686D01*
X144803452Y-105004895D01*
X144803455Y-105004898D01*
X144918664Y-105091144D01*
X144918671Y-105091148D01*
X144963618Y-105107912D01*
X145053517Y-105141442D01*
X145113127Y-105147851D01*
X145392101Y-105147850D01*
X145459139Y-105167534D01*
X145504894Y-105220338D01*
X145516100Y-105271850D01*
X145516100Y-106420768D01*
X145516101Y-106420773D01*
X145550975Y-106504969D01*
X145550976Y-106504971D01*
X145550978Y-106504975D01*
X145550979Y-106504976D01*
X145550980Y-106504977D01*
X149577614Y-110531610D01*
X149611099Y-110592933D01*
X149607864Y-110657608D01*
X149558754Y-110808755D01*
X149558753Y-110808759D01*
X149525500Y-111018713D01*
X149525500Y-111231286D01*
X149558753Y-111441239D01*
X149624444Y-111643414D01*
X149720951Y-111832820D01*
X149845890Y-112004786D01*
X149996213Y-112155109D01*
X150168179Y-112280048D01*
X150168181Y-112280049D01*
X150168184Y-112280051D01*
X150357588Y-112376557D01*
X150559757Y-112442246D01*
X150769713Y-112475500D01*
X150769714Y-112475500D01*
X150982286Y-112475500D01*
X150982287Y-112475500D01*
X151192243Y-112442246D01*
X151394412Y-112376557D01*
X151583816Y-112280051D01*
X151670138Y-112217335D01*
X151755786Y-112155109D01*
X151755788Y-112155106D01*
X151755792Y-112155104D01*
X151906104Y-112004792D01*
X151906106Y-112004788D01*
X151906109Y-112004786D01*
X152031048Y-111832820D01*
X152031047Y-111832820D01*
X152031051Y-111832816D01*
X152127557Y-111643412D01*
X152193246Y-111441243D01*
X152226500Y-111231287D01*
X152226500Y-111018713D01*
X152193246Y-110808757D01*
X152127557Y-110606588D01*
X152031051Y-110417184D01*
X152031049Y-110417181D01*
X152031048Y-110417179D01*
X151906109Y-110245213D01*
X151755786Y-110094890D01*
X151583820Y-109969951D01*
X151583115Y-109969591D01*
X151575054Y-109965485D01*
X151524259Y-109917512D01*
X151507463Y-109849692D01*
X151529999Y-109783556D01*
X151575054Y-109744515D01*
X151583816Y-109740051D01*
X151626085Y-109709341D01*
X151755786Y-109615109D01*
X151755788Y-109615106D01*
X151755792Y-109615104D01*
X151906104Y-109464792D01*
X151906106Y-109464788D01*
X151906109Y-109464786D01*
X152031048Y-109292820D01*
X152031047Y-109292820D01*
X152031051Y-109292816D01*
X152127557Y-109103412D01*
X152193246Y-108901243D01*
X152226500Y-108691287D01*
X152226500Y-108478713D01*
X152193246Y-108268757D01*
X152127557Y-108066588D01*
X152031051Y-107877184D01*
X152031049Y-107877181D01*
X152031048Y-107877179D01*
X151906109Y-107705213D01*
X151755786Y-107554890D01*
X151583820Y-107429951D01*
X151583115Y-107429591D01*
X151575054Y-107425485D01*
X151524259Y-107377512D01*
X151507463Y-107309692D01*
X151529999Y-107243556D01*
X151575054Y-107204515D01*
X151583816Y-107200051D01*
X151605789Y-107184086D01*
X151755786Y-107075109D01*
X151755788Y-107075106D01*
X151755792Y-107075104D01*
X151906104Y-106924792D01*
X151906106Y-106924788D01*
X151906109Y-106924786D01*
X152031048Y-106752820D01*
X152031047Y-106752820D01*
X152031051Y-106752816D01*
X152127557Y-106563412D01*
X152193246Y-106361243D01*
X152226500Y-106151287D01*
X152226500Y-105938713D01*
X152193246Y-105728757D01*
X152127557Y-105526588D01*
X152031051Y-105337184D01*
X152031049Y-105337181D01*
X152031048Y-105337179D01*
X151906109Y-105165213D01*
X151755786Y-105014890D01*
X151583820Y-104889951D01*
X151583115Y-104889591D01*
X151575054Y-104885485D01*
X151524259Y-104837512D01*
X151507463Y-104769692D01*
X151529999Y-104703556D01*
X151575054Y-104664515D01*
X151583816Y-104660051D01*
X151605789Y-104644086D01*
X151755786Y-104535109D01*
X151755788Y-104535106D01*
X151755792Y-104535104D01*
X151906104Y-104384792D01*
X151906106Y-104384788D01*
X151906109Y-104384786D01*
X152031048Y-104212820D01*
X152031047Y-104212820D01*
X152031051Y-104212816D01*
X152127557Y-104023412D01*
X152193246Y-103821243D01*
X152226500Y-103611287D01*
X152226500Y-103398713D01*
X152193246Y-103188757D01*
X152127557Y-102986588D01*
X152031051Y-102797184D01*
X152031049Y-102797181D01*
X152031048Y-102797179D01*
X151906109Y-102625213D01*
X151755786Y-102474890D01*
X151583820Y-102349951D01*
X151583115Y-102349591D01*
X151575054Y-102345485D01*
X151524259Y-102297512D01*
X151507463Y-102229692D01*
X151529999Y-102163556D01*
X151575054Y-102124515D01*
X151583816Y-102120051D01*
X151605789Y-102104086D01*
X151755786Y-101995109D01*
X151755788Y-101995106D01*
X151755792Y-101995104D01*
X151906104Y-101844792D01*
X151906106Y-101844788D01*
X151906109Y-101844786D01*
X152031048Y-101672820D01*
X152031047Y-101672820D01*
X152031051Y-101672816D01*
X152127557Y-101483412D01*
X152193246Y-101281243D01*
X152226500Y-101071287D01*
X152226500Y-100858713D01*
X152193246Y-100648757D01*
X152127557Y-100446588D01*
X152031051Y-100257184D01*
X152031049Y-100257181D01*
X152031048Y-100257179D01*
X151906109Y-100085213D01*
X151755786Y-99934890D01*
X151583820Y-99809951D01*
X151583115Y-99809591D01*
X151575054Y-99805485D01*
X151524259Y-99757512D01*
X151507463Y-99689692D01*
X151529999Y-99623556D01*
X151575054Y-99584515D01*
X151583816Y-99580051D01*
X151610357Y-99560768D01*
X151755786Y-99455109D01*
X151755788Y-99455106D01*
X151755792Y-99455104D01*
X151906104Y-99304792D01*
X151906106Y-99304788D01*
X151906109Y-99304786D01*
X152031048Y-99132820D01*
X152031047Y-99132820D01*
X152031051Y-99132816D01*
X152127557Y-98943412D01*
X152193246Y-98741243D01*
X152226500Y-98531287D01*
X152226500Y-98318713D01*
X152193246Y-98108757D01*
X152127557Y-97906588D01*
X152031051Y-97717184D01*
X152031049Y-97717181D01*
X152031048Y-97717179D01*
X151906109Y-97545213D01*
X151755786Y-97394890D01*
X151583820Y-97269951D01*
X151578699Y-97267342D01*
X151575054Y-97265485D01*
X151524259Y-97217512D01*
X151507463Y-97149692D01*
X151529999Y-97083556D01*
X151575054Y-97044515D01*
X151583816Y-97040051D01*
X151648804Y-96992835D01*
X151755786Y-96915109D01*
X151755788Y-96915106D01*
X151755792Y-96915104D01*
X151906104Y-96764792D01*
X151906106Y-96764788D01*
X151906109Y-96764786D01*
X152031048Y-96592820D01*
X152031049Y-96592819D01*
X152031051Y-96592816D01*
X152127557Y-96403412D01*
X152193246Y-96201243D01*
X152226500Y-95991287D01*
X152226500Y-95778713D01*
X152193246Y-95568757D01*
X152127557Y-95366588D01*
X152031051Y-95177184D01*
X152031049Y-95177181D01*
X152031048Y-95177179D01*
X151906109Y-95005213D01*
X151792569Y-94891673D01*
X151759084Y-94830350D01*
X151764068Y-94760658D01*
X151805940Y-94704725D01*
X151836915Y-94687810D01*
X151968331Y-94638796D01*
X152083546Y-94552546D01*
X152169796Y-94437331D01*
X152220091Y-94302483D01*
X152226500Y-94242873D01*
X152226499Y-92447128D01*
X152220091Y-92387517D01*
X152169796Y-92252669D01*
X152169795Y-92252668D01*
X152169793Y-92252664D01*
X152083547Y-92137455D01*
X152083544Y-92137452D01*
X151968335Y-92051206D01*
X151968328Y-92051202D01*
X151833482Y-92000908D01*
X151833483Y-92000908D01*
X151773883Y-91994501D01*
X151773881Y-91994500D01*
X151773873Y-91994500D01*
X151773864Y-91994500D01*
X149978129Y-91994500D01*
X149978123Y-91994501D01*
X149918516Y-92000908D01*
X149783671Y-92051202D01*
X149783664Y-92051206D01*
X149668455Y-92137452D01*
X149668452Y-92137455D01*
X149582206Y-92252664D01*
X149582202Y-92252671D01*
X149531908Y-92387517D01*
X149525501Y-92447116D01*
X149525501Y-92447123D01*
X149525500Y-92447135D01*
X149525500Y-93939140D01*
X149505815Y-94006179D01*
X149489181Y-94026821D01*
X146626422Y-96889581D01*
X146565099Y-96923066D01*
X146538741Y-96925900D01*
X146191259Y-96925900D01*
X146124220Y-96906215D01*
X146103578Y-96889581D01*
X145264982Y-96050985D01*
X145231497Y-95989662D01*
X145236481Y-95919970D01*
X145242179Y-95907009D01*
X145330216Y-95734228D01*
X145330218Y-95734223D01*
X145330220Y-95734219D01*
X145393477Y-95539534D01*
X145425500Y-95337352D01*
X145425500Y-95132648D01*
X145393477Y-94930466D01*
X145380872Y-94891673D01*
X145360947Y-94830350D01*
X145330220Y-94735781D01*
X145330218Y-94735778D01*
X145330218Y-94735776D01*
X145280804Y-94638797D01*
X145237287Y-94553390D01*
X145212989Y-94519946D01*
X145116971Y-94387786D01*
X144972213Y-94243028D01*
X144806613Y-94122715D01*
X144806612Y-94122714D01*
X144806610Y-94122713D01*
X144749653Y-94093691D01*
X144624223Y-94029781D01*
X144429534Y-93966522D01*
X144254995Y-93938878D01*
X144227352Y-93934500D01*
X144022648Y-93934500D01*
X143998329Y-93938351D01*
X143820465Y-93966522D01*
X143625776Y-94029781D01*
X143443386Y-94122715D01*
X143277786Y-94243028D01*
X143133028Y-94387786D01*
X143012713Y-94553388D01*
X142985484Y-94606828D01*
X142937510Y-94657623D01*
X142869688Y-94674418D01*
X142803554Y-94651880D01*
X142764516Y-94606828D01*
X142737286Y-94553388D01*
X142616971Y-94387786D01*
X142472213Y-94243028D01*
X142306613Y-94122715D01*
X142306612Y-94122714D01*
X142306610Y-94122713D01*
X142249653Y-94093691D01*
X142124223Y-94029781D01*
X141929534Y-93966522D01*
X141754995Y-93938878D01*
X141727352Y-93934500D01*
X141522648Y-93934500D01*
X141498329Y-93938351D01*
X141320465Y-93966522D01*
X141125776Y-94029781D01*
X140943386Y-94122715D01*
X140777786Y-94243028D01*
X140633028Y-94387786D01*
X140512715Y-94553386D01*
X140419781Y-94735776D01*
X140356522Y-94930465D01*
X140324500Y-95132648D01*
X137366645Y-95132648D01*
X136263892Y-94029895D01*
X136230407Y-93968572D01*
X136235391Y-93898880D01*
X136241085Y-93885925D01*
X136252557Y-93863412D01*
X136318246Y-93661243D01*
X136351500Y-93451287D01*
X136351500Y-93238713D01*
X136318246Y-93028757D01*
X136252557Y-92826588D01*
X136156051Y-92637184D01*
X136156049Y-92637181D01*
X136156048Y-92637179D01*
X136031109Y-92465213D01*
X135880786Y-92314890D01*
X135708820Y-92189951D01*
X135519414Y-92093444D01*
X135519413Y-92093443D01*
X135519412Y-92093443D01*
X135317243Y-92027754D01*
X135317241Y-92027753D01*
X135317240Y-92027753D01*
X135155957Y-92002208D01*
X135107287Y-91994500D01*
X134894713Y-91994500D01*
X134846042Y-92002208D01*
X134684760Y-92027753D01*
X134482585Y-92093444D01*
X134293179Y-92189951D01*
X134121213Y-92314890D01*
X133970890Y-92465213D01*
X133845951Y-92637179D01*
X133749444Y-92826585D01*
X133683753Y-93028760D01*
X133650500Y-93238713D01*
X130810500Y-93238713D01*
X130810500Y-90294500D01*
X130830185Y-90227461D01*
X130882989Y-90181706D01*
X130934500Y-90170500D01*
X154815500Y-90170500D01*
X154882539Y-90190185D01*
G37*
G04 #@! TD.AperFunction*
G04 #@! TA.AperFunction,NonConductor*
G36*
X149690891Y-94575617D02*
G01*
X149721868Y-94592532D01*
X149740965Y-94606828D01*
X149776518Y-94633443D01*
X149783668Y-94638795D01*
X149783671Y-94638797D01*
X149915082Y-94687810D01*
X149971016Y-94729681D01*
X149995433Y-94795145D01*
X149980582Y-94863418D01*
X149959431Y-94891673D01*
X149845889Y-95005215D01*
X149720951Y-95177179D01*
X149624444Y-95366585D01*
X149558753Y-95568760D01*
X149532546Y-95734228D01*
X149525500Y-95778713D01*
X149525500Y-95991287D01*
X149558754Y-96201243D01*
X149624443Y-96403412D01*
X149720949Y-96592816D01*
X149720951Y-96592818D01*
X149723161Y-96597156D01*
X149722224Y-96597633D01*
X149739134Y-96660188D01*
X149718007Y-96726787D01*
X149702844Y-96745192D01*
X146927694Y-99520342D01*
X146866371Y-99553827D01*
X146796679Y-99548843D01*
X146740748Y-99506973D01*
X146686946Y-99435103D01*
X146686944Y-99435101D01*
X146686943Y-99435100D01*
X146571735Y-99348855D01*
X146571728Y-99348851D01*
X146436882Y-99298557D01*
X146436883Y-99298557D01*
X146377283Y-99292150D01*
X146377281Y-99292149D01*
X146377273Y-99292149D01*
X146377265Y-99292149D01*
X146098300Y-99292149D01*
X146031261Y-99272464D01*
X145985506Y-99219660D01*
X145974300Y-99168149D01*
X145974300Y-98241059D01*
X145993985Y-98174020D01*
X146010619Y-98153378D01*
X146446818Y-97717179D01*
X146879222Y-97284775D01*
X146879222Y-97284774D01*
X149559880Y-94604114D01*
X149621199Y-94570633D01*
X149690891Y-94575617D01*
G37*
G04 #@! TD.AperFunction*
G04 #@! TA.AperFunction,NonConductor*
G36*
X149653756Y-97544788D02*
G01*
X149709689Y-97586660D01*
X149734106Y-97652124D01*
X149720907Y-97717264D01*
X149624445Y-97906582D01*
X149558753Y-98108760D01*
X149525500Y-98318713D01*
X149525500Y-98531286D01*
X149558753Y-98741240D01*
X149607864Y-98892388D01*
X149609859Y-98962229D01*
X149577614Y-99018387D01*
X147616401Y-100979602D01*
X147555078Y-101013087D01*
X147528720Y-101015921D01*
X146942034Y-101015921D01*
X146874995Y-100996236D01*
X146829240Y-100943432D01*
X146819296Y-100874274D01*
X146822273Y-100862599D01*
X146821707Y-100862466D01*
X146823488Y-100854925D01*
X146823491Y-100854918D01*
X146829900Y-100795308D01*
X146829899Y-100394763D01*
X146823754Y-100337600D01*
X146836160Y-100268843D01*
X146859360Y-100236670D01*
X149522743Y-97573287D01*
X149584064Y-97539804D01*
X149653756Y-97544788D01*
G37*
G04 #@! TD.AperFunction*
G04 #@! TA.AperFunction,NonConductor*
G36*
X149935884Y-99410626D02*
G01*
X149980231Y-99439127D01*
X149996213Y-99455109D01*
X150168182Y-99580050D01*
X150176946Y-99584516D01*
X150227742Y-99632491D01*
X150244536Y-99700312D01*
X150221998Y-99766447D01*
X150176946Y-99805484D01*
X150168182Y-99809949D01*
X149996213Y-99934890D01*
X149845890Y-100085213D01*
X149720951Y-100257179D01*
X149624444Y-100446585D01*
X149558753Y-100648760D01*
X149525500Y-100858713D01*
X149525500Y-101071286D01*
X149558753Y-101281240D01*
X149607864Y-101432389D01*
X149608298Y-101447600D01*
X149613617Y-101461860D01*
X149609275Y-101481816D01*
X149609859Y-101502231D01*
X149601771Y-101516316D01*
X149598766Y-101530133D01*
X149577615Y-101558388D01*
X149506413Y-101629589D01*
X149445093Y-101663073D01*
X149418734Y-101665907D01*
X147874300Y-101665907D01*
X147807261Y-101646222D01*
X147761506Y-101593418D01*
X147751562Y-101524260D01*
X147780587Y-101460704D01*
X147803559Y-101440437D01*
X147804752Y-101439243D01*
X147804754Y-101439243D01*
X149804869Y-99439126D01*
X149866192Y-99405642D01*
X149935884Y-99410626D01*
G37*
G04 #@! TD.AperFunction*
G04 #@! TA.AperFunction,NonConductor*
G36*
X149935883Y-101950626D02*
G01*
X149980231Y-101979127D01*
X149996213Y-101995109D01*
X150168182Y-102120050D01*
X150176946Y-102124516D01*
X150227742Y-102172491D01*
X150244536Y-102240312D01*
X150221998Y-102306447D01*
X150176946Y-102345484D01*
X150168182Y-102349949D01*
X149996211Y-102474892D01*
X149996209Y-102474894D01*
X149980226Y-102490876D01*
X149918901Y-102524358D01*
X149849209Y-102519370D01*
X149804868Y-102490871D01*
X149664768Y-102350771D01*
X149662788Y-102349951D01*
X149640630Y-102340773D01*
X149586229Y-102296933D01*
X149564164Y-102230639D01*
X149581443Y-102162940D01*
X149632580Y-102115329D01*
X149640634Y-102111651D01*
X149645443Y-102109659D01*
X149694768Y-102089229D01*
X149804871Y-101979125D01*
X149866191Y-101945642D01*
X149935883Y-101950626D01*
G37*
G04 #@! TD.AperFunction*
G04 #@! TA.AperFunction,NonConductor*
G36*
X149418174Y-102782737D02*
G01*
X149448161Y-102789261D01*
X149453176Y-102793015D01*
X149455773Y-102793778D01*
X149476415Y-102810412D01*
X149577614Y-102911611D01*
X149611099Y-102972934D01*
X149607864Y-103037609D01*
X149558754Y-103188755D01*
X149558753Y-103188759D01*
X149526050Y-103395243D01*
X149525500Y-103398713D01*
X149525500Y-103611287D01*
X149558754Y-103821243D01*
X149604132Y-103960902D01*
X149624444Y-104023414D01*
X149720951Y-104212820D01*
X149845890Y-104384786D01*
X149996213Y-104535109D01*
X150168182Y-104660050D01*
X150176946Y-104664516D01*
X150227742Y-104712491D01*
X150244536Y-104780312D01*
X150221998Y-104846447D01*
X150176946Y-104885484D01*
X150168182Y-104889949D01*
X149996211Y-105014892D01*
X149996209Y-105014894D01*
X149980226Y-105030876D01*
X149918901Y-105064358D01*
X149849209Y-105059370D01*
X149804868Y-105030871D01*
X147766118Y-102992121D01*
X147767048Y-102991190D01*
X147730604Y-102947583D01*
X147721897Y-102878258D01*
X147752051Y-102815231D01*
X147811494Y-102778511D01*
X147844300Y-102774093D01*
X149388734Y-102774093D01*
X149418174Y-102782737D01*
G37*
G04 #@! TD.AperFunction*
G04 #@! TA.AperFunction,NonConductor*
G36*
X147565759Y-103443764D02*
G01*
X147586401Y-103460398D01*
X149577614Y-105451610D01*
X149611099Y-105512933D01*
X149607864Y-105577608D01*
X149558754Y-105728755D01*
X149558753Y-105728759D01*
X149525500Y-105938713D01*
X149525500Y-106151286D01*
X149551686Y-106316622D01*
X149558754Y-106361243D01*
X149605456Y-106504977D01*
X149624444Y-106563414D01*
X149689741Y-106691567D01*
X149702637Y-106760236D01*
X149676361Y-106824977D01*
X149619254Y-106865234D01*
X149549449Y-106868226D01*
X149491575Y-106835543D01*
X146859362Y-104203330D01*
X146825877Y-104142007D01*
X146823754Y-104102398D01*
X146829900Y-104045238D01*
X146829899Y-103644693D01*
X146823491Y-103585082D01*
X146823490Y-103585078D01*
X146821707Y-103577531D01*
X146824799Y-103576800D01*
X146820881Y-103521666D01*
X146854393Y-103460358D01*
X146915732Y-103426901D01*
X146942035Y-103424079D01*
X147498720Y-103424079D01*
X147565759Y-103443764D01*
G37*
G04 #@! TD.AperFunction*
G04 #@! TA.AperFunction,NonConductor*
G36*
X146927695Y-104919657D02*
G01*
X149715189Y-107707151D01*
X149748674Y-107768474D01*
X149743690Y-107838166D01*
X149727828Y-107867715D01*
X149720950Y-107877181D01*
X149624444Y-108066585D01*
X149558753Y-108268760D01*
X149525500Y-108478713D01*
X149525500Y-108691286D01*
X149558753Y-108901239D01*
X149624444Y-109103414D01*
X149720951Y-109292820D01*
X149845890Y-109464786D01*
X149996213Y-109615109D01*
X150168182Y-109740050D01*
X150176946Y-109744516D01*
X150227742Y-109792491D01*
X150244536Y-109860312D01*
X150221998Y-109926447D01*
X150176946Y-109965484D01*
X150168182Y-109969949D01*
X149996211Y-110094892D01*
X149996209Y-110094894D01*
X149980226Y-110110876D01*
X149918901Y-110144358D01*
X149849209Y-110139370D01*
X149804868Y-110110871D01*
X146010619Y-106316622D01*
X145977134Y-106255299D01*
X145974300Y-106228941D01*
X145974300Y-105271850D01*
X145993985Y-105204811D01*
X146046789Y-105159056D01*
X146098300Y-105147850D01*
X146377271Y-105147850D01*
X146377272Y-105147850D01*
X146436883Y-105141442D01*
X146571731Y-105091147D01*
X146686946Y-105004897D01*
X146740749Y-104933025D01*
X146796681Y-104891156D01*
X146866373Y-104886172D01*
X146927695Y-104919657D01*
G37*
G04 #@! TD.AperFunction*
G04 #@! TA.AperFunction,NonConductor*
G36*
X135975490Y-94395901D02*
G01*
X136002196Y-94416193D01*
X139739381Y-98153377D01*
X139772866Y-98214700D01*
X139775700Y-98241058D01*
X139775700Y-99168149D01*
X139756015Y-99235188D01*
X139703211Y-99280943D01*
X139651700Y-99292149D01*
X139372730Y-99292149D01*
X139372723Y-99292150D01*
X139313116Y-99298557D01*
X139178271Y-99348851D01*
X139178264Y-99348855D01*
X139063055Y-99435101D01*
X139063052Y-99435104D01*
X138976806Y-99550313D01*
X138976802Y-99550320D01*
X138972906Y-99560768D01*
X138931035Y-99616702D01*
X138865571Y-99641119D01*
X138797298Y-99626268D01*
X138769043Y-99605116D01*
X136062906Y-96898979D01*
X136029421Y-96837656D01*
X136034405Y-96767964D01*
X136050269Y-96738413D01*
X136099548Y-96670586D01*
X136156051Y-96592816D01*
X136252557Y-96403412D01*
X136318246Y-96201243D01*
X136351500Y-95991287D01*
X136351500Y-95778713D01*
X136318246Y-95568757D01*
X136252557Y-95366588D01*
X136156051Y-95177184D01*
X136156049Y-95177181D01*
X136156048Y-95177179D01*
X136031109Y-95005213D01*
X135880786Y-94854890D01*
X135708820Y-94729951D01*
X135708115Y-94729591D01*
X135700054Y-94725485D01*
X135649259Y-94677512D01*
X135632463Y-94609692D01*
X135654999Y-94543556D01*
X135700054Y-94504515D01*
X135708816Y-94500051D01*
X135841632Y-94403554D01*
X135907436Y-94380076D01*
X135975490Y-94395901D01*
G37*
G04 #@! TD.AperFunction*
G04 #@! TA.AperFunction,NonConductor*
G36*
X136508292Y-97996916D02*
G01*
X136530430Y-98014497D01*
X138883781Y-100367848D01*
X138917266Y-100429171D01*
X138920100Y-100455529D01*
X138920100Y-100795304D01*
X138920101Y-100795311D01*
X138926509Y-100854919D01*
X138928292Y-100862464D01*
X138925196Y-100863195D01*
X138929127Y-100918305D01*
X138895628Y-100979621D01*
X138834298Y-101013093D01*
X138807966Y-101015921D01*
X138221280Y-101015921D01*
X138154241Y-100996236D01*
X138133599Y-100979602D01*
X136263892Y-99109895D01*
X136230407Y-99048572D01*
X136235391Y-98978880D01*
X136241085Y-98965925D01*
X136252557Y-98943412D01*
X136318246Y-98741243D01*
X136351500Y-98531287D01*
X136351500Y-98318713D01*
X136320276Y-98121574D01*
X136329230Y-98052283D01*
X136374227Y-97998831D01*
X136440978Y-97978191D01*
X136508292Y-97996916D01*
G37*
G04 #@! TD.AperFunction*
G04 #@! TA.AperFunction,NonConductor*
G36*
X135975490Y-99475901D02*
G01*
X136024184Y-99526007D01*
X136038060Y-99594485D01*
X136012711Y-99659594D01*
X135985801Y-99685335D01*
X135957051Y-99705534D01*
X137941715Y-101436884D01*
X137944590Y-101438805D01*
X137946400Y-101440971D01*
X137947716Y-101442119D01*
X137947534Y-101442327D01*
X137989396Y-101492417D01*
X137998103Y-101561742D01*
X137967949Y-101624769D01*
X137908506Y-101661489D01*
X137875700Y-101665907D01*
X136361920Y-101665907D01*
X136294881Y-101646222D01*
X136249126Y-101593418D01*
X136239182Y-101524260D01*
X136250705Y-101487916D01*
X136250693Y-101487911D01*
X136250754Y-101487762D01*
X136251437Y-101485610D01*
X136252555Y-101483415D01*
X136252557Y-101483412D01*
X136318246Y-101281243D01*
X136351500Y-101071287D01*
X136351500Y-100858713D01*
X136318246Y-100648757D01*
X136252557Y-100446588D01*
X136156051Y-100257184D01*
X136156049Y-100257181D01*
X136156048Y-100257179D01*
X136031109Y-100085213D01*
X135880786Y-99934890D01*
X135708820Y-99809951D01*
X135708115Y-99809591D01*
X135700054Y-99805485D01*
X135649259Y-99757512D01*
X135632463Y-99689692D01*
X135654999Y-99623556D01*
X135700054Y-99584515D01*
X135708816Y-99580051D01*
X135841632Y-99483554D01*
X135907436Y-99460076D01*
X135975490Y-99475901D01*
G37*
G04 #@! TD.AperFunction*
G04 #@! TA.AperFunction,NonConductor*
G36*
X135975490Y-102015901D02*
G01*
X136002196Y-102036193D01*
X136055230Y-102089227D01*
X136055231Y-102089227D01*
X136055233Y-102089229D01*
X136104558Y-102109659D01*
X136109363Y-102111649D01*
X136109364Y-102111650D01*
X136109383Y-102111658D01*
X136132918Y-102130630D01*
X136163768Y-102155488D01*
X136163772Y-102155500D01*
X136163780Y-102155507D01*
X136173774Y-102185547D01*
X136185835Y-102221782D01*
X136185832Y-102221792D01*
X136185836Y-102221804D01*
X136176877Y-102256880D01*
X136168558Y-102289482D01*
X136168549Y-102289489D01*
X136168547Y-102289501D01*
X136141315Y-102314847D01*
X136117422Y-102337094D01*
X136117405Y-102337101D01*
X136117403Y-102337104D01*
X136117398Y-102337104D01*
X136109371Y-102340771D01*
X136085234Y-102350769D01*
X136085230Y-102350772D01*
X136002195Y-102433806D01*
X135940872Y-102467290D01*
X135871180Y-102462305D01*
X135841630Y-102446443D01*
X135799170Y-102415595D01*
X135708816Y-102349949D01*
X135700054Y-102345485D01*
X135649259Y-102297512D01*
X135632463Y-102229692D01*
X135654999Y-102163556D01*
X135700054Y-102124515D01*
X135708816Y-102120051D01*
X135841632Y-102023554D01*
X135907436Y-102000076D01*
X135975490Y-102015901D01*
G37*
G04 #@! TD.AperFunction*
G04 #@! TA.AperFunction,NonConductor*
G36*
X137972740Y-102793778D02*
G01*
X138018495Y-102846582D01*
X138028439Y-102915740D01*
X137999414Y-102979296D01*
X137976428Y-102999575D01*
X136002196Y-104973805D01*
X135940873Y-105007290D01*
X135871181Y-105002306D01*
X135841630Y-104986443D01*
X135768108Y-104933027D01*
X135708816Y-104889949D01*
X135700054Y-104885485D01*
X135649259Y-104837512D01*
X135632463Y-104769692D01*
X135654999Y-104703556D01*
X135700054Y-104664515D01*
X135708816Y-104660051D01*
X135730789Y-104644086D01*
X135880786Y-104535109D01*
X135880788Y-104535106D01*
X135880792Y-104535104D01*
X136031104Y-104384792D01*
X136031106Y-104384788D01*
X136031109Y-104384786D01*
X136156048Y-104212820D01*
X136156047Y-104212820D01*
X136156051Y-104212816D01*
X136252557Y-104023412D01*
X136318246Y-103821243D01*
X136351500Y-103611287D01*
X136351500Y-103398713D01*
X136318246Y-103188757D01*
X136252557Y-102986588D01*
X136247210Y-102976094D01*
X136241089Y-102964079D01*
X136236527Y-102939787D01*
X136227889Y-102916625D01*
X136230190Y-102906047D01*
X136228193Y-102895410D01*
X136237489Y-102872505D01*
X136242745Y-102848353D01*
X136252677Y-102835085D01*
X136254470Y-102830669D01*
X136263892Y-102820104D01*
X136273590Y-102810407D01*
X136334915Y-102776925D01*
X136361267Y-102774093D01*
X137905701Y-102774093D01*
X137972740Y-102793778D01*
G37*
G04 #@! TD.AperFunction*
G04 #@! TA.AperFunction,NonConductor*
G36*
X138875005Y-103443764D02*
G01*
X138920760Y-103496568D01*
X138930704Y-103565726D01*
X138927724Y-103577395D01*
X138928293Y-103577530D01*
X138926508Y-103585081D01*
X138920101Y-103644681D01*
X138920101Y-103644688D01*
X138920100Y-103644700D01*
X138920100Y-103909540D01*
X138900415Y-103976579D01*
X138883781Y-103997221D01*
X136550177Y-106330824D01*
X136488854Y-106364309D01*
X136419162Y-106359325D01*
X136363229Y-106317453D01*
X136338812Y-106251989D01*
X136340022Y-106223751D01*
X136351500Y-106151287D01*
X136351500Y-105938713D01*
X136318246Y-105728757D01*
X136252557Y-105526588D01*
X136252555Y-105526585D01*
X136252555Y-105526583D01*
X136241089Y-105504080D01*
X136228192Y-105435411D01*
X136254468Y-105370670D01*
X136263883Y-105360112D01*
X138163598Y-103460398D01*
X138224921Y-103426913D01*
X138251279Y-103424079D01*
X138807966Y-103424079D01*
X138875005Y-103443764D01*
G37*
G04 #@! TD.AperFunction*
G04 #@! TA.AperFunction,NonConductor*
G36*
X138879702Y-104751807D02*
G01*
X138935635Y-104793679D01*
X138952550Y-104824655D01*
X138976803Y-104889681D01*
X138976806Y-104889686D01*
X139063052Y-105004895D01*
X139063055Y-105004898D01*
X139178264Y-105091144D01*
X139178271Y-105091148D01*
X139223218Y-105107912D01*
X139313117Y-105141442D01*
X139372727Y-105147851D01*
X139651701Y-105147850D01*
X139718739Y-105167534D01*
X139764494Y-105220338D01*
X139775700Y-105271850D01*
X139775700Y-106228940D01*
X139756015Y-106295979D01*
X139739381Y-106316621D01*
X136244003Y-109811998D01*
X136227751Y-109820872D01*
X136214509Y-109833817D01*
X136197721Y-109837269D01*
X136182680Y-109845483D01*
X136164211Y-109844162D01*
X136146072Y-109847893D01*
X136124046Y-109841289D01*
X136112988Y-109840499D01*
X136111672Y-109839999D01*
X136098062Y-109834746D01*
X136093331Y-109831204D01*
X135961337Y-109781973D01*
X135960600Y-109781689D01*
X135933426Y-109760861D01*
X135905983Y-109740318D01*
X135905726Y-109739630D01*
X135905145Y-109739185D01*
X135893527Y-109706922D01*
X135881566Y-109674853D01*
X135881721Y-109674138D01*
X135881473Y-109673448D01*
X135889138Y-109640041D01*
X135896418Y-109606580D01*
X135896993Y-109605810D01*
X135897100Y-109605348D01*
X135897995Y-109604472D01*
X135917563Y-109578332D01*
X136031104Y-109464792D01*
X136156051Y-109292816D01*
X136252557Y-109103412D01*
X136318246Y-108901243D01*
X136351500Y-108691287D01*
X136351500Y-108478713D01*
X136318246Y-108268757D01*
X136252557Y-108066588D01*
X136156051Y-107877184D01*
X136156049Y-107877181D01*
X136156048Y-107877179D01*
X136031109Y-107705213D01*
X136015127Y-107689231D01*
X135981642Y-107627908D01*
X135986626Y-107558216D01*
X136015127Y-107513869D01*
X137377712Y-106151284D01*
X138748689Y-104780306D01*
X138810010Y-104746823D01*
X138879702Y-104751807D01*
G37*
G04 #@! TD.AperFunction*
M02*
