G04 #@! TF.GenerationSoftware,KiCad,Pcbnew,9.0.0*
G04 #@! TF.CreationDate,2025-02-20T18:43:34-05:00*
G04 #@! TF.ProjectId,battery emulator design 0.1,62617474-6572-4792-9065-6d756c61746f,rev?*
G04 #@! TF.SameCoordinates,Original*
G04 #@! TF.FileFunction,Legend,Top*
G04 #@! TF.FilePolarity,Positive*
%FSLAX46Y46*%
G04 Gerber Fmt 4.6, Leading zero omitted, Abs format (unit mm)*
G04 Created by KiCad (PCBNEW 9.0.0) date 2025-02-20 18:43:34*
%MOMM*%
%LPD*%
G01*
G04 APERTURE LIST*
%ADD10C,0.200000*%
%ADD11C,0.150000*%
%ADD12C,0.120000*%
%ADD13C,0.100000*%
G04 APERTURE END LIST*
D10*
X92555816Y-105801219D02*
X93127244Y-105801219D01*
X92841530Y-106801219D02*
X92841530Y-105801219D01*
X94032006Y-106801219D02*
X93698673Y-106325028D01*
X93460578Y-106801219D02*
X93460578Y-105801219D01*
X93460578Y-105801219D02*
X93841530Y-105801219D01*
X93841530Y-105801219D02*
X93936768Y-105848838D01*
X93936768Y-105848838D02*
X93984387Y-105896457D01*
X93984387Y-105896457D02*
X94032006Y-105991695D01*
X94032006Y-105991695D02*
X94032006Y-106134552D01*
X94032006Y-106134552D02*
X93984387Y-106229790D01*
X93984387Y-106229790D02*
X93936768Y-106277409D01*
X93936768Y-106277409D02*
X93841530Y-106325028D01*
X93841530Y-106325028D02*
X93460578Y-106325028D01*
X95032006Y-106705980D02*
X94984387Y-106753600D01*
X94984387Y-106753600D02*
X94841530Y-106801219D01*
X94841530Y-106801219D02*
X94746292Y-106801219D01*
X94746292Y-106801219D02*
X94603435Y-106753600D01*
X94603435Y-106753600D02*
X94508197Y-106658361D01*
X94508197Y-106658361D02*
X94460578Y-106563123D01*
X94460578Y-106563123D02*
X94412959Y-106372647D01*
X94412959Y-106372647D02*
X94412959Y-106229790D01*
X94412959Y-106229790D02*
X94460578Y-106039314D01*
X94460578Y-106039314D02*
X94508197Y-105944076D01*
X94508197Y-105944076D02*
X94603435Y-105848838D01*
X94603435Y-105848838D02*
X94746292Y-105801219D01*
X94746292Y-105801219D02*
X94841530Y-105801219D01*
X94841530Y-105801219D02*
X94984387Y-105848838D01*
X94984387Y-105848838D02*
X95032006Y-105896457D01*
X95460578Y-106801219D02*
X95460578Y-105801219D01*
X96032006Y-106801219D02*
X95603435Y-106229790D01*
X96032006Y-105801219D02*
X95460578Y-106372647D01*
X93032054Y-116659600D02*
X93174911Y-116707219D01*
X93174911Y-116707219D02*
X93413006Y-116707219D01*
X93413006Y-116707219D02*
X93508244Y-116659600D01*
X93508244Y-116659600D02*
X93555863Y-116611980D01*
X93555863Y-116611980D02*
X93603482Y-116516742D01*
X93603482Y-116516742D02*
X93603482Y-116421504D01*
X93603482Y-116421504D02*
X93555863Y-116326266D01*
X93555863Y-116326266D02*
X93508244Y-116278647D01*
X93508244Y-116278647D02*
X93413006Y-116231028D01*
X93413006Y-116231028D02*
X93222530Y-116183409D01*
X93222530Y-116183409D02*
X93127292Y-116135790D01*
X93127292Y-116135790D02*
X93079673Y-116088171D01*
X93079673Y-116088171D02*
X93032054Y-115992933D01*
X93032054Y-115992933D02*
X93032054Y-115897695D01*
X93032054Y-115897695D02*
X93079673Y-115802457D01*
X93079673Y-115802457D02*
X93127292Y-115754838D01*
X93127292Y-115754838D02*
X93222530Y-115707219D01*
X93222530Y-115707219D02*
X93460625Y-115707219D01*
X93460625Y-115707219D02*
X93603482Y-115754838D01*
X93936816Y-115707219D02*
X94174911Y-116707219D01*
X94174911Y-116707219D02*
X94365387Y-115992933D01*
X94365387Y-115992933D02*
X94555863Y-116707219D01*
X94555863Y-116707219D02*
X94793959Y-115707219D01*
X94746482Y-89084838D02*
X94651244Y-89037219D01*
X94651244Y-89037219D02*
X94508387Y-89037219D01*
X94508387Y-89037219D02*
X94365530Y-89084838D01*
X94365530Y-89084838D02*
X94270292Y-89180076D01*
X94270292Y-89180076D02*
X94222673Y-89275314D01*
X94222673Y-89275314D02*
X94175054Y-89465790D01*
X94175054Y-89465790D02*
X94175054Y-89608647D01*
X94175054Y-89608647D02*
X94222673Y-89799123D01*
X94222673Y-89799123D02*
X94270292Y-89894361D01*
X94270292Y-89894361D02*
X94365530Y-89989600D01*
X94365530Y-89989600D02*
X94508387Y-90037219D01*
X94508387Y-90037219D02*
X94603625Y-90037219D01*
X94603625Y-90037219D02*
X94746482Y-89989600D01*
X94746482Y-89989600D02*
X94794101Y-89941980D01*
X94794101Y-89941980D02*
X94794101Y-89608647D01*
X94794101Y-89608647D02*
X94603625Y-89608647D01*
X95222673Y-90037219D02*
X95222673Y-89037219D01*
X95222673Y-89037219D02*
X95794101Y-90037219D01*
X95794101Y-90037219D02*
X95794101Y-89037219D01*
X96270292Y-90037219D02*
X96270292Y-89037219D01*
X96270292Y-89037219D02*
X96508387Y-89037219D01*
X96508387Y-89037219D02*
X96651244Y-89084838D01*
X96651244Y-89084838D02*
X96746482Y-89180076D01*
X96746482Y-89180076D02*
X96794101Y-89275314D01*
X96794101Y-89275314D02*
X96841720Y-89465790D01*
X96841720Y-89465790D02*
X96841720Y-89608647D01*
X96841720Y-89608647D02*
X96794101Y-89799123D01*
X96794101Y-89799123D02*
X96746482Y-89894361D01*
X96746482Y-89894361D02*
X96651244Y-89989600D01*
X96651244Y-89989600D02*
X96508387Y-90037219D01*
X96508387Y-90037219D02*
X96270292Y-90037219D01*
X94206816Y-86370219D02*
X94540149Y-87370219D01*
X94540149Y-87370219D02*
X94873482Y-86370219D01*
X95778244Y-87274980D02*
X95730625Y-87322600D01*
X95730625Y-87322600D02*
X95587768Y-87370219D01*
X95587768Y-87370219D02*
X95492530Y-87370219D01*
X95492530Y-87370219D02*
X95349673Y-87322600D01*
X95349673Y-87322600D02*
X95254435Y-87227361D01*
X95254435Y-87227361D02*
X95206816Y-87132123D01*
X95206816Y-87132123D02*
X95159197Y-86941647D01*
X95159197Y-86941647D02*
X95159197Y-86798790D01*
X95159197Y-86798790D02*
X95206816Y-86608314D01*
X95206816Y-86608314D02*
X95254435Y-86513076D01*
X95254435Y-86513076D02*
X95349673Y-86417838D01*
X95349673Y-86417838D02*
X95492530Y-86370219D01*
X95492530Y-86370219D02*
X95587768Y-86370219D01*
X95587768Y-86370219D02*
X95730625Y-86417838D01*
X95730625Y-86417838D02*
X95778244Y-86465457D01*
X96778244Y-87274980D02*
X96730625Y-87322600D01*
X96730625Y-87322600D02*
X96587768Y-87370219D01*
X96587768Y-87370219D02*
X96492530Y-87370219D01*
X96492530Y-87370219D02*
X96349673Y-87322600D01*
X96349673Y-87322600D02*
X96254435Y-87227361D01*
X96254435Y-87227361D02*
X96206816Y-87132123D01*
X96206816Y-87132123D02*
X96159197Y-86941647D01*
X96159197Y-86941647D02*
X96159197Y-86798790D01*
X96159197Y-86798790D02*
X96206816Y-86608314D01*
X96206816Y-86608314D02*
X96254435Y-86513076D01*
X96254435Y-86513076D02*
X96349673Y-86417838D01*
X96349673Y-86417838D02*
X96492530Y-86370219D01*
X96492530Y-86370219D02*
X96587768Y-86370219D01*
X96587768Y-86370219D02*
X96730625Y-86417838D01*
X96730625Y-86417838D02*
X96778244Y-86465457D01*
D11*
X187063142Y-133550819D02*
X186729809Y-133074628D01*
X186491714Y-133550819D02*
X186491714Y-132550819D01*
X186491714Y-132550819D02*
X186872666Y-132550819D01*
X186872666Y-132550819D02*
X186967904Y-132598438D01*
X186967904Y-132598438D02*
X187015523Y-132646057D01*
X187015523Y-132646057D02*
X187063142Y-132741295D01*
X187063142Y-132741295D02*
X187063142Y-132884152D01*
X187063142Y-132884152D02*
X187015523Y-132979390D01*
X187015523Y-132979390D02*
X186967904Y-133027009D01*
X186967904Y-133027009D02*
X186872666Y-133074628D01*
X186872666Y-133074628D02*
X186491714Y-133074628D01*
X187444095Y-132646057D02*
X187491714Y-132598438D01*
X187491714Y-132598438D02*
X187586952Y-132550819D01*
X187586952Y-132550819D02*
X187825047Y-132550819D01*
X187825047Y-132550819D02*
X187920285Y-132598438D01*
X187920285Y-132598438D02*
X187967904Y-132646057D01*
X187967904Y-132646057D02*
X188015523Y-132741295D01*
X188015523Y-132741295D02*
X188015523Y-132836533D01*
X188015523Y-132836533D02*
X187967904Y-132979390D01*
X187967904Y-132979390D02*
X187396476Y-133550819D01*
X187396476Y-133550819D02*
X188015523Y-133550819D01*
X188872666Y-132884152D02*
X188872666Y-133550819D01*
X188634571Y-132503200D02*
X188396476Y-133217485D01*
X188396476Y-133217485D02*
X189015523Y-133217485D01*
X187063142Y-123052819D02*
X186729809Y-122576628D01*
X186491714Y-123052819D02*
X186491714Y-122052819D01*
X186491714Y-122052819D02*
X186872666Y-122052819D01*
X186872666Y-122052819D02*
X186967904Y-122100438D01*
X186967904Y-122100438D02*
X187015523Y-122148057D01*
X187015523Y-122148057D02*
X187063142Y-122243295D01*
X187063142Y-122243295D02*
X187063142Y-122386152D01*
X187063142Y-122386152D02*
X187015523Y-122481390D01*
X187015523Y-122481390D02*
X186967904Y-122529009D01*
X186967904Y-122529009D02*
X186872666Y-122576628D01*
X186872666Y-122576628D02*
X186491714Y-122576628D01*
X187444095Y-122148057D02*
X187491714Y-122100438D01*
X187491714Y-122100438D02*
X187586952Y-122052819D01*
X187586952Y-122052819D02*
X187825047Y-122052819D01*
X187825047Y-122052819D02*
X187920285Y-122100438D01*
X187920285Y-122100438D02*
X187967904Y-122148057D01*
X187967904Y-122148057D02*
X188015523Y-122243295D01*
X188015523Y-122243295D02*
X188015523Y-122338533D01*
X188015523Y-122338533D02*
X187967904Y-122481390D01*
X187967904Y-122481390D02*
X187396476Y-123052819D01*
X187396476Y-123052819D02*
X188015523Y-123052819D01*
X188348857Y-122052819D02*
X188967904Y-122052819D01*
X188967904Y-122052819D02*
X188634571Y-122433771D01*
X188634571Y-122433771D02*
X188777428Y-122433771D01*
X188777428Y-122433771D02*
X188872666Y-122481390D01*
X188872666Y-122481390D02*
X188920285Y-122529009D01*
X188920285Y-122529009D02*
X188967904Y-122624247D01*
X188967904Y-122624247D02*
X188967904Y-122862342D01*
X188967904Y-122862342D02*
X188920285Y-122957580D01*
X188920285Y-122957580D02*
X188872666Y-123005200D01*
X188872666Y-123005200D02*
X188777428Y-123052819D01*
X188777428Y-123052819D02*
X188491714Y-123052819D01*
X188491714Y-123052819D02*
X188396476Y-123005200D01*
X188396476Y-123005200D02*
X188348857Y-122957580D01*
X161663142Y-133550819D02*
X161329809Y-133074628D01*
X161091714Y-133550819D02*
X161091714Y-132550819D01*
X161091714Y-132550819D02*
X161472666Y-132550819D01*
X161472666Y-132550819D02*
X161567904Y-132598438D01*
X161567904Y-132598438D02*
X161615523Y-132646057D01*
X161615523Y-132646057D02*
X161663142Y-132741295D01*
X161663142Y-132741295D02*
X161663142Y-132884152D01*
X161663142Y-132884152D02*
X161615523Y-132979390D01*
X161615523Y-132979390D02*
X161567904Y-133027009D01*
X161567904Y-133027009D02*
X161472666Y-133074628D01*
X161472666Y-133074628D02*
X161091714Y-133074628D01*
X162044095Y-132646057D02*
X162091714Y-132598438D01*
X162091714Y-132598438D02*
X162186952Y-132550819D01*
X162186952Y-132550819D02*
X162425047Y-132550819D01*
X162425047Y-132550819D02*
X162520285Y-132598438D01*
X162520285Y-132598438D02*
X162567904Y-132646057D01*
X162567904Y-132646057D02*
X162615523Y-132741295D01*
X162615523Y-132741295D02*
X162615523Y-132836533D01*
X162615523Y-132836533D02*
X162567904Y-132979390D01*
X162567904Y-132979390D02*
X161996476Y-133550819D01*
X161996476Y-133550819D02*
X162615523Y-133550819D01*
X162996476Y-132646057D02*
X163044095Y-132598438D01*
X163044095Y-132598438D02*
X163139333Y-132550819D01*
X163139333Y-132550819D02*
X163377428Y-132550819D01*
X163377428Y-132550819D02*
X163472666Y-132598438D01*
X163472666Y-132598438D02*
X163520285Y-132646057D01*
X163520285Y-132646057D02*
X163567904Y-132741295D01*
X163567904Y-132741295D02*
X163567904Y-132836533D01*
X163567904Y-132836533D02*
X163520285Y-132979390D01*
X163520285Y-132979390D02*
X162948857Y-133550819D01*
X162948857Y-133550819D02*
X163567904Y-133550819D01*
X161663142Y-123052819D02*
X161329809Y-122576628D01*
X161091714Y-123052819D02*
X161091714Y-122052819D01*
X161091714Y-122052819D02*
X161472666Y-122052819D01*
X161472666Y-122052819D02*
X161567904Y-122100438D01*
X161567904Y-122100438D02*
X161615523Y-122148057D01*
X161615523Y-122148057D02*
X161663142Y-122243295D01*
X161663142Y-122243295D02*
X161663142Y-122386152D01*
X161663142Y-122386152D02*
X161615523Y-122481390D01*
X161615523Y-122481390D02*
X161567904Y-122529009D01*
X161567904Y-122529009D02*
X161472666Y-122576628D01*
X161472666Y-122576628D02*
X161091714Y-122576628D01*
X162044095Y-122148057D02*
X162091714Y-122100438D01*
X162091714Y-122100438D02*
X162186952Y-122052819D01*
X162186952Y-122052819D02*
X162425047Y-122052819D01*
X162425047Y-122052819D02*
X162520285Y-122100438D01*
X162520285Y-122100438D02*
X162567904Y-122148057D01*
X162567904Y-122148057D02*
X162615523Y-122243295D01*
X162615523Y-122243295D02*
X162615523Y-122338533D01*
X162615523Y-122338533D02*
X162567904Y-122481390D01*
X162567904Y-122481390D02*
X161996476Y-123052819D01*
X161996476Y-123052819D02*
X162615523Y-123052819D01*
X163567904Y-123052819D02*
X162996476Y-123052819D01*
X163282190Y-123052819D02*
X163282190Y-122052819D01*
X163282190Y-122052819D02*
X163186952Y-122195676D01*
X163186952Y-122195676D02*
X163091714Y-122290914D01*
X163091714Y-122290914D02*
X162996476Y-122338533D01*
X136739333Y-133550819D02*
X136406000Y-133074628D01*
X136167905Y-133550819D02*
X136167905Y-132550819D01*
X136167905Y-132550819D02*
X136548857Y-132550819D01*
X136548857Y-132550819D02*
X136644095Y-132598438D01*
X136644095Y-132598438D02*
X136691714Y-132646057D01*
X136691714Y-132646057D02*
X136739333Y-132741295D01*
X136739333Y-132741295D02*
X136739333Y-132884152D01*
X136739333Y-132884152D02*
X136691714Y-132979390D01*
X136691714Y-132979390D02*
X136644095Y-133027009D01*
X136644095Y-133027009D02*
X136548857Y-133074628D01*
X136548857Y-133074628D02*
X136167905Y-133074628D01*
X137596476Y-132884152D02*
X137596476Y-133550819D01*
X137358381Y-132503200D02*
X137120286Y-133217485D01*
X137120286Y-133217485D02*
X137739333Y-133217485D01*
X136833333Y-123052819D02*
X136500000Y-122576628D01*
X136261905Y-123052819D02*
X136261905Y-122052819D01*
X136261905Y-122052819D02*
X136642857Y-122052819D01*
X136642857Y-122052819D02*
X136738095Y-122100438D01*
X136738095Y-122100438D02*
X136785714Y-122148057D01*
X136785714Y-122148057D02*
X136833333Y-122243295D01*
X136833333Y-122243295D02*
X136833333Y-122386152D01*
X136833333Y-122386152D02*
X136785714Y-122481390D01*
X136785714Y-122481390D02*
X136738095Y-122529009D01*
X136738095Y-122529009D02*
X136642857Y-122576628D01*
X136642857Y-122576628D02*
X136261905Y-122576628D01*
X137166667Y-122052819D02*
X137785714Y-122052819D01*
X137785714Y-122052819D02*
X137452381Y-122433771D01*
X137452381Y-122433771D02*
X137595238Y-122433771D01*
X137595238Y-122433771D02*
X137690476Y-122481390D01*
X137690476Y-122481390D02*
X137738095Y-122529009D01*
X137738095Y-122529009D02*
X137785714Y-122624247D01*
X137785714Y-122624247D02*
X137785714Y-122862342D01*
X137785714Y-122862342D02*
X137738095Y-122957580D01*
X137738095Y-122957580D02*
X137690476Y-123005200D01*
X137690476Y-123005200D02*
X137595238Y-123052819D01*
X137595238Y-123052819D02*
X137309524Y-123052819D01*
X137309524Y-123052819D02*
X137214286Y-123005200D01*
X137214286Y-123005200D02*
X137166667Y-122957580D01*
X101433333Y-127284819D02*
X101100000Y-126808628D01*
X100861905Y-127284819D02*
X100861905Y-126284819D01*
X100861905Y-126284819D02*
X101242857Y-126284819D01*
X101242857Y-126284819D02*
X101338095Y-126332438D01*
X101338095Y-126332438D02*
X101385714Y-126380057D01*
X101385714Y-126380057D02*
X101433333Y-126475295D01*
X101433333Y-126475295D02*
X101433333Y-126618152D01*
X101433333Y-126618152D02*
X101385714Y-126713390D01*
X101385714Y-126713390D02*
X101338095Y-126761009D01*
X101338095Y-126761009D02*
X101242857Y-126808628D01*
X101242857Y-126808628D02*
X100861905Y-126808628D01*
X101814286Y-126380057D02*
X101861905Y-126332438D01*
X101861905Y-126332438D02*
X101957143Y-126284819D01*
X101957143Y-126284819D02*
X102195238Y-126284819D01*
X102195238Y-126284819D02*
X102290476Y-126332438D01*
X102290476Y-126332438D02*
X102338095Y-126380057D01*
X102338095Y-126380057D02*
X102385714Y-126475295D01*
X102385714Y-126475295D02*
X102385714Y-126570533D01*
X102385714Y-126570533D02*
X102338095Y-126713390D01*
X102338095Y-126713390D02*
X101766667Y-127284819D01*
X101766667Y-127284819D02*
X102385714Y-127284819D01*
X111593333Y-133550819D02*
X111260000Y-133074628D01*
X111021905Y-133550819D02*
X111021905Y-132550819D01*
X111021905Y-132550819D02*
X111402857Y-132550819D01*
X111402857Y-132550819D02*
X111498095Y-132598438D01*
X111498095Y-132598438D02*
X111545714Y-132646057D01*
X111545714Y-132646057D02*
X111593333Y-132741295D01*
X111593333Y-132741295D02*
X111593333Y-132884152D01*
X111593333Y-132884152D02*
X111545714Y-132979390D01*
X111545714Y-132979390D02*
X111498095Y-133027009D01*
X111498095Y-133027009D02*
X111402857Y-133074628D01*
X111402857Y-133074628D02*
X111021905Y-133074628D01*
X112545714Y-133550819D02*
X111974286Y-133550819D01*
X112260000Y-133550819D02*
X112260000Y-132550819D01*
X112260000Y-132550819D02*
X112164762Y-132693676D01*
X112164762Y-132693676D02*
X112069524Y-132788914D01*
X112069524Y-132788914D02*
X111974286Y-132836533D01*
X187204761Y-127708819D02*
X186871428Y-127232628D01*
X186633333Y-127708819D02*
X186633333Y-126708819D01*
X186633333Y-126708819D02*
X187014285Y-126708819D01*
X187014285Y-126708819D02*
X187109523Y-126756438D01*
X187109523Y-126756438D02*
X187157142Y-126804057D01*
X187157142Y-126804057D02*
X187204761Y-126899295D01*
X187204761Y-126899295D02*
X187204761Y-127042152D01*
X187204761Y-127042152D02*
X187157142Y-127137390D01*
X187157142Y-127137390D02*
X187109523Y-127185009D01*
X187109523Y-127185009D02*
X187014285Y-127232628D01*
X187014285Y-127232628D02*
X186633333Y-127232628D01*
X187490476Y-126708819D02*
X187823809Y-127708819D01*
X187823809Y-127708819D02*
X188157142Y-126708819D01*
X188966666Y-126708819D02*
X188490476Y-126708819D01*
X188490476Y-126708819D02*
X188442857Y-127185009D01*
X188442857Y-127185009D02*
X188490476Y-127137390D01*
X188490476Y-127137390D02*
X188585714Y-127089771D01*
X188585714Y-127089771D02*
X188823809Y-127089771D01*
X188823809Y-127089771D02*
X188919047Y-127137390D01*
X188919047Y-127137390D02*
X188966666Y-127185009D01*
X188966666Y-127185009D02*
X189014285Y-127280247D01*
X189014285Y-127280247D02*
X189014285Y-127518342D01*
X189014285Y-127518342D02*
X188966666Y-127613580D01*
X188966666Y-127613580D02*
X188919047Y-127661200D01*
X188919047Y-127661200D02*
X188823809Y-127708819D01*
X188823809Y-127708819D02*
X188585714Y-127708819D01*
X188585714Y-127708819D02*
X188490476Y-127661200D01*
X188490476Y-127661200D02*
X188442857Y-127613580D01*
X161804761Y-127708819D02*
X161471428Y-127232628D01*
X161233333Y-127708819D02*
X161233333Y-126708819D01*
X161233333Y-126708819D02*
X161614285Y-126708819D01*
X161614285Y-126708819D02*
X161709523Y-126756438D01*
X161709523Y-126756438D02*
X161757142Y-126804057D01*
X161757142Y-126804057D02*
X161804761Y-126899295D01*
X161804761Y-126899295D02*
X161804761Y-127042152D01*
X161804761Y-127042152D02*
X161757142Y-127137390D01*
X161757142Y-127137390D02*
X161709523Y-127185009D01*
X161709523Y-127185009D02*
X161614285Y-127232628D01*
X161614285Y-127232628D02*
X161233333Y-127232628D01*
X162090476Y-126708819D02*
X162423809Y-127708819D01*
X162423809Y-127708819D02*
X162757142Y-126708819D01*
X163519047Y-127042152D02*
X163519047Y-127708819D01*
X163280952Y-126661200D02*
X163042857Y-127375485D01*
X163042857Y-127375485D02*
X163661904Y-127375485D01*
X136404761Y-127708819D02*
X136071428Y-127232628D01*
X135833333Y-127708819D02*
X135833333Y-126708819D01*
X135833333Y-126708819D02*
X136214285Y-126708819D01*
X136214285Y-126708819D02*
X136309523Y-126756438D01*
X136309523Y-126756438D02*
X136357142Y-126804057D01*
X136357142Y-126804057D02*
X136404761Y-126899295D01*
X136404761Y-126899295D02*
X136404761Y-127042152D01*
X136404761Y-127042152D02*
X136357142Y-127137390D01*
X136357142Y-127137390D02*
X136309523Y-127185009D01*
X136309523Y-127185009D02*
X136214285Y-127232628D01*
X136214285Y-127232628D02*
X135833333Y-127232628D01*
X136690476Y-126708819D02*
X137023809Y-127708819D01*
X137023809Y-127708819D02*
X137357142Y-126708819D01*
X137595238Y-126708819D02*
X138214285Y-126708819D01*
X138214285Y-126708819D02*
X137880952Y-127089771D01*
X137880952Y-127089771D02*
X138023809Y-127089771D01*
X138023809Y-127089771D02*
X138119047Y-127137390D01*
X138119047Y-127137390D02*
X138166666Y-127185009D01*
X138166666Y-127185009D02*
X138214285Y-127280247D01*
X138214285Y-127280247D02*
X138214285Y-127518342D01*
X138214285Y-127518342D02*
X138166666Y-127613580D01*
X138166666Y-127613580D02*
X138119047Y-127661200D01*
X138119047Y-127661200D02*
X138023809Y-127708819D01*
X138023809Y-127708819D02*
X137738095Y-127708819D01*
X137738095Y-127708819D02*
X137642857Y-127661200D01*
X137642857Y-127661200D02*
X137595238Y-127613580D01*
X112942761Y-127708819D02*
X112609428Y-127232628D01*
X112371333Y-127708819D02*
X112371333Y-126708819D01*
X112371333Y-126708819D02*
X112752285Y-126708819D01*
X112752285Y-126708819D02*
X112847523Y-126756438D01*
X112847523Y-126756438D02*
X112895142Y-126804057D01*
X112895142Y-126804057D02*
X112942761Y-126899295D01*
X112942761Y-126899295D02*
X112942761Y-127042152D01*
X112942761Y-127042152D02*
X112895142Y-127137390D01*
X112895142Y-127137390D02*
X112847523Y-127185009D01*
X112847523Y-127185009D02*
X112752285Y-127232628D01*
X112752285Y-127232628D02*
X112371333Y-127232628D01*
X113228476Y-126708819D02*
X113561809Y-127708819D01*
X113561809Y-127708819D02*
X113895142Y-126708819D01*
X114180857Y-126804057D02*
X114228476Y-126756438D01*
X114228476Y-126756438D02*
X114323714Y-126708819D01*
X114323714Y-126708819D02*
X114561809Y-126708819D01*
X114561809Y-126708819D02*
X114657047Y-126756438D01*
X114657047Y-126756438D02*
X114704666Y-126804057D01*
X114704666Y-126804057D02*
X114752285Y-126899295D01*
X114752285Y-126899295D02*
X114752285Y-126994533D01*
X114752285Y-126994533D02*
X114704666Y-127137390D01*
X114704666Y-127137390D02*
X114133238Y-127708819D01*
X114133238Y-127708819D02*
X114752285Y-127708819D01*
X111172666Y-101308819D02*
X111172666Y-102023104D01*
X111172666Y-102023104D02*
X111125047Y-102165961D01*
X111125047Y-102165961D02*
X111029809Y-102261200D01*
X111029809Y-102261200D02*
X110886952Y-102308819D01*
X110886952Y-102308819D02*
X110791714Y-102308819D01*
X111553619Y-101308819D02*
X112172666Y-101308819D01*
X112172666Y-101308819D02*
X111839333Y-101689771D01*
X111839333Y-101689771D02*
X111982190Y-101689771D01*
X111982190Y-101689771D02*
X112077428Y-101737390D01*
X112077428Y-101737390D02*
X112125047Y-101785009D01*
X112125047Y-101785009D02*
X112172666Y-101880247D01*
X112172666Y-101880247D02*
X112172666Y-102118342D01*
X112172666Y-102118342D02*
X112125047Y-102213580D01*
X112125047Y-102213580D02*
X112077428Y-102261200D01*
X112077428Y-102261200D02*
X111982190Y-102308819D01*
X111982190Y-102308819D02*
X111696476Y-102308819D01*
X111696476Y-102308819D02*
X111601238Y-102261200D01*
X111601238Y-102261200D02*
X111553619Y-102213580D01*
X98091666Y-99554819D02*
X98091666Y-100269104D01*
X98091666Y-100269104D02*
X98044047Y-100411961D01*
X98044047Y-100411961D02*
X97948809Y-100507200D01*
X97948809Y-100507200D02*
X97805952Y-100554819D01*
X97805952Y-100554819D02*
X97710714Y-100554819D01*
X99091666Y-100554819D02*
X98520238Y-100554819D01*
X98805952Y-100554819D02*
X98805952Y-99554819D01*
X98805952Y-99554819D02*
X98710714Y-99697676D01*
X98710714Y-99697676D02*
X98615476Y-99792914D01*
X98615476Y-99792914D02*
X98520238Y-99840533D01*
X173367142Y-123469580D02*
X173319523Y-123517200D01*
X173319523Y-123517200D02*
X173176666Y-123564819D01*
X173176666Y-123564819D02*
X173081428Y-123564819D01*
X173081428Y-123564819D02*
X172938571Y-123517200D01*
X172938571Y-123517200D02*
X172843333Y-123421961D01*
X172843333Y-123421961D02*
X172795714Y-123326723D01*
X172795714Y-123326723D02*
X172748095Y-123136247D01*
X172748095Y-123136247D02*
X172748095Y-122993390D01*
X172748095Y-122993390D02*
X172795714Y-122802914D01*
X172795714Y-122802914D02*
X172843333Y-122707676D01*
X172843333Y-122707676D02*
X172938571Y-122612438D01*
X172938571Y-122612438D02*
X173081428Y-122564819D01*
X173081428Y-122564819D02*
X173176666Y-122564819D01*
X173176666Y-122564819D02*
X173319523Y-122612438D01*
X173319523Y-122612438D02*
X173367142Y-122660057D01*
X174319523Y-123564819D02*
X173748095Y-123564819D01*
X174033809Y-123564819D02*
X174033809Y-122564819D01*
X174033809Y-122564819D02*
X173938571Y-122707676D01*
X173938571Y-122707676D02*
X173843333Y-122802914D01*
X173843333Y-122802914D02*
X173748095Y-122850533D01*
X174938571Y-122564819D02*
X175033809Y-122564819D01*
X175033809Y-122564819D02*
X175129047Y-122612438D01*
X175129047Y-122612438D02*
X175176666Y-122660057D01*
X175176666Y-122660057D02*
X175224285Y-122755295D01*
X175224285Y-122755295D02*
X175271904Y-122945771D01*
X175271904Y-122945771D02*
X175271904Y-123183866D01*
X175271904Y-123183866D02*
X175224285Y-123374342D01*
X175224285Y-123374342D02*
X175176666Y-123469580D01*
X175176666Y-123469580D02*
X175129047Y-123517200D01*
X175129047Y-123517200D02*
X175033809Y-123564819D01*
X175033809Y-123564819D02*
X174938571Y-123564819D01*
X174938571Y-123564819D02*
X174843333Y-123517200D01*
X174843333Y-123517200D02*
X174795714Y-123469580D01*
X174795714Y-123469580D02*
X174748095Y-123374342D01*
X174748095Y-123374342D02*
X174700476Y-123183866D01*
X174700476Y-123183866D02*
X174700476Y-122945771D01*
X174700476Y-122945771D02*
X174748095Y-122755295D01*
X174748095Y-122755295D02*
X174795714Y-122660057D01*
X174795714Y-122660057D02*
X174843333Y-122612438D01*
X174843333Y-122612438D02*
X174938571Y-122564819D01*
X174498095Y-104404819D02*
X174498095Y-105214342D01*
X174498095Y-105214342D02*
X174545714Y-105309580D01*
X174545714Y-105309580D02*
X174593333Y-105357200D01*
X174593333Y-105357200D02*
X174688571Y-105404819D01*
X174688571Y-105404819D02*
X174879047Y-105404819D01*
X174879047Y-105404819D02*
X174974285Y-105357200D01*
X174974285Y-105357200D02*
X175021904Y-105309580D01*
X175021904Y-105309580D02*
X175069523Y-105214342D01*
X175069523Y-105214342D02*
X175069523Y-104404819D01*
X175974285Y-104404819D02*
X175783809Y-104404819D01*
X175783809Y-104404819D02*
X175688571Y-104452438D01*
X175688571Y-104452438D02*
X175640952Y-104500057D01*
X175640952Y-104500057D02*
X175545714Y-104642914D01*
X175545714Y-104642914D02*
X175498095Y-104833390D01*
X175498095Y-104833390D02*
X175498095Y-105214342D01*
X175498095Y-105214342D02*
X175545714Y-105309580D01*
X175545714Y-105309580D02*
X175593333Y-105357200D01*
X175593333Y-105357200D02*
X175688571Y-105404819D01*
X175688571Y-105404819D02*
X175879047Y-105404819D01*
X175879047Y-105404819D02*
X175974285Y-105357200D01*
X175974285Y-105357200D02*
X176021904Y-105309580D01*
X176021904Y-105309580D02*
X176069523Y-105214342D01*
X176069523Y-105214342D02*
X176069523Y-104976247D01*
X176069523Y-104976247D02*
X176021904Y-104881009D01*
X176021904Y-104881009D02*
X175974285Y-104833390D01*
X175974285Y-104833390D02*
X175879047Y-104785771D01*
X175879047Y-104785771D02*
X175688571Y-104785771D01*
X175688571Y-104785771D02*
X175593333Y-104833390D01*
X175593333Y-104833390D02*
X175545714Y-104881009D01*
X175545714Y-104881009D02*
X175498095Y-104976247D01*
X147947142Y-83174819D02*
X147613809Y-82698628D01*
X147375714Y-83174819D02*
X147375714Y-82174819D01*
X147375714Y-82174819D02*
X147756666Y-82174819D01*
X147756666Y-82174819D02*
X147851904Y-82222438D01*
X147851904Y-82222438D02*
X147899523Y-82270057D01*
X147899523Y-82270057D02*
X147947142Y-82365295D01*
X147947142Y-82365295D02*
X147947142Y-82508152D01*
X147947142Y-82508152D02*
X147899523Y-82603390D01*
X147899523Y-82603390D02*
X147851904Y-82651009D01*
X147851904Y-82651009D02*
X147756666Y-82698628D01*
X147756666Y-82698628D02*
X147375714Y-82698628D01*
X148899523Y-83174819D02*
X148328095Y-83174819D01*
X148613809Y-83174819D02*
X148613809Y-82174819D01*
X148613809Y-82174819D02*
X148518571Y-82317676D01*
X148518571Y-82317676D02*
X148423333Y-82412914D01*
X148423333Y-82412914D02*
X148328095Y-82460533D01*
X149851904Y-83174819D02*
X149280476Y-83174819D01*
X149566190Y-83174819D02*
X149566190Y-82174819D01*
X149566190Y-82174819D02*
X149470952Y-82317676D01*
X149470952Y-82317676D02*
X149375714Y-82412914D01*
X149375714Y-82412914D02*
X149280476Y-82460533D01*
X131724580Y-77656666D02*
X131772200Y-77704285D01*
X131772200Y-77704285D02*
X131819819Y-77847142D01*
X131819819Y-77847142D02*
X131819819Y-77942380D01*
X131819819Y-77942380D02*
X131772200Y-78085237D01*
X131772200Y-78085237D02*
X131676961Y-78180475D01*
X131676961Y-78180475D02*
X131581723Y-78228094D01*
X131581723Y-78228094D02*
X131391247Y-78275713D01*
X131391247Y-78275713D02*
X131248390Y-78275713D01*
X131248390Y-78275713D02*
X131057914Y-78228094D01*
X131057914Y-78228094D02*
X130962676Y-78180475D01*
X130962676Y-78180475D02*
X130867438Y-78085237D01*
X130867438Y-78085237D02*
X130819819Y-77942380D01*
X130819819Y-77942380D02*
X130819819Y-77847142D01*
X130819819Y-77847142D02*
X130867438Y-77704285D01*
X130867438Y-77704285D02*
X130915057Y-77656666D01*
X130819819Y-77323332D02*
X130819819Y-76656666D01*
X130819819Y-76656666D02*
X131819819Y-77085237D01*
X146677142Y-127654580D02*
X146629523Y-127702200D01*
X146629523Y-127702200D02*
X146486666Y-127749819D01*
X146486666Y-127749819D02*
X146391428Y-127749819D01*
X146391428Y-127749819D02*
X146248571Y-127702200D01*
X146248571Y-127702200D02*
X146153333Y-127606961D01*
X146153333Y-127606961D02*
X146105714Y-127511723D01*
X146105714Y-127511723D02*
X146058095Y-127321247D01*
X146058095Y-127321247D02*
X146058095Y-127178390D01*
X146058095Y-127178390D02*
X146105714Y-126987914D01*
X146105714Y-126987914D02*
X146153333Y-126892676D01*
X146153333Y-126892676D02*
X146248571Y-126797438D01*
X146248571Y-126797438D02*
X146391428Y-126749819D01*
X146391428Y-126749819D02*
X146486666Y-126749819D01*
X146486666Y-126749819D02*
X146629523Y-126797438D01*
X146629523Y-126797438D02*
X146677142Y-126845057D01*
X147058095Y-126845057D02*
X147105714Y-126797438D01*
X147105714Y-126797438D02*
X147200952Y-126749819D01*
X147200952Y-126749819D02*
X147439047Y-126749819D01*
X147439047Y-126749819D02*
X147534285Y-126797438D01*
X147534285Y-126797438D02*
X147581904Y-126845057D01*
X147581904Y-126845057D02*
X147629523Y-126940295D01*
X147629523Y-126940295D02*
X147629523Y-127035533D01*
X147629523Y-127035533D02*
X147581904Y-127178390D01*
X147581904Y-127178390D02*
X147010476Y-127749819D01*
X147010476Y-127749819D02*
X147629523Y-127749819D01*
X147962857Y-126749819D02*
X148581904Y-126749819D01*
X148581904Y-126749819D02*
X148248571Y-127130771D01*
X148248571Y-127130771D02*
X148391428Y-127130771D01*
X148391428Y-127130771D02*
X148486666Y-127178390D01*
X148486666Y-127178390D02*
X148534285Y-127226009D01*
X148534285Y-127226009D02*
X148581904Y-127321247D01*
X148581904Y-127321247D02*
X148581904Y-127559342D01*
X148581904Y-127559342D02*
X148534285Y-127654580D01*
X148534285Y-127654580D02*
X148486666Y-127702200D01*
X148486666Y-127702200D02*
X148391428Y-127749819D01*
X148391428Y-127749819D02*
X148105714Y-127749819D01*
X148105714Y-127749819D02*
X148010476Y-127702200D01*
X148010476Y-127702200D02*
X147962857Y-127654580D01*
X160674580Y-112402857D02*
X160722200Y-112450476D01*
X160722200Y-112450476D02*
X160769819Y-112593333D01*
X160769819Y-112593333D02*
X160769819Y-112688571D01*
X160769819Y-112688571D02*
X160722200Y-112831428D01*
X160722200Y-112831428D02*
X160626961Y-112926666D01*
X160626961Y-112926666D02*
X160531723Y-112974285D01*
X160531723Y-112974285D02*
X160341247Y-113021904D01*
X160341247Y-113021904D02*
X160198390Y-113021904D01*
X160198390Y-113021904D02*
X160007914Y-112974285D01*
X160007914Y-112974285D02*
X159912676Y-112926666D01*
X159912676Y-112926666D02*
X159817438Y-112831428D01*
X159817438Y-112831428D02*
X159769819Y-112688571D01*
X159769819Y-112688571D02*
X159769819Y-112593333D01*
X159769819Y-112593333D02*
X159817438Y-112450476D01*
X159817438Y-112450476D02*
X159865057Y-112402857D01*
X159865057Y-112021904D02*
X159817438Y-111974285D01*
X159817438Y-111974285D02*
X159769819Y-111879047D01*
X159769819Y-111879047D02*
X159769819Y-111640952D01*
X159769819Y-111640952D02*
X159817438Y-111545714D01*
X159817438Y-111545714D02*
X159865057Y-111498095D01*
X159865057Y-111498095D02*
X159960295Y-111450476D01*
X159960295Y-111450476D02*
X160055533Y-111450476D01*
X160055533Y-111450476D02*
X160198390Y-111498095D01*
X160198390Y-111498095D02*
X160769819Y-112069523D01*
X160769819Y-112069523D02*
X160769819Y-111450476D01*
X160198390Y-110879047D02*
X160150771Y-110974285D01*
X160150771Y-110974285D02*
X160103152Y-111021904D01*
X160103152Y-111021904D02*
X160007914Y-111069523D01*
X160007914Y-111069523D02*
X159960295Y-111069523D01*
X159960295Y-111069523D02*
X159865057Y-111021904D01*
X159865057Y-111021904D02*
X159817438Y-110974285D01*
X159817438Y-110974285D02*
X159769819Y-110879047D01*
X159769819Y-110879047D02*
X159769819Y-110688571D01*
X159769819Y-110688571D02*
X159817438Y-110593333D01*
X159817438Y-110593333D02*
X159865057Y-110545714D01*
X159865057Y-110545714D02*
X159960295Y-110498095D01*
X159960295Y-110498095D02*
X160007914Y-110498095D01*
X160007914Y-110498095D02*
X160103152Y-110545714D01*
X160103152Y-110545714D02*
X160150771Y-110593333D01*
X160150771Y-110593333D02*
X160198390Y-110688571D01*
X160198390Y-110688571D02*
X160198390Y-110879047D01*
X160198390Y-110879047D02*
X160246009Y-110974285D01*
X160246009Y-110974285D02*
X160293628Y-111021904D01*
X160293628Y-111021904D02*
X160388866Y-111069523D01*
X160388866Y-111069523D02*
X160579342Y-111069523D01*
X160579342Y-111069523D02*
X160674580Y-111021904D01*
X160674580Y-111021904D02*
X160722200Y-110974285D01*
X160722200Y-110974285D02*
X160769819Y-110879047D01*
X160769819Y-110879047D02*
X160769819Y-110688571D01*
X160769819Y-110688571D02*
X160722200Y-110593333D01*
X160722200Y-110593333D02*
X160674580Y-110545714D01*
X160674580Y-110545714D02*
X160579342Y-110498095D01*
X160579342Y-110498095D02*
X160388866Y-110498095D01*
X160388866Y-110498095D02*
X160293628Y-110545714D01*
X160293628Y-110545714D02*
X160246009Y-110593333D01*
X160246009Y-110593333D02*
X160198390Y-110688571D01*
X179504819Y-134794523D02*
X180219104Y-134794523D01*
X180219104Y-134794523D02*
X180361961Y-134842142D01*
X180361961Y-134842142D02*
X180457200Y-134937380D01*
X180457200Y-134937380D02*
X180504819Y-135080237D01*
X180504819Y-135080237D02*
X180504819Y-135175475D01*
X180504819Y-133794523D02*
X180504819Y-134365951D01*
X180504819Y-134080237D02*
X179504819Y-134080237D01*
X179504819Y-134080237D02*
X179647676Y-134175475D01*
X179647676Y-134175475D02*
X179742914Y-134270713D01*
X179742914Y-134270713D02*
X179790533Y-134365951D01*
X179504819Y-132937380D02*
X179504819Y-133127856D01*
X179504819Y-133127856D02*
X179552438Y-133223094D01*
X179552438Y-133223094D02*
X179600057Y-133270713D01*
X179600057Y-133270713D02*
X179742914Y-133365951D01*
X179742914Y-133365951D02*
X179933390Y-133413570D01*
X179933390Y-133413570D02*
X180314342Y-133413570D01*
X180314342Y-133413570D02*
X180409580Y-133365951D01*
X180409580Y-133365951D02*
X180457200Y-133318332D01*
X180457200Y-133318332D02*
X180504819Y-133223094D01*
X180504819Y-133223094D02*
X180504819Y-133032618D01*
X180504819Y-133032618D02*
X180457200Y-132937380D01*
X180457200Y-132937380D02*
X180409580Y-132889761D01*
X180409580Y-132889761D02*
X180314342Y-132842142D01*
X180314342Y-132842142D02*
X180076247Y-132842142D01*
X180076247Y-132842142D02*
X179981009Y-132889761D01*
X179981009Y-132889761D02*
X179933390Y-132937380D01*
X179933390Y-132937380D02*
X179885771Y-133032618D01*
X179885771Y-133032618D02*
X179885771Y-133223094D01*
X179885771Y-133223094D02*
X179933390Y-133318332D01*
X179933390Y-133318332D02*
X179981009Y-133365951D01*
X179981009Y-133365951D02*
X180076247Y-133413570D01*
X197477142Y-128289580D02*
X197429523Y-128337200D01*
X197429523Y-128337200D02*
X197286666Y-128384819D01*
X197286666Y-128384819D02*
X197191428Y-128384819D01*
X197191428Y-128384819D02*
X197048571Y-128337200D01*
X197048571Y-128337200D02*
X196953333Y-128241961D01*
X196953333Y-128241961D02*
X196905714Y-128146723D01*
X196905714Y-128146723D02*
X196858095Y-127956247D01*
X196858095Y-127956247D02*
X196858095Y-127813390D01*
X196858095Y-127813390D02*
X196905714Y-127622914D01*
X196905714Y-127622914D02*
X196953333Y-127527676D01*
X196953333Y-127527676D02*
X197048571Y-127432438D01*
X197048571Y-127432438D02*
X197191428Y-127384819D01*
X197191428Y-127384819D02*
X197286666Y-127384819D01*
X197286666Y-127384819D02*
X197429523Y-127432438D01*
X197429523Y-127432438D02*
X197477142Y-127480057D01*
X197858095Y-127480057D02*
X197905714Y-127432438D01*
X197905714Y-127432438D02*
X198000952Y-127384819D01*
X198000952Y-127384819D02*
X198239047Y-127384819D01*
X198239047Y-127384819D02*
X198334285Y-127432438D01*
X198334285Y-127432438D02*
X198381904Y-127480057D01*
X198381904Y-127480057D02*
X198429523Y-127575295D01*
X198429523Y-127575295D02*
X198429523Y-127670533D01*
X198429523Y-127670533D02*
X198381904Y-127813390D01*
X198381904Y-127813390D02*
X197810476Y-128384819D01*
X197810476Y-128384819D02*
X198429523Y-128384819D01*
X199334285Y-127384819D02*
X198858095Y-127384819D01*
X198858095Y-127384819D02*
X198810476Y-127861009D01*
X198810476Y-127861009D02*
X198858095Y-127813390D01*
X198858095Y-127813390D02*
X198953333Y-127765771D01*
X198953333Y-127765771D02*
X199191428Y-127765771D01*
X199191428Y-127765771D02*
X199286666Y-127813390D01*
X199286666Y-127813390D02*
X199334285Y-127861009D01*
X199334285Y-127861009D02*
X199381904Y-127956247D01*
X199381904Y-127956247D02*
X199381904Y-128194342D01*
X199381904Y-128194342D02*
X199334285Y-128289580D01*
X199334285Y-128289580D02*
X199286666Y-128337200D01*
X199286666Y-128337200D02*
X199191428Y-128384819D01*
X199191428Y-128384819D02*
X198953333Y-128384819D01*
X198953333Y-128384819D02*
X198858095Y-128337200D01*
X198858095Y-128337200D02*
X198810476Y-128289580D01*
X96520095Y-127742819D02*
X96520095Y-126742819D01*
X96520095Y-127219009D02*
X97091523Y-127219009D01*
X97091523Y-127742819D02*
X97091523Y-126742819D01*
X97520095Y-126838057D02*
X97567714Y-126790438D01*
X97567714Y-126790438D02*
X97662952Y-126742819D01*
X97662952Y-126742819D02*
X97901047Y-126742819D01*
X97901047Y-126742819D02*
X97996285Y-126790438D01*
X97996285Y-126790438D02*
X98043904Y-126838057D01*
X98043904Y-126838057D02*
X98091523Y-126933295D01*
X98091523Y-126933295D02*
X98091523Y-127028533D01*
X98091523Y-127028533D02*
X98043904Y-127171390D01*
X98043904Y-127171390D02*
X97472476Y-127742819D01*
X97472476Y-127742819D02*
X98091523Y-127742819D01*
X207852095Y-70685819D02*
X207852095Y-69685819D01*
X207852095Y-70162009D02*
X208423523Y-70162009D01*
X208423523Y-70685819D02*
X208423523Y-69685819D01*
X208804476Y-69685819D02*
X209423523Y-69685819D01*
X209423523Y-69685819D02*
X209090190Y-70066771D01*
X209090190Y-70066771D02*
X209233047Y-70066771D01*
X209233047Y-70066771D02*
X209328285Y-70114390D01*
X209328285Y-70114390D02*
X209375904Y-70162009D01*
X209375904Y-70162009D02*
X209423523Y-70257247D01*
X209423523Y-70257247D02*
X209423523Y-70495342D01*
X209423523Y-70495342D02*
X209375904Y-70590580D01*
X209375904Y-70590580D02*
X209328285Y-70638200D01*
X209328285Y-70638200D02*
X209233047Y-70685819D01*
X209233047Y-70685819D02*
X208947333Y-70685819D01*
X208947333Y-70685819D02*
X208852095Y-70638200D01*
X208852095Y-70638200D02*
X208804476Y-70590580D01*
X114173095Y-73599819D02*
X114173095Y-74409342D01*
X114173095Y-74409342D02*
X114220714Y-74504580D01*
X114220714Y-74504580D02*
X114268333Y-74552200D01*
X114268333Y-74552200D02*
X114363571Y-74599819D01*
X114363571Y-74599819D02*
X114554047Y-74599819D01*
X114554047Y-74599819D02*
X114649285Y-74552200D01*
X114649285Y-74552200D02*
X114696904Y-74504580D01*
X114696904Y-74504580D02*
X114744523Y-74409342D01*
X114744523Y-74409342D02*
X114744523Y-73599819D01*
X115268333Y-74599819D02*
X115458809Y-74599819D01*
X115458809Y-74599819D02*
X115554047Y-74552200D01*
X115554047Y-74552200D02*
X115601666Y-74504580D01*
X115601666Y-74504580D02*
X115696904Y-74361723D01*
X115696904Y-74361723D02*
X115744523Y-74171247D01*
X115744523Y-74171247D02*
X115744523Y-73790295D01*
X115744523Y-73790295D02*
X115696904Y-73695057D01*
X115696904Y-73695057D02*
X115649285Y-73647438D01*
X115649285Y-73647438D02*
X115554047Y-73599819D01*
X115554047Y-73599819D02*
X115363571Y-73599819D01*
X115363571Y-73599819D02*
X115268333Y-73647438D01*
X115268333Y-73647438D02*
X115220714Y-73695057D01*
X115220714Y-73695057D02*
X115173095Y-73790295D01*
X115173095Y-73790295D02*
X115173095Y-74028390D01*
X115173095Y-74028390D02*
X115220714Y-74123628D01*
X115220714Y-74123628D02*
X115268333Y-74171247D01*
X115268333Y-74171247D02*
X115363571Y-74218866D01*
X115363571Y-74218866D02*
X115554047Y-74218866D01*
X115554047Y-74218866D02*
X115649285Y-74171247D01*
X115649285Y-74171247D02*
X115696904Y-74123628D01*
X115696904Y-74123628D02*
X115744523Y-74028390D01*
X144137142Y-101884819D02*
X143803809Y-101408628D01*
X143565714Y-101884819D02*
X143565714Y-100884819D01*
X143565714Y-100884819D02*
X143946666Y-100884819D01*
X143946666Y-100884819D02*
X144041904Y-100932438D01*
X144041904Y-100932438D02*
X144089523Y-100980057D01*
X144089523Y-100980057D02*
X144137142Y-101075295D01*
X144137142Y-101075295D02*
X144137142Y-101218152D01*
X144137142Y-101218152D02*
X144089523Y-101313390D01*
X144089523Y-101313390D02*
X144041904Y-101361009D01*
X144041904Y-101361009D02*
X143946666Y-101408628D01*
X143946666Y-101408628D02*
X143565714Y-101408628D01*
X145089523Y-101884819D02*
X144518095Y-101884819D01*
X144803809Y-101884819D02*
X144803809Y-100884819D01*
X144803809Y-100884819D02*
X144708571Y-101027676D01*
X144708571Y-101027676D02*
X144613333Y-101122914D01*
X144613333Y-101122914D02*
X144518095Y-101170533D01*
X145708571Y-100884819D02*
X145803809Y-100884819D01*
X145803809Y-100884819D02*
X145899047Y-100932438D01*
X145899047Y-100932438D02*
X145946666Y-100980057D01*
X145946666Y-100980057D02*
X145994285Y-101075295D01*
X145994285Y-101075295D02*
X146041904Y-101265771D01*
X146041904Y-101265771D02*
X146041904Y-101503866D01*
X146041904Y-101503866D02*
X145994285Y-101694342D01*
X145994285Y-101694342D02*
X145946666Y-101789580D01*
X145946666Y-101789580D02*
X145899047Y-101837200D01*
X145899047Y-101837200D02*
X145803809Y-101884819D01*
X145803809Y-101884819D02*
X145708571Y-101884819D01*
X145708571Y-101884819D02*
X145613333Y-101837200D01*
X145613333Y-101837200D02*
X145565714Y-101789580D01*
X145565714Y-101789580D02*
X145518095Y-101694342D01*
X145518095Y-101694342D02*
X145470476Y-101503866D01*
X145470476Y-101503866D02*
X145470476Y-101265771D01*
X145470476Y-101265771D02*
X145518095Y-101075295D01*
X145518095Y-101075295D02*
X145565714Y-100980057D01*
X145565714Y-100980057D02*
X145613333Y-100932438D01*
X145613333Y-100932438D02*
X145708571Y-100884819D01*
X148423333Y-78094819D02*
X148090000Y-77618628D01*
X147851905Y-78094819D02*
X147851905Y-77094819D01*
X147851905Y-77094819D02*
X148232857Y-77094819D01*
X148232857Y-77094819D02*
X148328095Y-77142438D01*
X148328095Y-77142438D02*
X148375714Y-77190057D01*
X148375714Y-77190057D02*
X148423333Y-77285295D01*
X148423333Y-77285295D02*
X148423333Y-77428152D01*
X148423333Y-77428152D02*
X148375714Y-77523390D01*
X148375714Y-77523390D02*
X148328095Y-77571009D01*
X148328095Y-77571009D02*
X148232857Y-77618628D01*
X148232857Y-77618628D02*
X147851905Y-77618628D01*
X149280476Y-77094819D02*
X149090000Y-77094819D01*
X149090000Y-77094819D02*
X148994762Y-77142438D01*
X148994762Y-77142438D02*
X148947143Y-77190057D01*
X148947143Y-77190057D02*
X148851905Y-77332914D01*
X148851905Y-77332914D02*
X148804286Y-77523390D01*
X148804286Y-77523390D02*
X148804286Y-77904342D01*
X148804286Y-77904342D02*
X148851905Y-77999580D01*
X148851905Y-77999580D02*
X148899524Y-78047200D01*
X148899524Y-78047200D02*
X148994762Y-78094819D01*
X148994762Y-78094819D02*
X149185238Y-78094819D01*
X149185238Y-78094819D02*
X149280476Y-78047200D01*
X149280476Y-78047200D02*
X149328095Y-77999580D01*
X149328095Y-77999580D02*
X149375714Y-77904342D01*
X149375714Y-77904342D02*
X149375714Y-77666247D01*
X149375714Y-77666247D02*
X149328095Y-77571009D01*
X149328095Y-77571009D02*
X149280476Y-77523390D01*
X149280476Y-77523390D02*
X149185238Y-77475771D01*
X149185238Y-77475771D02*
X148994762Y-77475771D01*
X148994762Y-77475771D02*
X148899524Y-77523390D01*
X148899524Y-77523390D02*
X148851905Y-77571009D01*
X148851905Y-77571009D02*
X148804286Y-77666247D01*
X198767142Y-124104580D02*
X198719523Y-124152200D01*
X198719523Y-124152200D02*
X198576666Y-124199819D01*
X198576666Y-124199819D02*
X198481428Y-124199819D01*
X198481428Y-124199819D02*
X198338571Y-124152200D01*
X198338571Y-124152200D02*
X198243333Y-124056961D01*
X198243333Y-124056961D02*
X198195714Y-123961723D01*
X198195714Y-123961723D02*
X198148095Y-123771247D01*
X198148095Y-123771247D02*
X198148095Y-123628390D01*
X198148095Y-123628390D02*
X198195714Y-123437914D01*
X198195714Y-123437914D02*
X198243333Y-123342676D01*
X198243333Y-123342676D02*
X198338571Y-123247438D01*
X198338571Y-123247438D02*
X198481428Y-123199819D01*
X198481428Y-123199819D02*
X198576666Y-123199819D01*
X198576666Y-123199819D02*
X198719523Y-123247438D01*
X198719523Y-123247438D02*
X198767142Y-123295057D01*
X199719523Y-124199819D02*
X199148095Y-124199819D01*
X199433809Y-124199819D02*
X199433809Y-123199819D01*
X199433809Y-123199819D02*
X199338571Y-123342676D01*
X199338571Y-123342676D02*
X199243333Y-123437914D01*
X199243333Y-123437914D02*
X199148095Y-123485533D01*
X200671904Y-124199819D02*
X200100476Y-124199819D01*
X200386190Y-124199819D02*
X200386190Y-123199819D01*
X200386190Y-123199819D02*
X200290952Y-123342676D01*
X200290952Y-123342676D02*
X200195714Y-123437914D01*
X200195714Y-123437914D02*
X200100476Y-123485533D01*
X172077142Y-128289580D02*
X172029523Y-128337200D01*
X172029523Y-128337200D02*
X171886666Y-128384819D01*
X171886666Y-128384819D02*
X171791428Y-128384819D01*
X171791428Y-128384819D02*
X171648571Y-128337200D01*
X171648571Y-128337200D02*
X171553333Y-128241961D01*
X171553333Y-128241961D02*
X171505714Y-128146723D01*
X171505714Y-128146723D02*
X171458095Y-127956247D01*
X171458095Y-127956247D02*
X171458095Y-127813390D01*
X171458095Y-127813390D02*
X171505714Y-127622914D01*
X171505714Y-127622914D02*
X171553333Y-127527676D01*
X171553333Y-127527676D02*
X171648571Y-127432438D01*
X171648571Y-127432438D02*
X171791428Y-127384819D01*
X171791428Y-127384819D02*
X171886666Y-127384819D01*
X171886666Y-127384819D02*
X172029523Y-127432438D01*
X172029523Y-127432438D02*
X172077142Y-127480057D01*
X172458095Y-127480057D02*
X172505714Y-127432438D01*
X172505714Y-127432438D02*
X172600952Y-127384819D01*
X172600952Y-127384819D02*
X172839047Y-127384819D01*
X172839047Y-127384819D02*
X172934285Y-127432438D01*
X172934285Y-127432438D02*
X172981904Y-127480057D01*
X172981904Y-127480057D02*
X173029523Y-127575295D01*
X173029523Y-127575295D02*
X173029523Y-127670533D01*
X173029523Y-127670533D02*
X172981904Y-127813390D01*
X172981904Y-127813390D02*
X172410476Y-128384819D01*
X172410476Y-128384819D02*
X173029523Y-128384819D01*
X173886666Y-127718152D02*
X173886666Y-128384819D01*
X173648571Y-127337200D02*
X173410476Y-128051485D01*
X173410476Y-128051485D02*
X174029523Y-128051485D01*
X123043333Y-122834580D02*
X122995714Y-122882200D01*
X122995714Y-122882200D02*
X122852857Y-122929819D01*
X122852857Y-122929819D02*
X122757619Y-122929819D01*
X122757619Y-122929819D02*
X122614762Y-122882200D01*
X122614762Y-122882200D02*
X122519524Y-122786961D01*
X122519524Y-122786961D02*
X122471905Y-122691723D01*
X122471905Y-122691723D02*
X122424286Y-122501247D01*
X122424286Y-122501247D02*
X122424286Y-122358390D01*
X122424286Y-122358390D02*
X122471905Y-122167914D01*
X122471905Y-122167914D02*
X122519524Y-122072676D01*
X122519524Y-122072676D02*
X122614762Y-121977438D01*
X122614762Y-121977438D02*
X122757619Y-121929819D01*
X122757619Y-121929819D02*
X122852857Y-121929819D01*
X122852857Y-121929819D02*
X122995714Y-121977438D01*
X122995714Y-121977438D02*
X123043333Y-122025057D01*
X123614762Y-122358390D02*
X123519524Y-122310771D01*
X123519524Y-122310771D02*
X123471905Y-122263152D01*
X123471905Y-122263152D02*
X123424286Y-122167914D01*
X123424286Y-122167914D02*
X123424286Y-122120295D01*
X123424286Y-122120295D02*
X123471905Y-122025057D01*
X123471905Y-122025057D02*
X123519524Y-121977438D01*
X123519524Y-121977438D02*
X123614762Y-121929819D01*
X123614762Y-121929819D02*
X123805238Y-121929819D01*
X123805238Y-121929819D02*
X123900476Y-121977438D01*
X123900476Y-121977438D02*
X123948095Y-122025057D01*
X123948095Y-122025057D02*
X123995714Y-122120295D01*
X123995714Y-122120295D02*
X123995714Y-122167914D01*
X123995714Y-122167914D02*
X123948095Y-122263152D01*
X123948095Y-122263152D02*
X123900476Y-122310771D01*
X123900476Y-122310771D02*
X123805238Y-122358390D01*
X123805238Y-122358390D02*
X123614762Y-122358390D01*
X123614762Y-122358390D02*
X123519524Y-122406009D01*
X123519524Y-122406009D02*
X123471905Y-122453628D01*
X123471905Y-122453628D02*
X123424286Y-122548866D01*
X123424286Y-122548866D02*
X123424286Y-122739342D01*
X123424286Y-122739342D02*
X123471905Y-122834580D01*
X123471905Y-122834580D02*
X123519524Y-122882200D01*
X123519524Y-122882200D02*
X123614762Y-122929819D01*
X123614762Y-122929819D02*
X123805238Y-122929819D01*
X123805238Y-122929819D02*
X123900476Y-122882200D01*
X123900476Y-122882200D02*
X123948095Y-122834580D01*
X123948095Y-122834580D02*
X123995714Y-122739342D01*
X123995714Y-122739342D02*
X123995714Y-122548866D01*
X123995714Y-122548866D02*
X123948095Y-122453628D01*
X123948095Y-122453628D02*
X123900476Y-122406009D01*
X123900476Y-122406009D02*
X123805238Y-122358390D01*
X98444580Y-79382857D02*
X98492200Y-79430476D01*
X98492200Y-79430476D02*
X98539819Y-79573333D01*
X98539819Y-79573333D02*
X98539819Y-79668571D01*
X98539819Y-79668571D02*
X98492200Y-79811428D01*
X98492200Y-79811428D02*
X98396961Y-79906666D01*
X98396961Y-79906666D02*
X98301723Y-79954285D01*
X98301723Y-79954285D02*
X98111247Y-80001904D01*
X98111247Y-80001904D02*
X97968390Y-80001904D01*
X97968390Y-80001904D02*
X97777914Y-79954285D01*
X97777914Y-79954285D02*
X97682676Y-79906666D01*
X97682676Y-79906666D02*
X97587438Y-79811428D01*
X97587438Y-79811428D02*
X97539819Y-79668571D01*
X97539819Y-79668571D02*
X97539819Y-79573333D01*
X97539819Y-79573333D02*
X97587438Y-79430476D01*
X97587438Y-79430476D02*
X97635057Y-79382857D01*
X98539819Y-78430476D02*
X98539819Y-79001904D01*
X98539819Y-78716190D02*
X97539819Y-78716190D01*
X97539819Y-78716190D02*
X97682676Y-78811428D01*
X97682676Y-78811428D02*
X97777914Y-78906666D01*
X97777914Y-78906666D02*
X97825533Y-79001904D01*
X97539819Y-78097142D02*
X97539819Y-77430476D01*
X97539819Y-77430476D02*
X98539819Y-77859047D01*
X206394580Y-67952857D02*
X206442200Y-68000476D01*
X206442200Y-68000476D02*
X206489819Y-68143333D01*
X206489819Y-68143333D02*
X206489819Y-68238571D01*
X206489819Y-68238571D02*
X206442200Y-68381428D01*
X206442200Y-68381428D02*
X206346961Y-68476666D01*
X206346961Y-68476666D02*
X206251723Y-68524285D01*
X206251723Y-68524285D02*
X206061247Y-68571904D01*
X206061247Y-68571904D02*
X205918390Y-68571904D01*
X205918390Y-68571904D02*
X205727914Y-68524285D01*
X205727914Y-68524285D02*
X205632676Y-68476666D01*
X205632676Y-68476666D02*
X205537438Y-68381428D01*
X205537438Y-68381428D02*
X205489819Y-68238571D01*
X205489819Y-68238571D02*
X205489819Y-68143333D01*
X205489819Y-68143333D02*
X205537438Y-68000476D01*
X205537438Y-68000476D02*
X205585057Y-67952857D01*
X206489819Y-67000476D02*
X206489819Y-67571904D01*
X206489819Y-67286190D02*
X205489819Y-67286190D01*
X205489819Y-67286190D02*
X205632676Y-67381428D01*
X205632676Y-67381428D02*
X205727914Y-67476666D01*
X205727914Y-67476666D02*
X205775533Y-67571904D01*
X205489819Y-66095714D02*
X205489819Y-66571904D01*
X205489819Y-66571904D02*
X205966009Y-66619523D01*
X205966009Y-66619523D02*
X205918390Y-66571904D01*
X205918390Y-66571904D02*
X205870771Y-66476666D01*
X205870771Y-66476666D02*
X205870771Y-66238571D01*
X205870771Y-66238571D02*
X205918390Y-66143333D01*
X205918390Y-66143333D02*
X205966009Y-66095714D01*
X205966009Y-66095714D02*
X206061247Y-66048095D01*
X206061247Y-66048095D02*
X206299342Y-66048095D01*
X206299342Y-66048095D02*
X206394580Y-66095714D01*
X206394580Y-66095714D02*
X206442200Y-66143333D01*
X206442200Y-66143333D02*
X206489819Y-66238571D01*
X206489819Y-66238571D02*
X206489819Y-66476666D01*
X206489819Y-66476666D02*
X206442200Y-66571904D01*
X206442200Y-66571904D02*
X206394580Y-66619523D01*
X108864580Y-77656666D02*
X108912200Y-77704285D01*
X108912200Y-77704285D02*
X108959819Y-77847142D01*
X108959819Y-77847142D02*
X108959819Y-77942380D01*
X108959819Y-77942380D02*
X108912200Y-78085237D01*
X108912200Y-78085237D02*
X108816961Y-78180475D01*
X108816961Y-78180475D02*
X108721723Y-78228094D01*
X108721723Y-78228094D02*
X108531247Y-78275713D01*
X108531247Y-78275713D02*
X108388390Y-78275713D01*
X108388390Y-78275713D02*
X108197914Y-78228094D01*
X108197914Y-78228094D02*
X108102676Y-78180475D01*
X108102676Y-78180475D02*
X108007438Y-78085237D01*
X108007438Y-78085237D02*
X107959819Y-77942380D01*
X107959819Y-77942380D02*
X107959819Y-77847142D01*
X107959819Y-77847142D02*
X108007438Y-77704285D01*
X108007438Y-77704285D02*
X108055057Y-77656666D01*
X107959819Y-76799523D02*
X107959819Y-76989999D01*
X107959819Y-76989999D02*
X108007438Y-77085237D01*
X108007438Y-77085237D02*
X108055057Y-77132856D01*
X108055057Y-77132856D02*
X108197914Y-77228094D01*
X108197914Y-77228094D02*
X108388390Y-77275713D01*
X108388390Y-77275713D02*
X108769342Y-77275713D01*
X108769342Y-77275713D02*
X108864580Y-77228094D01*
X108864580Y-77228094D02*
X108912200Y-77180475D01*
X108912200Y-77180475D02*
X108959819Y-77085237D01*
X108959819Y-77085237D02*
X108959819Y-76894761D01*
X108959819Y-76894761D02*
X108912200Y-76799523D01*
X108912200Y-76799523D02*
X108864580Y-76751904D01*
X108864580Y-76751904D02*
X108769342Y-76704285D01*
X108769342Y-76704285D02*
X108531247Y-76704285D01*
X108531247Y-76704285D02*
X108436009Y-76751904D01*
X108436009Y-76751904D02*
X108388390Y-76799523D01*
X108388390Y-76799523D02*
X108340771Y-76894761D01*
X108340771Y-76894761D02*
X108340771Y-77085237D01*
X108340771Y-77085237D02*
X108388390Y-77180475D01*
X108388390Y-77180475D02*
X108436009Y-77228094D01*
X108436009Y-77228094D02*
X108531247Y-77275713D01*
X211474580Y-113037857D02*
X211522200Y-113085476D01*
X211522200Y-113085476D02*
X211569819Y-113228333D01*
X211569819Y-113228333D02*
X211569819Y-113323571D01*
X211569819Y-113323571D02*
X211522200Y-113466428D01*
X211522200Y-113466428D02*
X211426961Y-113561666D01*
X211426961Y-113561666D02*
X211331723Y-113609285D01*
X211331723Y-113609285D02*
X211141247Y-113656904D01*
X211141247Y-113656904D02*
X210998390Y-113656904D01*
X210998390Y-113656904D02*
X210807914Y-113609285D01*
X210807914Y-113609285D02*
X210712676Y-113561666D01*
X210712676Y-113561666D02*
X210617438Y-113466428D01*
X210617438Y-113466428D02*
X210569819Y-113323571D01*
X210569819Y-113323571D02*
X210569819Y-113228333D01*
X210569819Y-113228333D02*
X210617438Y-113085476D01*
X210617438Y-113085476D02*
X210665057Y-113037857D01*
X210665057Y-112656904D02*
X210617438Y-112609285D01*
X210617438Y-112609285D02*
X210569819Y-112514047D01*
X210569819Y-112514047D02*
X210569819Y-112275952D01*
X210569819Y-112275952D02*
X210617438Y-112180714D01*
X210617438Y-112180714D02*
X210665057Y-112133095D01*
X210665057Y-112133095D02*
X210760295Y-112085476D01*
X210760295Y-112085476D02*
X210855533Y-112085476D01*
X210855533Y-112085476D02*
X210998390Y-112133095D01*
X210998390Y-112133095D02*
X211569819Y-112704523D01*
X211569819Y-112704523D02*
X211569819Y-112085476D01*
X210569819Y-111228333D02*
X210569819Y-111418809D01*
X210569819Y-111418809D02*
X210617438Y-111514047D01*
X210617438Y-111514047D02*
X210665057Y-111561666D01*
X210665057Y-111561666D02*
X210807914Y-111656904D01*
X210807914Y-111656904D02*
X210998390Y-111704523D01*
X210998390Y-111704523D02*
X211379342Y-111704523D01*
X211379342Y-111704523D02*
X211474580Y-111656904D01*
X211474580Y-111656904D02*
X211522200Y-111609285D01*
X211522200Y-111609285D02*
X211569819Y-111514047D01*
X211569819Y-111514047D02*
X211569819Y-111323571D01*
X211569819Y-111323571D02*
X211522200Y-111228333D01*
X211522200Y-111228333D02*
X211474580Y-111180714D01*
X211474580Y-111180714D02*
X211379342Y-111133095D01*
X211379342Y-111133095D02*
X211141247Y-111133095D01*
X211141247Y-111133095D02*
X211046009Y-111180714D01*
X211046009Y-111180714D02*
X210998390Y-111228333D01*
X210998390Y-111228333D02*
X210950771Y-111323571D01*
X210950771Y-111323571D02*
X210950771Y-111514047D01*
X210950771Y-111514047D02*
X210998390Y-111609285D01*
X210998390Y-111609285D02*
X211046009Y-111656904D01*
X211046009Y-111656904D02*
X211141247Y-111704523D01*
X199194580Y-78727857D02*
X199242200Y-78775476D01*
X199242200Y-78775476D02*
X199289819Y-78918333D01*
X199289819Y-78918333D02*
X199289819Y-79013571D01*
X199289819Y-79013571D02*
X199242200Y-79156428D01*
X199242200Y-79156428D02*
X199146961Y-79251666D01*
X199146961Y-79251666D02*
X199051723Y-79299285D01*
X199051723Y-79299285D02*
X198861247Y-79346904D01*
X198861247Y-79346904D02*
X198718390Y-79346904D01*
X198718390Y-79346904D02*
X198527914Y-79299285D01*
X198527914Y-79299285D02*
X198432676Y-79251666D01*
X198432676Y-79251666D02*
X198337438Y-79156428D01*
X198337438Y-79156428D02*
X198289819Y-79013571D01*
X198289819Y-79013571D02*
X198289819Y-78918333D01*
X198289819Y-78918333D02*
X198337438Y-78775476D01*
X198337438Y-78775476D02*
X198385057Y-78727857D01*
X199289819Y-77775476D02*
X199289819Y-78346904D01*
X199289819Y-78061190D02*
X198289819Y-78061190D01*
X198289819Y-78061190D02*
X198432676Y-78156428D01*
X198432676Y-78156428D02*
X198527914Y-78251666D01*
X198527914Y-78251666D02*
X198575533Y-78346904D01*
X198623152Y-76918333D02*
X199289819Y-76918333D01*
X198242200Y-77156428D02*
X198956485Y-77394523D01*
X198956485Y-77394523D02*
X198956485Y-76775476D01*
X199898095Y-104714819D02*
X199898095Y-105524342D01*
X199898095Y-105524342D02*
X199945714Y-105619580D01*
X199945714Y-105619580D02*
X199993333Y-105667200D01*
X199993333Y-105667200D02*
X200088571Y-105714819D01*
X200088571Y-105714819D02*
X200279047Y-105714819D01*
X200279047Y-105714819D02*
X200374285Y-105667200D01*
X200374285Y-105667200D02*
X200421904Y-105619580D01*
X200421904Y-105619580D02*
X200469523Y-105524342D01*
X200469523Y-105524342D02*
X200469523Y-104714819D01*
X201088571Y-105143390D02*
X200993333Y-105095771D01*
X200993333Y-105095771D02*
X200945714Y-105048152D01*
X200945714Y-105048152D02*
X200898095Y-104952914D01*
X200898095Y-104952914D02*
X200898095Y-104905295D01*
X200898095Y-104905295D02*
X200945714Y-104810057D01*
X200945714Y-104810057D02*
X200993333Y-104762438D01*
X200993333Y-104762438D02*
X201088571Y-104714819D01*
X201088571Y-104714819D02*
X201279047Y-104714819D01*
X201279047Y-104714819D02*
X201374285Y-104762438D01*
X201374285Y-104762438D02*
X201421904Y-104810057D01*
X201421904Y-104810057D02*
X201469523Y-104905295D01*
X201469523Y-104905295D02*
X201469523Y-104952914D01*
X201469523Y-104952914D02*
X201421904Y-105048152D01*
X201421904Y-105048152D02*
X201374285Y-105095771D01*
X201374285Y-105095771D02*
X201279047Y-105143390D01*
X201279047Y-105143390D02*
X201088571Y-105143390D01*
X201088571Y-105143390D02*
X200993333Y-105191009D01*
X200993333Y-105191009D02*
X200945714Y-105238628D01*
X200945714Y-105238628D02*
X200898095Y-105333866D01*
X200898095Y-105333866D02*
X200898095Y-105524342D01*
X200898095Y-105524342D02*
X200945714Y-105619580D01*
X200945714Y-105619580D02*
X200993333Y-105667200D01*
X200993333Y-105667200D02*
X201088571Y-105714819D01*
X201088571Y-105714819D02*
X201279047Y-105714819D01*
X201279047Y-105714819D02*
X201374285Y-105667200D01*
X201374285Y-105667200D02*
X201421904Y-105619580D01*
X201421904Y-105619580D02*
X201469523Y-105524342D01*
X201469523Y-105524342D02*
X201469523Y-105333866D01*
X201469523Y-105333866D02*
X201421904Y-105238628D01*
X201421904Y-105238628D02*
X201374285Y-105191009D01*
X201374285Y-105191009D02*
X201279047Y-105143390D01*
X148443333Y-123469580D02*
X148395714Y-123517200D01*
X148395714Y-123517200D02*
X148252857Y-123564819D01*
X148252857Y-123564819D02*
X148157619Y-123564819D01*
X148157619Y-123564819D02*
X148014762Y-123517200D01*
X148014762Y-123517200D02*
X147919524Y-123421961D01*
X147919524Y-123421961D02*
X147871905Y-123326723D01*
X147871905Y-123326723D02*
X147824286Y-123136247D01*
X147824286Y-123136247D02*
X147824286Y-122993390D01*
X147824286Y-122993390D02*
X147871905Y-122802914D01*
X147871905Y-122802914D02*
X147919524Y-122707676D01*
X147919524Y-122707676D02*
X148014762Y-122612438D01*
X148014762Y-122612438D02*
X148157619Y-122564819D01*
X148157619Y-122564819D02*
X148252857Y-122564819D01*
X148252857Y-122564819D02*
X148395714Y-122612438D01*
X148395714Y-122612438D02*
X148443333Y-122660057D01*
X148919524Y-123564819D02*
X149110000Y-123564819D01*
X149110000Y-123564819D02*
X149205238Y-123517200D01*
X149205238Y-123517200D02*
X149252857Y-123469580D01*
X149252857Y-123469580D02*
X149348095Y-123326723D01*
X149348095Y-123326723D02*
X149395714Y-123136247D01*
X149395714Y-123136247D02*
X149395714Y-122755295D01*
X149395714Y-122755295D02*
X149348095Y-122660057D01*
X149348095Y-122660057D02*
X149300476Y-122612438D01*
X149300476Y-122612438D02*
X149205238Y-122564819D01*
X149205238Y-122564819D02*
X149014762Y-122564819D01*
X149014762Y-122564819D02*
X148919524Y-122612438D01*
X148919524Y-122612438D02*
X148871905Y-122660057D01*
X148871905Y-122660057D02*
X148824286Y-122755295D01*
X148824286Y-122755295D02*
X148824286Y-122993390D01*
X148824286Y-122993390D02*
X148871905Y-123088628D01*
X148871905Y-123088628D02*
X148919524Y-123136247D01*
X148919524Y-123136247D02*
X149014762Y-123183866D01*
X149014762Y-123183866D02*
X149205238Y-123183866D01*
X149205238Y-123183866D02*
X149300476Y-123136247D01*
X149300476Y-123136247D02*
X149348095Y-123088628D01*
X149348095Y-123088628D02*
X149395714Y-122993390D01*
X212852095Y-127742819D02*
X212852095Y-126742819D01*
X212852095Y-127219009D02*
X213423523Y-127219009D01*
X213423523Y-127742819D02*
X213423523Y-126742819D01*
X214328285Y-127076152D02*
X214328285Y-127742819D01*
X214090190Y-126695200D02*
X213852095Y-127409485D01*
X213852095Y-127409485D02*
X214471142Y-127409485D01*
X186074580Y-112402857D02*
X186122200Y-112450476D01*
X186122200Y-112450476D02*
X186169819Y-112593333D01*
X186169819Y-112593333D02*
X186169819Y-112688571D01*
X186169819Y-112688571D02*
X186122200Y-112831428D01*
X186122200Y-112831428D02*
X186026961Y-112926666D01*
X186026961Y-112926666D02*
X185931723Y-112974285D01*
X185931723Y-112974285D02*
X185741247Y-113021904D01*
X185741247Y-113021904D02*
X185598390Y-113021904D01*
X185598390Y-113021904D02*
X185407914Y-112974285D01*
X185407914Y-112974285D02*
X185312676Y-112926666D01*
X185312676Y-112926666D02*
X185217438Y-112831428D01*
X185217438Y-112831428D02*
X185169819Y-112688571D01*
X185169819Y-112688571D02*
X185169819Y-112593333D01*
X185169819Y-112593333D02*
X185217438Y-112450476D01*
X185217438Y-112450476D02*
X185265057Y-112402857D01*
X185265057Y-112021904D02*
X185217438Y-111974285D01*
X185217438Y-111974285D02*
X185169819Y-111879047D01*
X185169819Y-111879047D02*
X185169819Y-111640952D01*
X185169819Y-111640952D02*
X185217438Y-111545714D01*
X185217438Y-111545714D02*
X185265057Y-111498095D01*
X185265057Y-111498095D02*
X185360295Y-111450476D01*
X185360295Y-111450476D02*
X185455533Y-111450476D01*
X185455533Y-111450476D02*
X185598390Y-111498095D01*
X185598390Y-111498095D02*
X186169819Y-112069523D01*
X186169819Y-112069523D02*
X186169819Y-111450476D01*
X185169819Y-111117142D02*
X185169819Y-110450476D01*
X185169819Y-110450476D02*
X186169819Y-110879047D01*
X154104819Y-134794523D02*
X154819104Y-134794523D01*
X154819104Y-134794523D02*
X154961961Y-134842142D01*
X154961961Y-134842142D02*
X155057200Y-134937380D01*
X155057200Y-134937380D02*
X155104819Y-135080237D01*
X155104819Y-135080237D02*
X155104819Y-135175475D01*
X155104819Y-133794523D02*
X155104819Y-134365951D01*
X155104819Y-134080237D02*
X154104819Y-134080237D01*
X154104819Y-134080237D02*
X154247676Y-134175475D01*
X154247676Y-134175475D02*
X154342914Y-134270713D01*
X154342914Y-134270713D02*
X154390533Y-134365951D01*
X154104819Y-132889761D02*
X154104819Y-133365951D01*
X154104819Y-133365951D02*
X154581009Y-133413570D01*
X154581009Y-133413570D02*
X154533390Y-133365951D01*
X154533390Y-133365951D02*
X154485771Y-133270713D01*
X154485771Y-133270713D02*
X154485771Y-133032618D01*
X154485771Y-133032618D02*
X154533390Y-132937380D01*
X154533390Y-132937380D02*
X154581009Y-132889761D01*
X154581009Y-132889761D02*
X154676247Y-132842142D01*
X154676247Y-132842142D02*
X154914342Y-132842142D01*
X154914342Y-132842142D02*
X155009580Y-132889761D01*
X155009580Y-132889761D02*
X155057200Y-132937380D01*
X155057200Y-132937380D02*
X155104819Y-133032618D01*
X155104819Y-133032618D02*
X155104819Y-133270713D01*
X155104819Y-133270713D02*
X155057200Y-133365951D01*
X155057200Y-133365951D02*
X155009580Y-133413570D01*
X212079819Y-94622857D02*
X211603628Y-94956190D01*
X212079819Y-95194285D02*
X211079819Y-95194285D01*
X211079819Y-95194285D02*
X211079819Y-94813333D01*
X211079819Y-94813333D02*
X211127438Y-94718095D01*
X211127438Y-94718095D02*
X211175057Y-94670476D01*
X211175057Y-94670476D02*
X211270295Y-94622857D01*
X211270295Y-94622857D02*
X211413152Y-94622857D01*
X211413152Y-94622857D02*
X211508390Y-94670476D01*
X211508390Y-94670476D02*
X211556009Y-94718095D01*
X211556009Y-94718095D02*
X211603628Y-94813333D01*
X211603628Y-94813333D02*
X211603628Y-95194285D01*
X212079819Y-93670476D02*
X212079819Y-94241904D01*
X212079819Y-93956190D02*
X211079819Y-93956190D01*
X211079819Y-93956190D02*
X211222676Y-94051428D01*
X211222676Y-94051428D02*
X211317914Y-94146666D01*
X211317914Y-94146666D02*
X211365533Y-94241904D01*
X211079819Y-92813333D02*
X211079819Y-93003809D01*
X211079819Y-93003809D02*
X211127438Y-93099047D01*
X211127438Y-93099047D02*
X211175057Y-93146666D01*
X211175057Y-93146666D02*
X211317914Y-93241904D01*
X211317914Y-93241904D02*
X211508390Y-93289523D01*
X211508390Y-93289523D02*
X211889342Y-93289523D01*
X211889342Y-93289523D02*
X211984580Y-93241904D01*
X211984580Y-93241904D02*
X212032200Y-93194285D01*
X212032200Y-93194285D02*
X212079819Y-93099047D01*
X212079819Y-93099047D02*
X212079819Y-92908571D01*
X212079819Y-92908571D02*
X212032200Y-92813333D01*
X212032200Y-92813333D02*
X211984580Y-92765714D01*
X211984580Y-92765714D02*
X211889342Y-92718095D01*
X211889342Y-92718095D02*
X211651247Y-92718095D01*
X211651247Y-92718095D02*
X211556009Y-92765714D01*
X211556009Y-92765714D02*
X211508390Y-92813333D01*
X211508390Y-92813333D02*
X211460771Y-92908571D01*
X211460771Y-92908571D02*
X211460771Y-93099047D01*
X211460771Y-93099047D02*
X211508390Y-93194285D01*
X211508390Y-93194285D02*
X211556009Y-93241904D01*
X211556009Y-93241904D02*
X211651247Y-93289523D01*
X149098095Y-104404819D02*
X149098095Y-105214342D01*
X149098095Y-105214342D02*
X149145714Y-105309580D01*
X149145714Y-105309580D02*
X149193333Y-105357200D01*
X149193333Y-105357200D02*
X149288571Y-105404819D01*
X149288571Y-105404819D02*
X149479047Y-105404819D01*
X149479047Y-105404819D02*
X149574285Y-105357200D01*
X149574285Y-105357200D02*
X149621904Y-105309580D01*
X149621904Y-105309580D02*
X149669523Y-105214342D01*
X149669523Y-105214342D02*
X149669523Y-104404819D01*
X150574285Y-104738152D02*
X150574285Y-105404819D01*
X150336190Y-104357200D02*
X150098095Y-105071485D01*
X150098095Y-105071485D02*
X150717142Y-105071485D01*
X94138714Y-85119819D02*
X94138714Y-84119819D01*
X94138714Y-84119819D02*
X94519666Y-84119819D01*
X94519666Y-84119819D02*
X94614904Y-84167438D01*
X94614904Y-84167438D02*
X94662523Y-84215057D01*
X94662523Y-84215057D02*
X94710142Y-84310295D01*
X94710142Y-84310295D02*
X94710142Y-84453152D01*
X94710142Y-84453152D02*
X94662523Y-84548390D01*
X94662523Y-84548390D02*
X94614904Y-84596009D01*
X94614904Y-84596009D02*
X94519666Y-84643628D01*
X94519666Y-84643628D02*
X94138714Y-84643628D01*
X95281571Y-85119819D02*
X95186333Y-85072200D01*
X95186333Y-85072200D02*
X95138714Y-85024580D01*
X95138714Y-85024580D02*
X95091095Y-84929342D01*
X95091095Y-84929342D02*
X95091095Y-84643628D01*
X95091095Y-84643628D02*
X95138714Y-84548390D01*
X95138714Y-84548390D02*
X95186333Y-84500771D01*
X95186333Y-84500771D02*
X95281571Y-84453152D01*
X95281571Y-84453152D02*
X95424428Y-84453152D01*
X95424428Y-84453152D02*
X95519666Y-84500771D01*
X95519666Y-84500771D02*
X95567285Y-84548390D01*
X95567285Y-84548390D02*
X95614904Y-84643628D01*
X95614904Y-84643628D02*
X95614904Y-84929342D01*
X95614904Y-84929342D02*
X95567285Y-85024580D01*
X95567285Y-85024580D02*
X95519666Y-85072200D01*
X95519666Y-85072200D02*
X95424428Y-85119819D01*
X95424428Y-85119819D02*
X95281571Y-85119819D01*
X95948238Y-84453152D02*
X96138714Y-85119819D01*
X96138714Y-85119819D02*
X96329190Y-84643628D01*
X96329190Y-84643628D02*
X96519666Y-85119819D01*
X96519666Y-85119819D02*
X96710142Y-84453152D01*
X97472047Y-85072200D02*
X97376809Y-85119819D01*
X97376809Y-85119819D02*
X97186333Y-85119819D01*
X97186333Y-85119819D02*
X97091095Y-85072200D01*
X97091095Y-85072200D02*
X97043476Y-84976961D01*
X97043476Y-84976961D02*
X97043476Y-84596009D01*
X97043476Y-84596009D02*
X97091095Y-84500771D01*
X97091095Y-84500771D02*
X97186333Y-84453152D01*
X97186333Y-84453152D02*
X97376809Y-84453152D01*
X97376809Y-84453152D02*
X97472047Y-84500771D01*
X97472047Y-84500771D02*
X97519666Y-84596009D01*
X97519666Y-84596009D02*
X97519666Y-84691247D01*
X97519666Y-84691247D02*
X97043476Y-84786485D01*
X97948238Y-85119819D02*
X97948238Y-84453152D01*
X97948238Y-84643628D02*
X97995857Y-84548390D01*
X97995857Y-84548390D02*
X98043476Y-84500771D01*
X98043476Y-84500771D02*
X98138714Y-84453152D01*
X98138714Y-84453152D02*
X98233952Y-84453152D01*
X98329191Y-85215057D02*
X99091095Y-85215057D01*
X99329191Y-85119819D02*
X99329191Y-84119819D01*
X99805381Y-84453152D02*
X99805381Y-85119819D01*
X99805381Y-84548390D02*
X99853000Y-84500771D01*
X99853000Y-84500771D02*
X99948238Y-84453152D01*
X99948238Y-84453152D02*
X100091095Y-84453152D01*
X100091095Y-84453152D02*
X100186333Y-84500771D01*
X100186333Y-84500771D02*
X100233952Y-84596009D01*
X100233952Y-84596009D02*
X100233952Y-85119819D01*
X100710143Y-84453152D02*
X100710143Y-85453152D01*
X100710143Y-84500771D02*
X100805381Y-84453152D01*
X100805381Y-84453152D02*
X100995857Y-84453152D01*
X100995857Y-84453152D02*
X101091095Y-84500771D01*
X101091095Y-84500771D02*
X101138714Y-84548390D01*
X101138714Y-84548390D02*
X101186333Y-84643628D01*
X101186333Y-84643628D02*
X101186333Y-84929342D01*
X101186333Y-84929342D02*
X101138714Y-85024580D01*
X101138714Y-85024580D02*
X101091095Y-85072200D01*
X101091095Y-85072200D02*
X100995857Y-85119819D01*
X100995857Y-85119819D02*
X100805381Y-85119819D01*
X100805381Y-85119819D02*
X100710143Y-85072200D01*
X102043476Y-84453152D02*
X102043476Y-85119819D01*
X101614905Y-84453152D02*
X101614905Y-84976961D01*
X101614905Y-84976961D02*
X101662524Y-85072200D01*
X101662524Y-85072200D02*
X101757762Y-85119819D01*
X101757762Y-85119819D02*
X101900619Y-85119819D01*
X101900619Y-85119819D02*
X101995857Y-85072200D01*
X101995857Y-85072200D02*
X102043476Y-85024580D01*
X102376810Y-84453152D02*
X102757762Y-84453152D01*
X102519667Y-84119819D02*
X102519667Y-84976961D01*
X102519667Y-84976961D02*
X102567286Y-85072200D01*
X102567286Y-85072200D02*
X102662524Y-85119819D01*
X102662524Y-85119819D02*
X102757762Y-85119819D01*
X103614905Y-85119819D02*
X103043477Y-85119819D01*
X103329191Y-85119819D02*
X103329191Y-84119819D01*
X103329191Y-84119819D02*
X103233953Y-84262676D01*
X103233953Y-84262676D02*
X103138715Y-84357914D01*
X103138715Y-84357914D02*
X103043477Y-84405533D01*
X194937142Y-101884819D02*
X194603809Y-101408628D01*
X194365714Y-101884819D02*
X194365714Y-100884819D01*
X194365714Y-100884819D02*
X194746666Y-100884819D01*
X194746666Y-100884819D02*
X194841904Y-100932438D01*
X194841904Y-100932438D02*
X194889523Y-100980057D01*
X194889523Y-100980057D02*
X194937142Y-101075295D01*
X194937142Y-101075295D02*
X194937142Y-101218152D01*
X194937142Y-101218152D02*
X194889523Y-101313390D01*
X194889523Y-101313390D02*
X194841904Y-101361009D01*
X194841904Y-101361009D02*
X194746666Y-101408628D01*
X194746666Y-101408628D02*
X194365714Y-101408628D01*
X195318095Y-100980057D02*
X195365714Y-100932438D01*
X195365714Y-100932438D02*
X195460952Y-100884819D01*
X195460952Y-100884819D02*
X195699047Y-100884819D01*
X195699047Y-100884819D02*
X195794285Y-100932438D01*
X195794285Y-100932438D02*
X195841904Y-100980057D01*
X195841904Y-100980057D02*
X195889523Y-101075295D01*
X195889523Y-101075295D02*
X195889523Y-101170533D01*
X195889523Y-101170533D02*
X195841904Y-101313390D01*
X195841904Y-101313390D02*
X195270476Y-101884819D01*
X195270476Y-101884819D02*
X195889523Y-101884819D01*
X196508571Y-100884819D02*
X196603809Y-100884819D01*
X196603809Y-100884819D02*
X196699047Y-100932438D01*
X196699047Y-100932438D02*
X196746666Y-100980057D01*
X196746666Y-100980057D02*
X196794285Y-101075295D01*
X196794285Y-101075295D02*
X196841904Y-101265771D01*
X196841904Y-101265771D02*
X196841904Y-101503866D01*
X196841904Y-101503866D02*
X196794285Y-101694342D01*
X196794285Y-101694342D02*
X196746666Y-101789580D01*
X196746666Y-101789580D02*
X196699047Y-101837200D01*
X196699047Y-101837200D02*
X196603809Y-101884819D01*
X196603809Y-101884819D02*
X196508571Y-101884819D01*
X196508571Y-101884819D02*
X196413333Y-101837200D01*
X196413333Y-101837200D02*
X196365714Y-101789580D01*
X196365714Y-101789580D02*
X196318095Y-101694342D01*
X196318095Y-101694342D02*
X196270476Y-101503866D01*
X196270476Y-101503866D02*
X196270476Y-101265771D01*
X196270476Y-101265771D02*
X196318095Y-101075295D01*
X196318095Y-101075295D02*
X196365714Y-100980057D01*
X196365714Y-100980057D02*
X196413333Y-100932438D01*
X196413333Y-100932438D02*
X196508571Y-100884819D01*
X121277142Y-127654580D02*
X121229523Y-127702200D01*
X121229523Y-127702200D02*
X121086666Y-127749819D01*
X121086666Y-127749819D02*
X120991428Y-127749819D01*
X120991428Y-127749819D02*
X120848571Y-127702200D01*
X120848571Y-127702200D02*
X120753333Y-127606961D01*
X120753333Y-127606961D02*
X120705714Y-127511723D01*
X120705714Y-127511723D02*
X120658095Y-127321247D01*
X120658095Y-127321247D02*
X120658095Y-127178390D01*
X120658095Y-127178390D02*
X120705714Y-126987914D01*
X120705714Y-126987914D02*
X120753333Y-126892676D01*
X120753333Y-126892676D02*
X120848571Y-126797438D01*
X120848571Y-126797438D02*
X120991428Y-126749819D01*
X120991428Y-126749819D02*
X121086666Y-126749819D01*
X121086666Y-126749819D02*
X121229523Y-126797438D01*
X121229523Y-126797438D02*
X121277142Y-126845057D01*
X121658095Y-126845057D02*
X121705714Y-126797438D01*
X121705714Y-126797438D02*
X121800952Y-126749819D01*
X121800952Y-126749819D02*
X122039047Y-126749819D01*
X122039047Y-126749819D02*
X122134285Y-126797438D01*
X122134285Y-126797438D02*
X122181904Y-126845057D01*
X122181904Y-126845057D02*
X122229523Y-126940295D01*
X122229523Y-126940295D02*
X122229523Y-127035533D01*
X122229523Y-127035533D02*
X122181904Y-127178390D01*
X122181904Y-127178390D02*
X121610476Y-127749819D01*
X121610476Y-127749819D02*
X122229523Y-127749819D01*
X122610476Y-126845057D02*
X122658095Y-126797438D01*
X122658095Y-126797438D02*
X122753333Y-126749819D01*
X122753333Y-126749819D02*
X122991428Y-126749819D01*
X122991428Y-126749819D02*
X123086666Y-126797438D01*
X123086666Y-126797438D02*
X123134285Y-126845057D01*
X123134285Y-126845057D02*
X123181904Y-126940295D01*
X123181904Y-126940295D02*
X123181904Y-127035533D01*
X123181904Y-127035533D02*
X123134285Y-127178390D01*
X123134285Y-127178390D02*
X122562857Y-127749819D01*
X122562857Y-127749819D02*
X123181904Y-127749819D01*
X93646666Y-107614819D02*
X93646666Y-108329104D01*
X93646666Y-108329104D02*
X93599047Y-108471961D01*
X93599047Y-108471961D02*
X93503809Y-108567200D01*
X93503809Y-108567200D02*
X93360952Y-108614819D01*
X93360952Y-108614819D02*
X93265714Y-108614819D01*
X94075238Y-107710057D02*
X94122857Y-107662438D01*
X94122857Y-107662438D02*
X94218095Y-107614819D01*
X94218095Y-107614819D02*
X94456190Y-107614819D01*
X94456190Y-107614819D02*
X94551428Y-107662438D01*
X94551428Y-107662438D02*
X94599047Y-107710057D01*
X94599047Y-107710057D02*
X94646666Y-107805295D01*
X94646666Y-107805295D02*
X94646666Y-107900533D01*
X94646666Y-107900533D02*
X94599047Y-108043390D01*
X94599047Y-108043390D02*
X94027619Y-108614819D01*
X94027619Y-108614819D02*
X94646666Y-108614819D01*
X193318810Y-62904819D02*
X193318810Y-61904819D01*
X194366428Y-62809580D02*
X194318809Y-62857200D01*
X194318809Y-62857200D02*
X194175952Y-62904819D01*
X194175952Y-62904819D02*
X194080714Y-62904819D01*
X194080714Y-62904819D02*
X193937857Y-62857200D01*
X193937857Y-62857200D02*
X193842619Y-62761961D01*
X193842619Y-62761961D02*
X193795000Y-62666723D01*
X193795000Y-62666723D02*
X193747381Y-62476247D01*
X193747381Y-62476247D02*
X193747381Y-62333390D01*
X193747381Y-62333390D02*
X193795000Y-62142914D01*
X193795000Y-62142914D02*
X193842619Y-62047676D01*
X193842619Y-62047676D02*
X193937857Y-61952438D01*
X193937857Y-61952438D02*
X194080714Y-61904819D01*
X194080714Y-61904819D02*
X194175952Y-61904819D01*
X194175952Y-61904819D02*
X194318809Y-61952438D01*
X194318809Y-61952438D02*
X194366428Y-62000057D01*
X195318809Y-62904819D02*
X194747381Y-62904819D01*
X195033095Y-62904819D02*
X195033095Y-61904819D01*
X195033095Y-61904819D02*
X194937857Y-62047676D01*
X194937857Y-62047676D02*
X194842619Y-62142914D01*
X194842619Y-62142914D02*
X194747381Y-62190533D01*
X204904819Y-134794523D02*
X205619104Y-134794523D01*
X205619104Y-134794523D02*
X205761961Y-134842142D01*
X205761961Y-134842142D02*
X205857200Y-134937380D01*
X205857200Y-134937380D02*
X205904819Y-135080237D01*
X205904819Y-135080237D02*
X205904819Y-135175475D01*
X205904819Y-133794523D02*
X205904819Y-134365951D01*
X205904819Y-134080237D02*
X204904819Y-134080237D01*
X204904819Y-134080237D02*
X205047676Y-134175475D01*
X205047676Y-134175475D02*
X205142914Y-134270713D01*
X205142914Y-134270713D02*
X205190533Y-134365951D01*
X204904819Y-133461189D02*
X204904819Y-132794523D01*
X204904819Y-132794523D02*
X205904819Y-133223094D01*
X102315095Y-69923819D02*
X102315095Y-68923819D01*
X102315095Y-69400009D02*
X102886523Y-69400009D01*
X102886523Y-69923819D02*
X102886523Y-68923819D01*
X103886523Y-69923819D02*
X103315095Y-69923819D01*
X103600809Y-69923819D02*
X103600809Y-68923819D01*
X103600809Y-68923819D02*
X103505571Y-69066676D01*
X103505571Y-69066676D02*
X103410333Y-69161914D01*
X103410333Y-69161914D02*
X103315095Y-69209533D01*
X182078333Y-98784580D02*
X182030714Y-98832200D01*
X182030714Y-98832200D02*
X181887857Y-98879819D01*
X181887857Y-98879819D02*
X181792619Y-98879819D01*
X181792619Y-98879819D02*
X181649762Y-98832200D01*
X181649762Y-98832200D02*
X181554524Y-98736961D01*
X181554524Y-98736961D02*
X181506905Y-98641723D01*
X181506905Y-98641723D02*
X181459286Y-98451247D01*
X181459286Y-98451247D02*
X181459286Y-98308390D01*
X181459286Y-98308390D02*
X181506905Y-98117914D01*
X181506905Y-98117914D02*
X181554524Y-98022676D01*
X181554524Y-98022676D02*
X181649762Y-97927438D01*
X181649762Y-97927438D02*
X181792619Y-97879819D01*
X181792619Y-97879819D02*
X181887857Y-97879819D01*
X181887857Y-97879819D02*
X182030714Y-97927438D01*
X182030714Y-97927438D02*
X182078333Y-97975057D01*
X182459286Y-97975057D02*
X182506905Y-97927438D01*
X182506905Y-97927438D02*
X182602143Y-97879819D01*
X182602143Y-97879819D02*
X182840238Y-97879819D01*
X182840238Y-97879819D02*
X182935476Y-97927438D01*
X182935476Y-97927438D02*
X182983095Y-97975057D01*
X182983095Y-97975057D02*
X183030714Y-98070295D01*
X183030714Y-98070295D02*
X183030714Y-98165533D01*
X183030714Y-98165533D02*
X182983095Y-98308390D01*
X182983095Y-98308390D02*
X182411667Y-98879819D01*
X182411667Y-98879819D02*
X183030714Y-98879819D01*
X167069580Y-73826666D02*
X167117200Y-73874285D01*
X167117200Y-73874285D02*
X167164819Y-74017142D01*
X167164819Y-74017142D02*
X167164819Y-74112380D01*
X167164819Y-74112380D02*
X167117200Y-74255237D01*
X167117200Y-74255237D02*
X167021961Y-74350475D01*
X167021961Y-74350475D02*
X166926723Y-74398094D01*
X166926723Y-74398094D02*
X166736247Y-74445713D01*
X166736247Y-74445713D02*
X166593390Y-74445713D01*
X166593390Y-74445713D02*
X166402914Y-74398094D01*
X166402914Y-74398094D02*
X166307676Y-74350475D01*
X166307676Y-74350475D02*
X166212438Y-74255237D01*
X166212438Y-74255237D02*
X166164819Y-74112380D01*
X166164819Y-74112380D02*
X166164819Y-74017142D01*
X166164819Y-74017142D02*
X166212438Y-73874285D01*
X166212438Y-73874285D02*
X166260057Y-73826666D01*
X167164819Y-72874285D02*
X167164819Y-73445713D01*
X167164819Y-73159999D02*
X166164819Y-73159999D01*
X166164819Y-73159999D02*
X166307676Y-73255237D01*
X166307676Y-73255237D02*
X166402914Y-73350475D01*
X166402914Y-73350475D02*
X166450533Y-73445713D01*
X128704819Y-134794523D02*
X129419104Y-134794523D01*
X129419104Y-134794523D02*
X129561961Y-134842142D01*
X129561961Y-134842142D02*
X129657200Y-134937380D01*
X129657200Y-134937380D02*
X129704819Y-135080237D01*
X129704819Y-135080237D02*
X129704819Y-135175475D01*
X129704819Y-133794523D02*
X129704819Y-134365951D01*
X129704819Y-134080237D02*
X128704819Y-134080237D01*
X128704819Y-134080237D02*
X128847676Y-134175475D01*
X128847676Y-134175475D02*
X128942914Y-134270713D01*
X128942914Y-134270713D02*
X128990533Y-134365951D01*
X128800057Y-133413570D02*
X128752438Y-133365951D01*
X128752438Y-133365951D02*
X128704819Y-133270713D01*
X128704819Y-133270713D02*
X128704819Y-133032618D01*
X128704819Y-133032618D02*
X128752438Y-132937380D01*
X128752438Y-132937380D02*
X128800057Y-132889761D01*
X128800057Y-132889761D02*
X128895295Y-132842142D01*
X128895295Y-132842142D02*
X128990533Y-132842142D01*
X128990533Y-132842142D02*
X129133390Y-132889761D01*
X129133390Y-132889761D02*
X129704819Y-133461189D01*
X129704819Y-133461189D02*
X129704819Y-132842142D01*
X148423333Y-72844819D02*
X148090000Y-72368628D01*
X147851905Y-72844819D02*
X147851905Y-71844819D01*
X147851905Y-71844819D02*
X148232857Y-71844819D01*
X148232857Y-71844819D02*
X148328095Y-71892438D01*
X148328095Y-71892438D02*
X148375714Y-71940057D01*
X148375714Y-71940057D02*
X148423333Y-72035295D01*
X148423333Y-72035295D02*
X148423333Y-72178152D01*
X148423333Y-72178152D02*
X148375714Y-72273390D01*
X148375714Y-72273390D02*
X148328095Y-72321009D01*
X148328095Y-72321009D02*
X148232857Y-72368628D01*
X148232857Y-72368628D02*
X147851905Y-72368628D01*
X148899524Y-72844819D02*
X149090000Y-72844819D01*
X149090000Y-72844819D02*
X149185238Y-72797200D01*
X149185238Y-72797200D02*
X149232857Y-72749580D01*
X149232857Y-72749580D02*
X149328095Y-72606723D01*
X149328095Y-72606723D02*
X149375714Y-72416247D01*
X149375714Y-72416247D02*
X149375714Y-72035295D01*
X149375714Y-72035295D02*
X149328095Y-71940057D01*
X149328095Y-71940057D02*
X149280476Y-71892438D01*
X149280476Y-71892438D02*
X149185238Y-71844819D01*
X149185238Y-71844819D02*
X148994762Y-71844819D01*
X148994762Y-71844819D02*
X148899524Y-71892438D01*
X148899524Y-71892438D02*
X148851905Y-71940057D01*
X148851905Y-71940057D02*
X148804286Y-72035295D01*
X148804286Y-72035295D02*
X148804286Y-72273390D01*
X148804286Y-72273390D02*
X148851905Y-72368628D01*
X148851905Y-72368628D02*
X148899524Y-72416247D01*
X148899524Y-72416247D02*
X148994762Y-72463866D01*
X148994762Y-72463866D02*
X149185238Y-72463866D01*
X149185238Y-72463866D02*
X149280476Y-72416247D01*
X149280476Y-72416247D02*
X149328095Y-72368628D01*
X149328095Y-72368628D02*
X149375714Y-72273390D01*
X136544580Y-79382857D02*
X136592200Y-79430476D01*
X136592200Y-79430476D02*
X136639819Y-79573333D01*
X136639819Y-79573333D02*
X136639819Y-79668571D01*
X136639819Y-79668571D02*
X136592200Y-79811428D01*
X136592200Y-79811428D02*
X136496961Y-79906666D01*
X136496961Y-79906666D02*
X136401723Y-79954285D01*
X136401723Y-79954285D02*
X136211247Y-80001904D01*
X136211247Y-80001904D02*
X136068390Y-80001904D01*
X136068390Y-80001904D02*
X135877914Y-79954285D01*
X135877914Y-79954285D02*
X135782676Y-79906666D01*
X135782676Y-79906666D02*
X135687438Y-79811428D01*
X135687438Y-79811428D02*
X135639819Y-79668571D01*
X135639819Y-79668571D02*
X135639819Y-79573333D01*
X135639819Y-79573333D02*
X135687438Y-79430476D01*
X135687438Y-79430476D02*
X135735057Y-79382857D01*
X136639819Y-78430476D02*
X136639819Y-79001904D01*
X136639819Y-78716190D02*
X135639819Y-78716190D01*
X135639819Y-78716190D02*
X135782676Y-78811428D01*
X135782676Y-78811428D02*
X135877914Y-78906666D01*
X135877914Y-78906666D02*
X135925533Y-79001904D01*
X135735057Y-78049523D02*
X135687438Y-78001904D01*
X135687438Y-78001904D02*
X135639819Y-77906666D01*
X135639819Y-77906666D02*
X135639819Y-77668571D01*
X135639819Y-77668571D02*
X135687438Y-77573333D01*
X135687438Y-77573333D02*
X135735057Y-77525714D01*
X135735057Y-77525714D02*
X135830295Y-77478095D01*
X135830295Y-77478095D02*
X135925533Y-77478095D01*
X135925533Y-77478095D02*
X136068390Y-77525714D01*
X136068390Y-77525714D02*
X136639819Y-78097142D01*
X136639819Y-78097142D02*
X136639819Y-77478095D01*
X132072142Y-93334819D02*
X131738809Y-92858628D01*
X131500714Y-93334819D02*
X131500714Y-92334819D01*
X131500714Y-92334819D02*
X131881666Y-92334819D01*
X131881666Y-92334819D02*
X131976904Y-92382438D01*
X131976904Y-92382438D02*
X132024523Y-92430057D01*
X132024523Y-92430057D02*
X132072142Y-92525295D01*
X132072142Y-92525295D02*
X132072142Y-92668152D01*
X132072142Y-92668152D02*
X132024523Y-92763390D01*
X132024523Y-92763390D02*
X131976904Y-92811009D01*
X131976904Y-92811009D02*
X131881666Y-92858628D01*
X131881666Y-92858628D02*
X131500714Y-92858628D01*
X133024523Y-93334819D02*
X132453095Y-93334819D01*
X132738809Y-93334819D02*
X132738809Y-92334819D01*
X132738809Y-92334819D02*
X132643571Y-92477676D01*
X132643571Y-92477676D02*
X132548333Y-92572914D01*
X132548333Y-92572914D02*
X132453095Y-92620533D01*
X133357857Y-92334819D02*
X133976904Y-92334819D01*
X133976904Y-92334819D02*
X133643571Y-92715771D01*
X133643571Y-92715771D02*
X133786428Y-92715771D01*
X133786428Y-92715771D02*
X133881666Y-92763390D01*
X133881666Y-92763390D02*
X133929285Y-92811009D01*
X133929285Y-92811009D02*
X133976904Y-92906247D01*
X133976904Y-92906247D02*
X133976904Y-93144342D01*
X133976904Y-93144342D02*
X133929285Y-93239580D01*
X133929285Y-93239580D02*
X133881666Y-93287200D01*
X133881666Y-93287200D02*
X133786428Y-93334819D01*
X133786428Y-93334819D02*
X133500714Y-93334819D01*
X133500714Y-93334819D02*
X133405476Y-93287200D01*
X133405476Y-93287200D02*
X133357857Y-93239580D01*
X169537142Y-101884819D02*
X169203809Y-101408628D01*
X168965714Y-101884819D02*
X168965714Y-100884819D01*
X168965714Y-100884819D02*
X169346666Y-100884819D01*
X169346666Y-100884819D02*
X169441904Y-100932438D01*
X169441904Y-100932438D02*
X169489523Y-100980057D01*
X169489523Y-100980057D02*
X169537142Y-101075295D01*
X169537142Y-101075295D02*
X169537142Y-101218152D01*
X169537142Y-101218152D02*
X169489523Y-101313390D01*
X169489523Y-101313390D02*
X169441904Y-101361009D01*
X169441904Y-101361009D02*
X169346666Y-101408628D01*
X169346666Y-101408628D02*
X168965714Y-101408628D01*
X170489523Y-101884819D02*
X169918095Y-101884819D01*
X170203809Y-101884819D02*
X170203809Y-100884819D01*
X170203809Y-100884819D02*
X170108571Y-101027676D01*
X170108571Y-101027676D02*
X170013333Y-101122914D01*
X170013333Y-101122914D02*
X169918095Y-101170533D01*
X171394285Y-100884819D02*
X170918095Y-100884819D01*
X170918095Y-100884819D02*
X170870476Y-101361009D01*
X170870476Y-101361009D02*
X170918095Y-101313390D01*
X170918095Y-101313390D02*
X171013333Y-101265771D01*
X171013333Y-101265771D02*
X171251428Y-101265771D01*
X171251428Y-101265771D02*
X171346666Y-101313390D01*
X171346666Y-101313390D02*
X171394285Y-101361009D01*
X171394285Y-101361009D02*
X171441904Y-101456247D01*
X171441904Y-101456247D02*
X171441904Y-101694342D01*
X171441904Y-101694342D02*
X171394285Y-101789580D01*
X171394285Y-101789580D02*
X171346666Y-101837200D01*
X171346666Y-101837200D02*
X171251428Y-101884819D01*
X171251428Y-101884819D02*
X171013333Y-101884819D01*
X171013333Y-101884819D02*
X170918095Y-101837200D01*
X170918095Y-101837200D02*
X170870476Y-101789580D01*
X119213333Y-101884819D02*
X118880000Y-101408628D01*
X118641905Y-101884819D02*
X118641905Y-100884819D01*
X118641905Y-100884819D02*
X119022857Y-100884819D01*
X119022857Y-100884819D02*
X119118095Y-100932438D01*
X119118095Y-100932438D02*
X119165714Y-100980057D01*
X119165714Y-100980057D02*
X119213333Y-101075295D01*
X119213333Y-101075295D02*
X119213333Y-101218152D01*
X119213333Y-101218152D02*
X119165714Y-101313390D01*
X119165714Y-101313390D02*
X119118095Y-101361009D01*
X119118095Y-101361009D02*
X119022857Y-101408628D01*
X119022857Y-101408628D02*
X118641905Y-101408628D01*
X120118095Y-100884819D02*
X119641905Y-100884819D01*
X119641905Y-100884819D02*
X119594286Y-101361009D01*
X119594286Y-101361009D02*
X119641905Y-101313390D01*
X119641905Y-101313390D02*
X119737143Y-101265771D01*
X119737143Y-101265771D02*
X119975238Y-101265771D01*
X119975238Y-101265771D02*
X120070476Y-101313390D01*
X120070476Y-101313390D02*
X120118095Y-101361009D01*
X120118095Y-101361009D02*
X120165714Y-101456247D01*
X120165714Y-101456247D02*
X120165714Y-101694342D01*
X120165714Y-101694342D02*
X120118095Y-101789580D01*
X120118095Y-101789580D02*
X120070476Y-101837200D01*
X120070476Y-101837200D02*
X119975238Y-101884819D01*
X119975238Y-101884819D02*
X119737143Y-101884819D01*
X119737143Y-101884819D02*
X119641905Y-101837200D01*
X119641905Y-101837200D02*
X119594286Y-101789580D01*
X147947142Y-92994819D02*
X147613809Y-92518628D01*
X147375714Y-92994819D02*
X147375714Y-91994819D01*
X147375714Y-91994819D02*
X147756666Y-91994819D01*
X147756666Y-91994819D02*
X147851904Y-92042438D01*
X147851904Y-92042438D02*
X147899523Y-92090057D01*
X147899523Y-92090057D02*
X147947142Y-92185295D01*
X147947142Y-92185295D02*
X147947142Y-92328152D01*
X147947142Y-92328152D02*
X147899523Y-92423390D01*
X147899523Y-92423390D02*
X147851904Y-92471009D01*
X147851904Y-92471009D02*
X147756666Y-92518628D01*
X147756666Y-92518628D02*
X147375714Y-92518628D01*
X148899523Y-92994819D02*
X148328095Y-92994819D01*
X148613809Y-92994819D02*
X148613809Y-91994819D01*
X148613809Y-91994819D02*
X148518571Y-92137676D01*
X148518571Y-92137676D02*
X148423333Y-92232914D01*
X148423333Y-92232914D02*
X148328095Y-92280533D01*
X149756666Y-92328152D02*
X149756666Y-92994819D01*
X149518571Y-91947200D02*
X149280476Y-92661485D01*
X149280476Y-92661485D02*
X149899523Y-92661485D01*
X194937142Y-96804819D02*
X194603809Y-96328628D01*
X194365714Y-96804819D02*
X194365714Y-95804819D01*
X194365714Y-95804819D02*
X194746666Y-95804819D01*
X194746666Y-95804819D02*
X194841904Y-95852438D01*
X194841904Y-95852438D02*
X194889523Y-95900057D01*
X194889523Y-95900057D02*
X194937142Y-95995295D01*
X194937142Y-95995295D02*
X194937142Y-96138152D01*
X194937142Y-96138152D02*
X194889523Y-96233390D01*
X194889523Y-96233390D02*
X194841904Y-96281009D01*
X194841904Y-96281009D02*
X194746666Y-96328628D01*
X194746666Y-96328628D02*
X194365714Y-96328628D01*
X195889523Y-96804819D02*
X195318095Y-96804819D01*
X195603809Y-96804819D02*
X195603809Y-95804819D01*
X195603809Y-95804819D02*
X195508571Y-95947676D01*
X195508571Y-95947676D02*
X195413333Y-96042914D01*
X195413333Y-96042914D02*
X195318095Y-96090533D01*
X196460952Y-96233390D02*
X196365714Y-96185771D01*
X196365714Y-96185771D02*
X196318095Y-96138152D01*
X196318095Y-96138152D02*
X196270476Y-96042914D01*
X196270476Y-96042914D02*
X196270476Y-95995295D01*
X196270476Y-95995295D02*
X196318095Y-95900057D01*
X196318095Y-95900057D02*
X196365714Y-95852438D01*
X196365714Y-95852438D02*
X196460952Y-95804819D01*
X196460952Y-95804819D02*
X196651428Y-95804819D01*
X196651428Y-95804819D02*
X196746666Y-95852438D01*
X196746666Y-95852438D02*
X196794285Y-95900057D01*
X196794285Y-95900057D02*
X196841904Y-95995295D01*
X196841904Y-95995295D02*
X196841904Y-96042914D01*
X196841904Y-96042914D02*
X196794285Y-96138152D01*
X196794285Y-96138152D02*
X196746666Y-96185771D01*
X196746666Y-96185771D02*
X196651428Y-96233390D01*
X196651428Y-96233390D02*
X196460952Y-96233390D01*
X196460952Y-96233390D02*
X196365714Y-96281009D01*
X196365714Y-96281009D02*
X196318095Y-96328628D01*
X196318095Y-96328628D02*
X196270476Y-96423866D01*
X196270476Y-96423866D02*
X196270476Y-96614342D01*
X196270476Y-96614342D02*
X196318095Y-96709580D01*
X196318095Y-96709580D02*
X196365714Y-96757200D01*
X196365714Y-96757200D02*
X196460952Y-96804819D01*
X196460952Y-96804819D02*
X196651428Y-96804819D01*
X196651428Y-96804819D02*
X196746666Y-96757200D01*
X196746666Y-96757200D02*
X196794285Y-96709580D01*
X196794285Y-96709580D02*
X196841904Y-96614342D01*
X196841904Y-96614342D02*
X196841904Y-96423866D01*
X196841904Y-96423866D02*
X196794285Y-96328628D01*
X196794285Y-96328628D02*
X196746666Y-96281009D01*
X196746666Y-96281009D02*
X196651428Y-96233390D01*
X132072142Y-88254819D02*
X131738809Y-87778628D01*
X131500714Y-88254819D02*
X131500714Y-87254819D01*
X131500714Y-87254819D02*
X131881666Y-87254819D01*
X131881666Y-87254819D02*
X131976904Y-87302438D01*
X131976904Y-87302438D02*
X132024523Y-87350057D01*
X132024523Y-87350057D02*
X132072142Y-87445295D01*
X132072142Y-87445295D02*
X132072142Y-87588152D01*
X132072142Y-87588152D02*
X132024523Y-87683390D01*
X132024523Y-87683390D02*
X131976904Y-87731009D01*
X131976904Y-87731009D02*
X131881666Y-87778628D01*
X131881666Y-87778628D02*
X131500714Y-87778628D01*
X133024523Y-88254819D02*
X132453095Y-88254819D01*
X132738809Y-88254819D02*
X132738809Y-87254819D01*
X132738809Y-87254819D02*
X132643571Y-87397676D01*
X132643571Y-87397676D02*
X132548333Y-87492914D01*
X132548333Y-87492914D02*
X132453095Y-87540533D01*
X133405476Y-87350057D02*
X133453095Y-87302438D01*
X133453095Y-87302438D02*
X133548333Y-87254819D01*
X133548333Y-87254819D02*
X133786428Y-87254819D01*
X133786428Y-87254819D02*
X133881666Y-87302438D01*
X133881666Y-87302438D02*
X133929285Y-87350057D01*
X133929285Y-87350057D02*
X133976904Y-87445295D01*
X133976904Y-87445295D02*
X133976904Y-87540533D01*
X133976904Y-87540533D02*
X133929285Y-87683390D01*
X133929285Y-87683390D02*
X133357857Y-88254819D01*
X133357857Y-88254819D02*
X133976904Y-88254819D01*
X194937142Y-91724819D02*
X194603809Y-91248628D01*
X194365714Y-91724819D02*
X194365714Y-90724819D01*
X194365714Y-90724819D02*
X194746666Y-90724819D01*
X194746666Y-90724819D02*
X194841904Y-90772438D01*
X194841904Y-90772438D02*
X194889523Y-90820057D01*
X194889523Y-90820057D02*
X194937142Y-90915295D01*
X194937142Y-90915295D02*
X194937142Y-91058152D01*
X194937142Y-91058152D02*
X194889523Y-91153390D01*
X194889523Y-91153390D02*
X194841904Y-91201009D01*
X194841904Y-91201009D02*
X194746666Y-91248628D01*
X194746666Y-91248628D02*
X194365714Y-91248628D01*
X195889523Y-91724819D02*
X195318095Y-91724819D01*
X195603809Y-91724819D02*
X195603809Y-90724819D01*
X195603809Y-90724819D02*
X195508571Y-90867676D01*
X195508571Y-90867676D02*
X195413333Y-90962914D01*
X195413333Y-90962914D02*
X195318095Y-91010533D01*
X196222857Y-90724819D02*
X196889523Y-90724819D01*
X196889523Y-90724819D02*
X196460952Y-91724819D01*
X148423333Y-67934819D02*
X148090000Y-67458628D01*
X147851905Y-67934819D02*
X147851905Y-66934819D01*
X147851905Y-66934819D02*
X148232857Y-66934819D01*
X148232857Y-66934819D02*
X148328095Y-66982438D01*
X148328095Y-66982438D02*
X148375714Y-67030057D01*
X148375714Y-67030057D02*
X148423333Y-67125295D01*
X148423333Y-67125295D02*
X148423333Y-67268152D01*
X148423333Y-67268152D02*
X148375714Y-67363390D01*
X148375714Y-67363390D02*
X148328095Y-67411009D01*
X148328095Y-67411009D02*
X148232857Y-67458628D01*
X148232857Y-67458628D02*
X147851905Y-67458628D01*
X148994762Y-67363390D02*
X148899524Y-67315771D01*
X148899524Y-67315771D02*
X148851905Y-67268152D01*
X148851905Y-67268152D02*
X148804286Y-67172914D01*
X148804286Y-67172914D02*
X148804286Y-67125295D01*
X148804286Y-67125295D02*
X148851905Y-67030057D01*
X148851905Y-67030057D02*
X148899524Y-66982438D01*
X148899524Y-66982438D02*
X148994762Y-66934819D01*
X148994762Y-66934819D02*
X149185238Y-66934819D01*
X149185238Y-66934819D02*
X149280476Y-66982438D01*
X149280476Y-66982438D02*
X149328095Y-67030057D01*
X149328095Y-67030057D02*
X149375714Y-67125295D01*
X149375714Y-67125295D02*
X149375714Y-67172914D01*
X149375714Y-67172914D02*
X149328095Y-67268152D01*
X149328095Y-67268152D02*
X149280476Y-67315771D01*
X149280476Y-67315771D02*
X149185238Y-67363390D01*
X149185238Y-67363390D02*
X148994762Y-67363390D01*
X148994762Y-67363390D02*
X148899524Y-67411009D01*
X148899524Y-67411009D02*
X148851905Y-67458628D01*
X148851905Y-67458628D02*
X148804286Y-67553866D01*
X148804286Y-67553866D02*
X148804286Y-67744342D01*
X148804286Y-67744342D02*
X148851905Y-67839580D01*
X148851905Y-67839580D02*
X148899524Y-67887200D01*
X148899524Y-67887200D02*
X148994762Y-67934819D01*
X148994762Y-67934819D02*
X149185238Y-67934819D01*
X149185238Y-67934819D02*
X149280476Y-67887200D01*
X149280476Y-67887200D02*
X149328095Y-67839580D01*
X149328095Y-67839580D02*
X149375714Y-67744342D01*
X149375714Y-67744342D02*
X149375714Y-67553866D01*
X149375714Y-67553866D02*
X149328095Y-67458628D01*
X149328095Y-67458628D02*
X149280476Y-67411009D01*
X149280476Y-67411009D02*
X149185238Y-67363390D01*
X206194819Y-94622857D02*
X205718628Y-94956190D01*
X206194819Y-95194285D02*
X205194819Y-95194285D01*
X205194819Y-95194285D02*
X205194819Y-94813333D01*
X205194819Y-94813333D02*
X205242438Y-94718095D01*
X205242438Y-94718095D02*
X205290057Y-94670476D01*
X205290057Y-94670476D02*
X205385295Y-94622857D01*
X205385295Y-94622857D02*
X205528152Y-94622857D01*
X205528152Y-94622857D02*
X205623390Y-94670476D01*
X205623390Y-94670476D02*
X205671009Y-94718095D01*
X205671009Y-94718095D02*
X205718628Y-94813333D01*
X205718628Y-94813333D02*
X205718628Y-95194285D01*
X206194819Y-93670476D02*
X206194819Y-94241904D01*
X206194819Y-93956190D02*
X205194819Y-93956190D01*
X205194819Y-93956190D02*
X205337676Y-94051428D01*
X205337676Y-94051428D02*
X205432914Y-94146666D01*
X205432914Y-94146666D02*
X205480533Y-94241904D01*
X206194819Y-93194285D02*
X206194819Y-93003809D01*
X206194819Y-93003809D02*
X206147200Y-92908571D01*
X206147200Y-92908571D02*
X206099580Y-92860952D01*
X206099580Y-92860952D02*
X205956723Y-92765714D01*
X205956723Y-92765714D02*
X205766247Y-92718095D01*
X205766247Y-92718095D02*
X205385295Y-92718095D01*
X205385295Y-92718095D02*
X205290057Y-92765714D01*
X205290057Y-92765714D02*
X205242438Y-92813333D01*
X205242438Y-92813333D02*
X205194819Y-92908571D01*
X205194819Y-92908571D02*
X205194819Y-93099047D01*
X205194819Y-93099047D02*
X205242438Y-93194285D01*
X205242438Y-93194285D02*
X205290057Y-93241904D01*
X205290057Y-93241904D02*
X205385295Y-93289523D01*
X205385295Y-93289523D02*
X205623390Y-93289523D01*
X205623390Y-93289523D02*
X205718628Y-93241904D01*
X205718628Y-93241904D02*
X205766247Y-93194285D01*
X205766247Y-93194285D02*
X205813866Y-93099047D01*
X205813866Y-93099047D02*
X205813866Y-92908571D01*
X205813866Y-92908571D02*
X205766247Y-92813333D01*
X205766247Y-92813333D02*
X205718628Y-92765714D01*
X205718628Y-92765714D02*
X205623390Y-92718095D01*
X186969580Y-68835272D02*
X187017200Y-68882891D01*
X187017200Y-68882891D02*
X187064819Y-69025748D01*
X187064819Y-69025748D02*
X187064819Y-69120986D01*
X187064819Y-69120986D02*
X187017200Y-69263843D01*
X187017200Y-69263843D02*
X186921961Y-69359081D01*
X186921961Y-69359081D02*
X186826723Y-69406700D01*
X186826723Y-69406700D02*
X186636247Y-69454319D01*
X186636247Y-69454319D02*
X186493390Y-69454319D01*
X186493390Y-69454319D02*
X186302914Y-69406700D01*
X186302914Y-69406700D02*
X186207676Y-69359081D01*
X186207676Y-69359081D02*
X186112438Y-69263843D01*
X186112438Y-69263843D02*
X186064819Y-69120986D01*
X186064819Y-69120986D02*
X186064819Y-69025748D01*
X186064819Y-69025748D02*
X186112438Y-68882891D01*
X186112438Y-68882891D02*
X186160057Y-68835272D01*
X186064819Y-67930510D02*
X186064819Y-68406700D01*
X186064819Y-68406700D02*
X186541009Y-68454319D01*
X186541009Y-68454319D02*
X186493390Y-68406700D01*
X186493390Y-68406700D02*
X186445771Y-68311462D01*
X186445771Y-68311462D02*
X186445771Y-68073367D01*
X186445771Y-68073367D02*
X186493390Y-67978129D01*
X186493390Y-67978129D02*
X186541009Y-67930510D01*
X186541009Y-67930510D02*
X186636247Y-67882891D01*
X186636247Y-67882891D02*
X186874342Y-67882891D01*
X186874342Y-67882891D02*
X186969580Y-67930510D01*
X186969580Y-67930510D02*
X187017200Y-67978129D01*
X187017200Y-67978129D02*
X187064819Y-68073367D01*
X187064819Y-68073367D02*
X187064819Y-68311462D01*
X187064819Y-68311462D02*
X187017200Y-68406700D01*
X187017200Y-68406700D02*
X186969580Y-68454319D01*
X135274580Y-112402857D02*
X135322200Y-112450476D01*
X135322200Y-112450476D02*
X135369819Y-112593333D01*
X135369819Y-112593333D02*
X135369819Y-112688571D01*
X135369819Y-112688571D02*
X135322200Y-112831428D01*
X135322200Y-112831428D02*
X135226961Y-112926666D01*
X135226961Y-112926666D02*
X135131723Y-112974285D01*
X135131723Y-112974285D02*
X134941247Y-113021904D01*
X134941247Y-113021904D02*
X134798390Y-113021904D01*
X134798390Y-113021904D02*
X134607914Y-112974285D01*
X134607914Y-112974285D02*
X134512676Y-112926666D01*
X134512676Y-112926666D02*
X134417438Y-112831428D01*
X134417438Y-112831428D02*
X134369819Y-112688571D01*
X134369819Y-112688571D02*
X134369819Y-112593333D01*
X134369819Y-112593333D02*
X134417438Y-112450476D01*
X134417438Y-112450476D02*
X134465057Y-112402857D01*
X134465057Y-112021904D02*
X134417438Y-111974285D01*
X134417438Y-111974285D02*
X134369819Y-111879047D01*
X134369819Y-111879047D02*
X134369819Y-111640952D01*
X134369819Y-111640952D02*
X134417438Y-111545714D01*
X134417438Y-111545714D02*
X134465057Y-111498095D01*
X134465057Y-111498095D02*
X134560295Y-111450476D01*
X134560295Y-111450476D02*
X134655533Y-111450476D01*
X134655533Y-111450476D02*
X134798390Y-111498095D01*
X134798390Y-111498095D02*
X135369819Y-112069523D01*
X135369819Y-112069523D02*
X135369819Y-111450476D01*
X135369819Y-110974285D02*
X135369819Y-110783809D01*
X135369819Y-110783809D02*
X135322200Y-110688571D01*
X135322200Y-110688571D02*
X135274580Y-110640952D01*
X135274580Y-110640952D02*
X135131723Y-110545714D01*
X135131723Y-110545714D02*
X134941247Y-110498095D01*
X134941247Y-110498095D02*
X134560295Y-110498095D01*
X134560295Y-110498095D02*
X134465057Y-110545714D01*
X134465057Y-110545714D02*
X134417438Y-110593333D01*
X134417438Y-110593333D02*
X134369819Y-110688571D01*
X134369819Y-110688571D02*
X134369819Y-110879047D01*
X134369819Y-110879047D02*
X134417438Y-110974285D01*
X134417438Y-110974285D02*
X134465057Y-111021904D01*
X134465057Y-111021904D02*
X134560295Y-111069523D01*
X134560295Y-111069523D02*
X134798390Y-111069523D01*
X134798390Y-111069523D02*
X134893628Y-111021904D01*
X134893628Y-111021904D02*
X134941247Y-110974285D01*
X134941247Y-110974285D02*
X134988866Y-110879047D01*
X134988866Y-110879047D02*
X134988866Y-110688571D01*
X134988866Y-110688571D02*
X134941247Y-110593333D01*
X134941247Y-110593333D02*
X134893628Y-110545714D01*
X134893628Y-110545714D02*
X134798390Y-110498095D01*
X123698095Y-104404819D02*
X123698095Y-105214342D01*
X123698095Y-105214342D02*
X123745714Y-105309580D01*
X123745714Y-105309580D02*
X123793333Y-105357200D01*
X123793333Y-105357200D02*
X123888571Y-105404819D01*
X123888571Y-105404819D02*
X124079047Y-105404819D01*
X124079047Y-105404819D02*
X124174285Y-105357200D01*
X124174285Y-105357200D02*
X124221904Y-105309580D01*
X124221904Y-105309580D02*
X124269523Y-105214342D01*
X124269523Y-105214342D02*
X124269523Y-104404819D01*
X124698095Y-104500057D02*
X124745714Y-104452438D01*
X124745714Y-104452438D02*
X124840952Y-104404819D01*
X124840952Y-104404819D02*
X125079047Y-104404819D01*
X125079047Y-104404819D02*
X125174285Y-104452438D01*
X125174285Y-104452438D02*
X125221904Y-104500057D01*
X125221904Y-104500057D02*
X125269523Y-104595295D01*
X125269523Y-104595295D02*
X125269523Y-104690533D01*
X125269523Y-104690533D02*
X125221904Y-104833390D01*
X125221904Y-104833390D02*
X124650476Y-105404819D01*
X124650476Y-105404819D02*
X125269523Y-105404819D01*
X148423333Y-62854819D02*
X148090000Y-62378628D01*
X147851905Y-62854819D02*
X147851905Y-61854819D01*
X147851905Y-61854819D02*
X148232857Y-61854819D01*
X148232857Y-61854819D02*
X148328095Y-61902438D01*
X148328095Y-61902438D02*
X148375714Y-61950057D01*
X148375714Y-61950057D02*
X148423333Y-62045295D01*
X148423333Y-62045295D02*
X148423333Y-62188152D01*
X148423333Y-62188152D02*
X148375714Y-62283390D01*
X148375714Y-62283390D02*
X148328095Y-62331009D01*
X148328095Y-62331009D02*
X148232857Y-62378628D01*
X148232857Y-62378628D02*
X147851905Y-62378628D01*
X148756667Y-61854819D02*
X149423333Y-61854819D01*
X149423333Y-61854819D02*
X148994762Y-62854819D01*
X179589819Y-81391904D02*
X180399342Y-81391904D01*
X180399342Y-81391904D02*
X180494580Y-81344285D01*
X180494580Y-81344285D02*
X180542200Y-81296666D01*
X180542200Y-81296666D02*
X180589819Y-81201428D01*
X180589819Y-81201428D02*
X180589819Y-81010952D01*
X180589819Y-81010952D02*
X180542200Y-80915714D01*
X180542200Y-80915714D02*
X180494580Y-80868095D01*
X180494580Y-80868095D02*
X180399342Y-80820476D01*
X180399342Y-80820476D02*
X179589819Y-80820476D01*
X180589819Y-79820476D02*
X180589819Y-80391904D01*
X180589819Y-80106190D02*
X179589819Y-80106190D01*
X179589819Y-80106190D02*
X179732676Y-80201428D01*
X179732676Y-80201428D02*
X179827914Y-80296666D01*
X179827914Y-80296666D02*
X179875533Y-80391904D01*
D12*
X191746000Y-135382000D02*
X190976000Y-135382000D01*
X190976000Y-136752000D02*
X190976000Y-134012000D01*
X190976000Y-134012000D02*
X184436000Y-134012000D01*
X184436000Y-136752000D02*
X190976000Y-136752000D01*
X184436000Y-134012000D02*
X184436000Y-136752000D01*
X183666000Y-135382000D02*
X184436000Y-135382000D01*
X183666000Y-124968000D02*
X184436000Y-124968000D01*
X184436000Y-123598000D02*
X184436000Y-126338000D01*
X184436000Y-126338000D02*
X190976000Y-126338000D01*
X190976000Y-123598000D02*
X184436000Y-123598000D01*
X190976000Y-126338000D02*
X190976000Y-123598000D01*
X191746000Y-124968000D02*
X190976000Y-124968000D01*
X166346000Y-135382000D02*
X165576000Y-135382000D01*
X165576000Y-136752000D02*
X165576000Y-134012000D01*
X165576000Y-134012000D02*
X159036000Y-134012000D01*
X159036000Y-136752000D02*
X165576000Y-136752000D01*
X159036000Y-134012000D02*
X159036000Y-136752000D01*
X158266000Y-135382000D02*
X159036000Y-135382000D01*
X158266000Y-124968000D02*
X159036000Y-124968000D01*
X159036000Y-123598000D02*
X159036000Y-126338000D01*
X159036000Y-126338000D02*
X165576000Y-126338000D01*
X165576000Y-123598000D02*
X159036000Y-123598000D01*
X165576000Y-126338000D02*
X165576000Y-123598000D01*
X166346000Y-124968000D02*
X165576000Y-124968000D01*
X140946000Y-135382000D02*
X140176000Y-135382000D01*
X140176000Y-136752000D02*
X140176000Y-134012000D01*
X140176000Y-134012000D02*
X133636000Y-134012000D01*
X133636000Y-136752000D02*
X140176000Y-136752000D01*
X133636000Y-134012000D02*
X133636000Y-136752000D01*
X132866000Y-135382000D02*
X133636000Y-135382000D01*
X132960000Y-124968000D02*
X133730000Y-124968000D01*
X133730000Y-123598000D02*
X133730000Y-126338000D01*
X133730000Y-126338000D02*
X140270000Y-126338000D01*
X140270000Y-123598000D02*
X133730000Y-123598000D01*
X140270000Y-126338000D02*
X140270000Y-123598000D01*
X141040000Y-124968000D02*
X140270000Y-124968000D01*
X105640000Y-124460000D02*
X104870000Y-124460000D01*
X104870000Y-125830000D02*
X104870000Y-123090000D01*
X104870000Y-123090000D02*
X98330000Y-123090000D01*
X98330000Y-125830000D02*
X104870000Y-125830000D01*
X98330000Y-123090000D02*
X98330000Y-125830000D01*
X97560000Y-124460000D02*
X98330000Y-124460000D01*
X115800000Y-135128000D02*
X115030000Y-135128000D01*
X115030000Y-136498000D02*
X115030000Y-133758000D01*
X115030000Y-133758000D02*
X108490000Y-133758000D01*
X108490000Y-136498000D02*
X115030000Y-136498000D01*
X108490000Y-133758000D02*
X108490000Y-136498000D01*
X107720000Y-135128000D02*
X108490000Y-135128000D01*
D13*
X181550000Y-128175000D02*
X194050000Y-128175000D01*
X194050000Y-132175000D01*
X181550000Y-132175000D01*
X181550000Y-128175000D01*
X156150000Y-128175000D02*
X168650000Y-128175000D01*
X168650000Y-132175000D01*
X156150000Y-132175000D01*
X156150000Y-128175000D01*
X130750000Y-128175000D02*
X143250000Y-128175000D01*
X143250000Y-132175000D01*
X130750000Y-132175000D01*
X130750000Y-128175000D01*
X105430000Y-128175000D02*
X117930000Y-128175000D01*
X117930000Y-132175000D01*
X105430000Y-132175000D01*
X105430000Y-128175000D01*
D12*
X112970000Y-104140000D02*
X112970000Y-121980000D01*
X112970000Y-104140000D02*
X115630000Y-104140000D01*
X112970000Y-121980000D02*
X115630000Y-121980000D01*
X114300000Y-101540000D02*
X115630000Y-101540000D01*
X115630000Y-101540000D02*
X115630000Y-102870000D01*
X115630000Y-104140000D02*
X115630000Y-121980000D01*
X97095000Y-104140000D02*
X97095000Y-121980000D01*
X97095000Y-104140000D02*
X99755000Y-104140000D01*
X97095000Y-121980000D02*
X99755000Y-121980000D01*
X98425000Y-101540000D02*
X99755000Y-101540000D01*
X99755000Y-101540000D02*
X99755000Y-102870000D01*
X99755000Y-104140000D02*
X99755000Y-121980000D01*
X170169000Y-118551000D02*
X170169000Y-117669000D01*
X170209000Y-118803000D02*
X170209000Y-117417000D01*
X170249000Y-118987000D02*
X170249000Y-117233000D01*
X170289000Y-119138000D02*
X170289000Y-117082000D01*
X170329000Y-119268000D02*
X170329000Y-116952000D01*
X170369000Y-119385000D02*
X170369000Y-116835000D01*
X170409000Y-119491000D02*
X170409000Y-116729000D01*
X170449000Y-119588000D02*
X170449000Y-116632000D01*
X170489000Y-119679000D02*
X170489000Y-116541000D01*
X170529000Y-119764000D02*
X170529000Y-116456000D01*
X170569000Y-119843000D02*
X170569000Y-116377000D01*
X170609000Y-119919000D02*
X170609000Y-116301000D01*
X170649000Y-119991000D02*
X170649000Y-116229000D01*
X170689000Y-120059000D02*
X170689000Y-116161000D01*
X170729000Y-120124000D02*
X170729000Y-116096000D01*
X170769000Y-120187000D02*
X170769000Y-116033000D01*
X170809000Y-120247000D02*
X170809000Y-115973000D01*
X170849000Y-120305000D02*
X170849000Y-115915000D01*
X170889000Y-120360000D02*
X170889000Y-115860000D01*
X170929000Y-120414000D02*
X170929000Y-115806000D01*
X170969000Y-120465000D02*
X170969000Y-115755000D01*
X171009000Y-120515000D02*
X171009000Y-115705000D01*
X171049000Y-120564000D02*
X171049000Y-115656000D01*
X171089000Y-120610000D02*
X171089000Y-115610000D01*
X171129000Y-120656000D02*
X171129000Y-115564000D01*
X171169000Y-120699000D02*
X171169000Y-115521000D01*
X171209000Y-120742000D02*
X171209000Y-115478000D01*
X171249000Y-120783000D02*
X171249000Y-115437000D01*
X171289000Y-120823000D02*
X171289000Y-115397000D01*
X171329000Y-120862000D02*
X171329000Y-115358000D01*
X171369000Y-120900000D02*
X171369000Y-115320000D01*
X171409000Y-120937000D02*
X171409000Y-115283000D01*
X171449000Y-120973000D02*
X171449000Y-115247000D01*
X171489000Y-121008000D02*
X171489000Y-115212000D01*
X171529000Y-121041000D02*
X171529000Y-115179000D01*
X171569000Y-121074000D02*
X171569000Y-115146000D01*
X171609000Y-121106000D02*
X171609000Y-115114000D01*
X171649000Y-121138000D02*
X171649000Y-115082000D01*
X171689000Y-121168000D02*
X171689000Y-115052000D01*
X171729000Y-117070000D02*
X171729000Y-115022000D01*
X171729000Y-121198000D02*
X171729000Y-119150000D01*
X171769000Y-117070000D02*
X171769000Y-114994000D01*
X171769000Y-121226000D02*
X171769000Y-119150000D01*
X171809000Y-117070000D02*
X171809000Y-114966000D01*
X171809000Y-121254000D02*
X171809000Y-119150000D01*
X171849000Y-117070000D02*
X171849000Y-114938000D01*
X171849000Y-121282000D02*
X171849000Y-119150000D01*
X171889000Y-117070000D02*
X171889000Y-114912000D01*
X171889000Y-121308000D02*
X171889000Y-119150000D01*
X171929000Y-117070000D02*
X171929000Y-114886000D01*
X171929000Y-121334000D02*
X171929000Y-119150000D01*
X171969000Y-117070000D02*
X171969000Y-114861000D01*
X171969000Y-121359000D02*
X171969000Y-119150000D01*
X172009000Y-117070000D02*
X172009000Y-114836000D01*
X172009000Y-121384000D02*
X172009000Y-119150000D01*
X172049000Y-117070000D02*
X172049000Y-114813000D01*
X172049000Y-121407000D02*
X172049000Y-119150000D01*
X172089000Y-117070000D02*
X172089000Y-114789000D01*
X172089000Y-121431000D02*
X172089000Y-119150000D01*
X172129000Y-117070000D02*
X172129000Y-114767000D01*
X172129000Y-121453000D02*
X172129000Y-119150000D01*
X172169000Y-117070000D02*
X172169000Y-114745000D01*
X172169000Y-121475000D02*
X172169000Y-119150000D01*
X172209000Y-117070000D02*
X172209000Y-114724000D01*
X172209000Y-121496000D02*
X172209000Y-119150000D01*
X172249000Y-117070000D02*
X172249000Y-114703000D01*
X172249000Y-121517000D02*
X172249000Y-119150000D01*
X172289000Y-117070000D02*
X172289000Y-114683000D01*
X172289000Y-121537000D02*
X172289000Y-119150000D01*
X172329000Y-117070000D02*
X172329000Y-114663000D01*
X172329000Y-121557000D02*
X172329000Y-119150000D01*
X172369000Y-117070000D02*
X172369000Y-114644000D01*
X172369000Y-121576000D02*
X172369000Y-119150000D01*
X172409000Y-117070000D02*
X172409000Y-114626000D01*
X172409000Y-121594000D02*
X172409000Y-119150000D01*
X172449000Y-117070000D02*
X172449000Y-114608000D01*
X172449000Y-121612000D02*
X172449000Y-119150000D01*
X172489000Y-117070000D02*
X172489000Y-114590000D01*
X172489000Y-121630000D02*
X172489000Y-119150000D01*
X172529000Y-117070000D02*
X172529000Y-114574000D01*
X172529000Y-121646000D02*
X172529000Y-119150000D01*
X172569000Y-117070000D02*
X172569000Y-114557000D01*
X172569000Y-121663000D02*
X172569000Y-119150000D01*
X172609000Y-117070000D02*
X172609000Y-114542000D01*
X172609000Y-121678000D02*
X172609000Y-119150000D01*
X172649000Y-117070000D02*
X172649000Y-114526000D01*
X172649000Y-121694000D02*
X172649000Y-119150000D01*
X172689000Y-117070000D02*
X172689000Y-114512000D01*
X172689000Y-121708000D02*
X172689000Y-119150000D01*
X172729000Y-117070000D02*
X172729000Y-114497000D01*
X172729000Y-121723000D02*
X172729000Y-119150000D01*
X172769000Y-117070000D02*
X172769000Y-114484000D01*
X172769000Y-121736000D02*
X172769000Y-119150000D01*
X172809000Y-117070000D02*
X172809000Y-114470000D01*
X172809000Y-121750000D02*
X172809000Y-119150000D01*
X172849000Y-117070000D02*
X172849000Y-114457000D01*
X172849000Y-121763000D02*
X172849000Y-119150000D01*
X172889000Y-117070000D02*
X172889000Y-114445000D01*
X172889000Y-121775000D02*
X172889000Y-119150000D01*
X172929000Y-117070000D02*
X172929000Y-114433000D01*
X172929000Y-121787000D02*
X172929000Y-119150000D01*
X172969000Y-117070000D02*
X172969000Y-114422000D01*
X172969000Y-121798000D02*
X172969000Y-119150000D01*
X173009000Y-117070000D02*
X173009000Y-114411000D01*
X173009000Y-121809000D02*
X173009000Y-119150000D01*
X173049000Y-117070000D02*
X173049000Y-114400000D01*
X173049000Y-121820000D02*
X173049000Y-119150000D01*
X173089000Y-117070000D02*
X173089000Y-114390000D01*
X173089000Y-121830000D02*
X173089000Y-119150000D01*
X173129000Y-117070000D02*
X173129000Y-114381000D01*
X173129000Y-121839000D02*
X173129000Y-119150000D01*
X173169000Y-117070000D02*
X173169000Y-114372000D01*
X173169000Y-121848000D02*
X173169000Y-119150000D01*
X173209000Y-117070000D02*
X173209000Y-114363000D01*
X173209000Y-121857000D02*
X173209000Y-119150000D01*
X173249000Y-117070000D02*
X173249000Y-114355000D01*
X173249000Y-121865000D02*
X173249000Y-119150000D01*
X173289000Y-117070000D02*
X173289000Y-114347000D01*
X173289000Y-121873000D02*
X173289000Y-119150000D01*
X173330000Y-117070000D02*
X173330000Y-114340000D01*
X173330000Y-121880000D02*
X173330000Y-119150000D01*
X173370000Y-117070000D02*
X173370000Y-114333000D01*
X173370000Y-121887000D02*
X173370000Y-119150000D01*
X173410000Y-117070000D02*
X173410000Y-114326000D01*
X173410000Y-121894000D02*
X173410000Y-119150000D01*
X173450000Y-117070000D02*
X173450000Y-114320000D01*
X173450000Y-121900000D02*
X173450000Y-119150000D01*
X173490000Y-117070000D02*
X173490000Y-114315000D01*
X173490000Y-121905000D02*
X173490000Y-119150000D01*
X173530000Y-117070000D02*
X173530000Y-114309000D01*
X173530000Y-121911000D02*
X173530000Y-119150000D01*
X173570000Y-117070000D02*
X173570000Y-114305000D01*
X173570000Y-121915000D02*
X173570000Y-119150000D01*
X173610000Y-117070000D02*
X173610000Y-114300000D01*
X173610000Y-121920000D02*
X173610000Y-119150000D01*
X173650000Y-117070000D02*
X173650000Y-114296000D01*
X173650000Y-121924000D02*
X173650000Y-119150000D01*
X173690000Y-117070000D02*
X173690000Y-114293000D01*
X173690000Y-121927000D02*
X173690000Y-119150000D01*
X173730000Y-117070000D02*
X173730000Y-114290000D01*
X173730000Y-121930000D02*
X173730000Y-119150000D01*
X173770000Y-117070000D02*
X173770000Y-114287000D01*
X173770000Y-121933000D02*
X173770000Y-119150000D01*
X173810000Y-121935000D02*
X173810000Y-114285000D01*
X173850000Y-121937000D02*
X173850000Y-114283000D01*
X173890000Y-121939000D02*
X173890000Y-114281000D01*
X173930000Y-121940000D02*
X173930000Y-114280000D01*
X173970000Y-121940000D02*
X173970000Y-114280000D01*
X174010000Y-121940000D02*
X174010000Y-114280000D01*
X177777211Y-120660000D02*
X177777211Y-119910000D01*
X178152211Y-120285000D02*
X177402211Y-120285000D01*
X177880000Y-118110000D02*
G75*
G02*
X170140000Y-118110000I-3870000J0D01*
G01*
X170140000Y-118110000D02*
G75*
G02*
X177880000Y-118110000I3870000J0D01*
G01*
X170140000Y-105950000D02*
X170140000Y-110591000D01*
X170140000Y-105950000D02*
X180380000Y-105950000D01*
X170140000Y-107460000D02*
X180380000Y-107460000D01*
X170140000Y-110591000D02*
X180380000Y-110591000D01*
X173410000Y-105950000D02*
X173410000Y-107460000D01*
X177111000Y-105950000D02*
X177111000Y-107460000D01*
X180380000Y-105950000D02*
X180380000Y-110591000D01*
X144550000Y-85090000D02*
X145320000Y-85090000D01*
X145320000Y-83720000D02*
X145320000Y-86460000D01*
X145320000Y-86460000D02*
X151860000Y-86460000D01*
X151860000Y-83720000D02*
X145320000Y-83720000D01*
X151860000Y-86460000D02*
X151860000Y-83720000D01*
X152630000Y-85090000D02*
X151860000Y-85090000D01*
X125325000Y-77730000D02*
X122542000Y-77730000D01*
X125325000Y-77770000D02*
X122545000Y-77770000D01*
X125325000Y-77810000D02*
X122548000Y-77810000D01*
X125325000Y-77850000D02*
X122551000Y-77850000D01*
X125325000Y-77890000D02*
X122555000Y-77890000D01*
X125325000Y-77930000D02*
X122560000Y-77930000D01*
X125325000Y-77970000D02*
X122564000Y-77970000D01*
X125325000Y-78010000D02*
X122570000Y-78010000D01*
X125325000Y-78050000D02*
X122575000Y-78050000D01*
X125325000Y-78090000D02*
X122581000Y-78090000D01*
X125325000Y-78130000D02*
X122588000Y-78130000D01*
X125325000Y-78170000D02*
X122595000Y-78170000D01*
X125325000Y-78211000D02*
X122602000Y-78211000D01*
X125325000Y-78251000D02*
X122610000Y-78251000D01*
X125325000Y-78291000D02*
X122618000Y-78291000D01*
X125325000Y-78331000D02*
X122627000Y-78331000D01*
X125325000Y-78371000D02*
X122636000Y-78371000D01*
X125325000Y-78411000D02*
X122645000Y-78411000D01*
X125325000Y-78451000D02*
X122655000Y-78451000D01*
X125325000Y-78491000D02*
X122666000Y-78491000D01*
X125325000Y-78531000D02*
X122677000Y-78531000D01*
X125325000Y-78571000D02*
X122688000Y-78571000D01*
X125325000Y-78611000D02*
X122700000Y-78611000D01*
X125325000Y-78651000D02*
X122712000Y-78651000D01*
X125325000Y-78691000D02*
X122725000Y-78691000D01*
X125325000Y-78731000D02*
X122739000Y-78731000D01*
X125325000Y-78771000D02*
X122752000Y-78771000D01*
X125325000Y-78811000D02*
X122767000Y-78811000D01*
X125325000Y-78851000D02*
X122781000Y-78851000D01*
X125325000Y-78891000D02*
X122797000Y-78891000D01*
X125325000Y-78931000D02*
X122812000Y-78931000D01*
X125325000Y-78971000D02*
X122829000Y-78971000D01*
X125325000Y-79011000D02*
X122845000Y-79011000D01*
X125325000Y-79051000D02*
X122863000Y-79051000D01*
X125325000Y-79091000D02*
X122881000Y-79091000D01*
X125325000Y-79131000D02*
X122899000Y-79131000D01*
X125325000Y-79171000D02*
X122918000Y-79171000D01*
X125325000Y-79211000D02*
X122938000Y-79211000D01*
X125325000Y-79251000D02*
X122958000Y-79251000D01*
X125325000Y-79291000D02*
X122979000Y-79291000D01*
X125325000Y-79331000D02*
X123000000Y-79331000D01*
X125325000Y-79371000D02*
X123022000Y-79371000D01*
X125325000Y-79411000D02*
X123044000Y-79411000D01*
X125325000Y-79451000D02*
X123068000Y-79451000D01*
X125325000Y-79491000D02*
X123091000Y-79491000D01*
X125325000Y-79531000D02*
X123116000Y-79531000D01*
X125325000Y-79571000D02*
X123141000Y-79571000D01*
X125325000Y-79611000D02*
X123167000Y-79611000D01*
X125325000Y-79651000D02*
X123193000Y-79651000D01*
X125325000Y-79691000D02*
X123221000Y-79691000D01*
X125325000Y-79731000D02*
X123249000Y-79731000D01*
X125325000Y-79771000D02*
X123277000Y-79771000D01*
X126806000Y-81331000D02*
X125924000Y-81331000D01*
X127058000Y-81291000D02*
X125672000Y-81291000D01*
X127242000Y-81251000D02*
X125488000Y-81251000D01*
X127393000Y-81211000D02*
X125337000Y-81211000D01*
X127523000Y-81171000D02*
X125207000Y-81171000D01*
X127640000Y-81131000D02*
X125090000Y-81131000D01*
X127746000Y-81091000D02*
X124984000Y-81091000D01*
X127843000Y-81051000D02*
X124887000Y-81051000D01*
X127934000Y-81011000D02*
X124796000Y-81011000D01*
X128019000Y-80971000D02*
X124711000Y-80971000D01*
X128098000Y-80931000D02*
X124632000Y-80931000D01*
X128174000Y-80891000D02*
X124556000Y-80891000D01*
X128246000Y-80851000D02*
X124484000Y-80851000D01*
X128314000Y-80811000D02*
X124416000Y-80811000D01*
X128379000Y-80771000D02*
X124351000Y-80771000D01*
X128442000Y-80731000D02*
X124288000Y-80731000D01*
X128502000Y-80691000D02*
X124228000Y-80691000D01*
X128540000Y-73347789D02*
X128540000Y-74097789D01*
X128560000Y-80651000D02*
X124170000Y-80651000D01*
X128615000Y-80611000D02*
X124115000Y-80611000D01*
X128669000Y-80571000D02*
X124061000Y-80571000D01*
X128720000Y-80531000D02*
X124010000Y-80531000D01*
X128770000Y-80491000D02*
X123960000Y-80491000D01*
X128819000Y-80451000D02*
X123911000Y-80451000D01*
X128865000Y-80411000D02*
X123865000Y-80411000D01*
X128911000Y-80371000D02*
X123819000Y-80371000D01*
X128915000Y-73722789D02*
X128165000Y-73722789D01*
X128954000Y-80331000D02*
X123776000Y-80331000D01*
X128997000Y-80291000D02*
X123733000Y-80291000D01*
X129038000Y-80251000D02*
X123692000Y-80251000D01*
X129078000Y-80211000D02*
X123652000Y-80211000D01*
X129117000Y-80171000D02*
X123613000Y-80171000D01*
X129155000Y-80131000D02*
X123575000Y-80131000D01*
X129192000Y-80091000D02*
X123538000Y-80091000D01*
X129228000Y-80051000D02*
X123502000Y-80051000D01*
X129263000Y-80011000D02*
X123467000Y-80011000D01*
X129296000Y-79971000D02*
X123434000Y-79971000D01*
X129329000Y-79931000D02*
X123401000Y-79931000D01*
X129361000Y-79891000D02*
X123369000Y-79891000D01*
X129393000Y-79851000D02*
X123337000Y-79851000D01*
X129423000Y-79811000D02*
X123307000Y-79811000D01*
X129453000Y-79771000D02*
X127405000Y-79771000D01*
X129481000Y-79731000D02*
X127405000Y-79731000D01*
X129509000Y-79691000D02*
X127405000Y-79691000D01*
X129537000Y-79651000D02*
X127405000Y-79651000D01*
X129563000Y-79611000D02*
X127405000Y-79611000D01*
X129589000Y-79571000D02*
X127405000Y-79571000D01*
X129614000Y-79531000D02*
X127405000Y-79531000D01*
X129639000Y-79491000D02*
X127405000Y-79491000D01*
X129662000Y-79451000D02*
X127405000Y-79451000D01*
X129686000Y-79411000D02*
X127405000Y-79411000D01*
X129708000Y-79371000D02*
X127405000Y-79371000D01*
X129730000Y-79331000D02*
X127405000Y-79331000D01*
X129751000Y-79291000D02*
X127405000Y-79291000D01*
X129772000Y-79251000D02*
X127405000Y-79251000D01*
X129792000Y-79211000D02*
X127405000Y-79211000D01*
X129812000Y-79171000D02*
X127405000Y-79171000D01*
X129831000Y-79131000D02*
X127405000Y-79131000D01*
X129849000Y-79091000D02*
X127405000Y-79091000D01*
X129867000Y-79051000D02*
X127405000Y-79051000D01*
X129885000Y-79011000D02*
X127405000Y-79011000D01*
X129901000Y-78971000D02*
X127405000Y-78971000D01*
X129918000Y-78931000D02*
X127405000Y-78931000D01*
X129933000Y-78891000D02*
X127405000Y-78891000D01*
X129949000Y-78851000D02*
X127405000Y-78851000D01*
X129963000Y-78811000D02*
X127405000Y-78811000D01*
X129978000Y-78771000D02*
X127405000Y-78771000D01*
X129991000Y-78731000D02*
X127405000Y-78731000D01*
X130005000Y-78691000D02*
X127405000Y-78691000D01*
X130018000Y-78651000D02*
X127405000Y-78651000D01*
X130030000Y-78611000D02*
X127405000Y-78611000D01*
X130042000Y-78571000D02*
X127405000Y-78571000D01*
X130053000Y-78531000D02*
X127405000Y-78531000D01*
X130064000Y-78491000D02*
X127405000Y-78491000D01*
X130075000Y-78451000D02*
X127405000Y-78451000D01*
X130085000Y-78411000D02*
X127405000Y-78411000D01*
X130094000Y-78371000D02*
X127405000Y-78371000D01*
X130103000Y-78331000D02*
X127405000Y-78331000D01*
X130112000Y-78291000D02*
X127405000Y-78291000D01*
X130120000Y-78251000D02*
X127405000Y-78251000D01*
X130128000Y-78211000D02*
X127405000Y-78211000D01*
X130135000Y-78170000D02*
X127405000Y-78170000D01*
X130142000Y-78130000D02*
X127405000Y-78130000D01*
X130149000Y-78090000D02*
X127405000Y-78090000D01*
X130155000Y-78050000D02*
X127405000Y-78050000D01*
X130160000Y-78010000D02*
X127405000Y-78010000D01*
X130166000Y-77970000D02*
X127405000Y-77970000D01*
X130170000Y-77930000D02*
X127405000Y-77930000D01*
X130175000Y-77890000D02*
X127405000Y-77890000D01*
X130179000Y-77850000D02*
X127405000Y-77850000D01*
X130182000Y-77810000D02*
X127405000Y-77810000D01*
X130185000Y-77770000D02*
X127405000Y-77770000D01*
X130188000Y-77730000D02*
X127405000Y-77730000D01*
X130190000Y-77690000D02*
X122540000Y-77690000D01*
X130192000Y-77650000D02*
X122538000Y-77650000D01*
X130194000Y-77610000D02*
X122536000Y-77610000D01*
X130195000Y-77490000D02*
X122535000Y-77490000D01*
X130195000Y-77530000D02*
X122535000Y-77530000D01*
X130195000Y-77570000D02*
X122535000Y-77570000D01*
X130235000Y-77490000D02*
G75*
G02*
X122495000Y-77490000I-3870000J0D01*
G01*
X122495000Y-77490000D02*
G75*
G02*
X130235000Y-77490000I3870000J0D01*
G01*
X145050000Y-124040000D02*
X145050000Y-124025000D01*
X145050000Y-126165000D02*
X145050000Y-126150000D01*
X149590000Y-124025000D02*
X145050000Y-124025000D01*
X149590000Y-124040000D02*
X149590000Y-124025000D01*
X149590000Y-126165000D02*
X145050000Y-126165000D01*
X149590000Y-126165000D02*
X149590000Y-126150000D01*
X157045000Y-109490000D02*
X157045000Y-114030000D01*
X157060000Y-109490000D02*
X157045000Y-109490000D01*
X157060000Y-114030000D02*
X157045000Y-114030000D01*
X159185000Y-109490000D02*
X159170000Y-109490000D01*
X159185000Y-109490000D02*
X159185000Y-114030000D01*
X159185000Y-114030000D02*
X159170000Y-114030000D01*
X171310000Y-132655000D02*
X171310000Y-135315000D01*
X176450000Y-132655000D02*
X171310000Y-132655000D01*
X176450000Y-132655000D02*
X176450000Y-135315000D01*
X176450000Y-135315000D02*
X171310000Y-135315000D01*
X177720000Y-132655000D02*
X179050000Y-132655000D01*
X179050000Y-132655000D02*
X179050000Y-133985000D01*
X195850000Y-124675000D02*
X195850000Y-124660000D01*
X195850000Y-126800000D02*
X195850000Y-126785000D01*
X200390000Y-124660000D02*
X195850000Y-124660000D01*
X200390000Y-124675000D02*
X200390000Y-124660000D01*
X200390000Y-126800000D02*
X195850000Y-126800000D01*
X200390000Y-126800000D02*
X200390000Y-126785000D01*
X109815000Y-75145000D02*
X109815000Y-79786000D01*
X109815000Y-75145000D02*
X120055000Y-75145000D01*
X109815000Y-76655000D02*
X120055000Y-76655000D01*
X109815000Y-79786000D02*
X120055000Y-79786000D01*
X113085000Y-75145000D02*
X113085000Y-76655000D01*
X116786000Y-75145000D02*
X116786000Y-76655000D01*
X120055000Y-75145000D02*
X120055000Y-79786000D01*
X140740000Y-99060000D02*
X141510000Y-99060000D01*
X141510000Y-97690000D02*
X141510000Y-100430000D01*
X141510000Y-100430000D02*
X148050000Y-100430000D01*
X148050000Y-97690000D02*
X141510000Y-97690000D01*
X148050000Y-100430000D02*
X148050000Y-97690000D01*
X148820000Y-99060000D02*
X148050000Y-99060000D01*
X144550000Y-80010000D02*
X145320000Y-80010000D01*
X145320000Y-78640000D02*
X145320000Y-81380000D01*
X145320000Y-81380000D02*
X151860000Y-81380000D01*
X151860000Y-78640000D02*
X145320000Y-78640000D01*
X151860000Y-81380000D02*
X151860000Y-78640000D01*
X152630000Y-80010000D02*
X151860000Y-80010000D01*
X195569000Y-119186000D02*
X195569000Y-118304000D01*
X195609000Y-119438000D02*
X195609000Y-118052000D01*
X195649000Y-119622000D02*
X195649000Y-117868000D01*
X195689000Y-119773000D02*
X195689000Y-117717000D01*
X195729000Y-119903000D02*
X195729000Y-117587000D01*
X195769000Y-120020000D02*
X195769000Y-117470000D01*
X195809000Y-120126000D02*
X195809000Y-117364000D01*
X195849000Y-120223000D02*
X195849000Y-117267000D01*
X195889000Y-120314000D02*
X195889000Y-117176000D01*
X195929000Y-120399000D02*
X195929000Y-117091000D01*
X195969000Y-120478000D02*
X195969000Y-117012000D01*
X196009000Y-120554000D02*
X196009000Y-116936000D01*
X196049000Y-120626000D02*
X196049000Y-116864000D01*
X196089000Y-120694000D02*
X196089000Y-116796000D01*
X196129000Y-120759000D02*
X196129000Y-116731000D01*
X196169000Y-120822000D02*
X196169000Y-116668000D01*
X196209000Y-120882000D02*
X196209000Y-116608000D01*
X196249000Y-120940000D02*
X196249000Y-116550000D01*
X196289000Y-120995000D02*
X196289000Y-116495000D01*
X196329000Y-121049000D02*
X196329000Y-116441000D01*
X196369000Y-121100000D02*
X196369000Y-116390000D01*
X196409000Y-121150000D02*
X196409000Y-116340000D01*
X196449000Y-121199000D02*
X196449000Y-116291000D01*
X196489000Y-121245000D02*
X196489000Y-116245000D01*
X196529000Y-121291000D02*
X196529000Y-116199000D01*
X196569000Y-121334000D02*
X196569000Y-116156000D01*
X196609000Y-121377000D02*
X196609000Y-116113000D01*
X196649000Y-121418000D02*
X196649000Y-116072000D01*
X196689000Y-121458000D02*
X196689000Y-116032000D01*
X196729000Y-121497000D02*
X196729000Y-115993000D01*
X196769000Y-121535000D02*
X196769000Y-115955000D01*
X196809000Y-121572000D02*
X196809000Y-115918000D01*
X196849000Y-121608000D02*
X196849000Y-115882000D01*
X196889000Y-121643000D02*
X196889000Y-115847000D01*
X196929000Y-121676000D02*
X196929000Y-115814000D01*
X196969000Y-121709000D02*
X196969000Y-115781000D01*
X197009000Y-121741000D02*
X197009000Y-115749000D01*
X197049000Y-121773000D02*
X197049000Y-115717000D01*
X197089000Y-121803000D02*
X197089000Y-115687000D01*
X197129000Y-117705000D02*
X197129000Y-115657000D01*
X197129000Y-121833000D02*
X197129000Y-119785000D01*
X197169000Y-117705000D02*
X197169000Y-115629000D01*
X197169000Y-121861000D02*
X197169000Y-119785000D01*
X197209000Y-117705000D02*
X197209000Y-115601000D01*
X197209000Y-121889000D02*
X197209000Y-119785000D01*
X197249000Y-117705000D02*
X197249000Y-115573000D01*
X197249000Y-121917000D02*
X197249000Y-119785000D01*
X197289000Y-117705000D02*
X197289000Y-115547000D01*
X197289000Y-121943000D02*
X197289000Y-119785000D01*
X197329000Y-117705000D02*
X197329000Y-115521000D01*
X197329000Y-121969000D02*
X197329000Y-119785000D01*
X197369000Y-117705000D02*
X197369000Y-115496000D01*
X197369000Y-121994000D02*
X197369000Y-119785000D01*
X197409000Y-117705000D02*
X197409000Y-115471000D01*
X197409000Y-122019000D02*
X197409000Y-119785000D01*
X197449000Y-117705000D02*
X197449000Y-115448000D01*
X197449000Y-122042000D02*
X197449000Y-119785000D01*
X197489000Y-117705000D02*
X197489000Y-115424000D01*
X197489000Y-122066000D02*
X197489000Y-119785000D01*
X197529000Y-117705000D02*
X197529000Y-115402000D01*
X197529000Y-122088000D02*
X197529000Y-119785000D01*
X197569000Y-117705000D02*
X197569000Y-115380000D01*
X197569000Y-122110000D02*
X197569000Y-119785000D01*
X197609000Y-117705000D02*
X197609000Y-115359000D01*
X197609000Y-122131000D02*
X197609000Y-119785000D01*
X197649000Y-117705000D02*
X197649000Y-115338000D01*
X197649000Y-122152000D02*
X197649000Y-119785000D01*
X197689000Y-117705000D02*
X197689000Y-115318000D01*
X197689000Y-122172000D02*
X197689000Y-119785000D01*
X197729000Y-117705000D02*
X197729000Y-115298000D01*
X197729000Y-122192000D02*
X197729000Y-119785000D01*
X197769000Y-117705000D02*
X197769000Y-115279000D01*
X197769000Y-122211000D02*
X197769000Y-119785000D01*
X197809000Y-117705000D02*
X197809000Y-115261000D01*
X197809000Y-122229000D02*
X197809000Y-119785000D01*
X197849000Y-117705000D02*
X197849000Y-115243000D01*
X197849000Y-122247000D02*
X197849000Y-119785000D01*
X197889000Y-117705000D02*
X197889000Y-115225000D01*
X197889000Y-122265000D02*
X197889000Y-119785000D01*
X197929000Y-117705000D02*
X197929000Y-115209000D01*
X197929000Y-122281000D02*
X197929000Y-119785000D01*
X197969000Y-117705000D02*
X197969000Y-115192000D01*
X197969000Y-122298000D02*
X197969000Y-119785000D01*
X198009000Y-117705000D02*
X198009000Y-115177000D01*
X198009000Y-122313000D02*
X198009000Y-119785000D01*
X198049000Y-117705000D02*
X198049000Y-115161000D01*
X198049000Y-122329000D02*
X198049000Y-119785000D01*
X198089000Y-117705000D02*
X198089000Y-115147000D01*
X198089000Y-122343000D02*
X198089000Y-119785000D01*
X198129000Y-117705000D02*
X198129000Y-115132000D01*
X198129000Y-122358000D02*
X198129000Y-119785000D01*
X198169000Y-117705000D02*
X198169000Y-115119000D01*
X198169000Y-122371000D02*
X198169000Y-119785000D01*
X198209000Y-117705000D02*
X198209000Y-115105000D01*
X198209000Y-122385000D02*
X198209000Y-119785000D01*
X198249000Y-117705000D02*
X198249000Y-115092000D01*
X198249000Y-122398000D02*
X198249000Y-119785000D01*
X198289000Y-117705000D02*
X198289000Y-115080000D01*
X198289000Y-122410000D02*
X198289000Y-119785000D01*
X198329000Y-117705000D02*
X198329000Y-115068000D01*
X198329000Y-122422000D02*
X198329000Y-119785000D01*
X198369000Y-117705000D02*
X198369000Y-115057000D01*
X198369000Y-122433000D02*
X198369000Y-119785000D01*
X198409000Y-117705000D02*
X198409000Y-115046000D01*
X198409000Y-122444000D02*
X198409000Y-119785000D01*
X198449000Y-117705000D02*
X198449000Y-115035000D01*
X198449000Y-122455000D02*
X198449000Y-119785000D01*
X198489000Y-117705000D02*
X198489000Y-115025000D01*
X198489000Y-122465000D02*
X198489000Y-119785000D01*
X198529000Y-117705000D02*
X198529000Y-115016000D01*
X198529000Y-122474000D02*
X198529000Y-119785000D01*
X198569000Y-117705000D02*
X198569000Y-115007000D01*
X198569000Y-122483000D02*
X198569000Y-119785000D01*
X198609000Y-117705000D02*
X198609000Y-114998000D01*
X198609000Y-122492000D02*
X198609000Y-119785000D01*
X198649000Y-117705000D02*
X198649000Y-114990000D01*
X198649000Y-122500000D02*
X198649000Y-119785000D01*
X198689000Y-117705000D02*
X198689000Y-114982000D01*
X198689000Y-122508000D02*
X198689000Y-119785000D01*
X198730000Y-117705000D02*
X198730000Y-114975000D01*
X198730000Y-122515000D02*
X198730000Y-119785000D01*
X198770000Y-117705000D02*
X198770000Y-114968000D01*
X198770000Y-122522000D02*
X198770000Y-119785000D01*
X198810000Y-117705000D02*
X198810000Y-114961000D01*
X198810000Y-122529000D02*
X198810000Y-119785000D01*
X198850000Y-117705000D02*
X198850000Y-114955000D01*
X198850000Y-122535000D02*
X198850000Y-119785000D01*
X198890000Y-117705000D02*
X198890000Y-114950000D01*
X198890000Y-122540000D02*
X198890000Y-119785000D01*
X198930000Y-117705000D02*
X198930000Y-114944000D01*
X198930000Y-122546000D02*
X198930000Y-119785000D01*
X198970000Y-117705000D02*
X198970000Y-114940000D01*
X198970000Y-122550000D02*
X198970000Y-119785000D01*
X199010000Y-117705000D02*
X199010000Y-114935000D01*
X199010000Y-122555000D02*
X199010000Y-119785000D01*
X199050000Y-117705000D02*
X199050000Y-114931000D01*
X199050000Y-122559000D02*
X199050000Y-119785000D01*
X199090000Y-117705000D02*
X199090000Y-114928000D01*
X199090000Y-122562000D02*
X199090000Y-119785000D01*
X199130000Y-117705000D02*
X199130000Y-114925000D01*
X199130000Y-122565000D02*
X199130000Y-119785000D01*
X199170000Y-117705000D02*
X199170000Y-114922000D01*
X199170000Y-122568000D02*
X199170000Y-119785000D01*
X199210000Y-122570000D02*
X199210000Y-114920000D01*
X199250000Y-122572000D02*
X199250000Y-114918000D01*
X199290000Y-122574000D02*
X199290000Y-114916000D01*
X199330000Y-122575000D02*
X199330000Y-114915000D01*
X199370000Y-122575000D02*
X199370000Y-114915000D01*
X199410000Y-122575000D02*
X199410000Y-114915000D01*
X203177211Y-121295000D02*
X203177211Y-120545000D01*
X203552211Y-120920000D02*
X202802211Y-120920000D01*
X203280000Y-118745000D02*
G75*
G02*
X195540000Y-118745000I-3870000J0D01*
G01*
X195540000Y-118745000D02*
G75*
G02*
X203280000Y-118745000I3870000J0D01*
G01*
X170450000Y-124675000D02*
X170450000Y-124660000D01*
X170450000Y-126800000D02*
X170450000Y-126785000D01*
X174990000Y-124660000D02*
X170450000Y-124660000D01*
X174990000Y-124675000D02*
X174990000Y-124660000D01*
X174990000Y-126800000D02*
X170450000Y-126800000D01*
X174990000Y-126800000D02*
X174990000Y-126785000D01*
X119369000Y-117916000D02*
X119369000Y-117034000D01*
X119409000Y-118168000D02*
X119409000Y-116782000D01*
X119449000Y-118352000D02*
X119449000Y-116598000D01*
X119489000Y-118503000D02*
X119489000Y-116447000D01*
X119529000Y-118633000D02*
X119529000Y-116317000D01*
X119569000Y-118750000D02*
X119569000Y-116200000D01*
X119609000Y-118856000D02*
X119609000Y-116094000D01*
X119649000Y-118953000D02*
X119649000Y-115997000D01*
X119689000Y-119044000D02*
X119689000Y-115906000D01*
X119729000Y-119129000D02*
X119729000Y-115821000D01*
X119769000Y-119208000D02*
X119769000Y-115742000D01*
X119809000Y-119284000D02*
X119809000Y-115666000D01*
X119849000Y-119356000D02*
X119849000Y-115594000D01*
X119889000Y-119424000D02*
X119889000Y-115526000D01*
X119929000Y-119489000D02*
X119929000Y-115461000D01*
X119969000Y-119552000D02*
X119969000Y-115398000D01*
X120009000Y-119612000D02*
X120009000Y-115338000D01*
X120049000Y-119670000D02*
X120049000Y-115280000D01*
X120089000Y-119725000D02*
X120089000Y-115225000D01*
X120129000Y-119779000D02*
X120129000Y-115171000D01*
X120169000Y-119830000D02*
X120169000Y-115120000D01*
X120209000Y-119880000D02*
X120209000Y-115070000D01*
X120249000Y-119929000D02*
X120249000Y-115021000D01*
X120289000Y-119975000D02*
X120289000Y-114975000D01*
X120329000Y-120021000D02*
X120329000Y-114929000D01*
X120369000Y-120064000D02*
X120369000Y-114886000D01*
X120409000Y-120107000D02*
X120409000Y-114843000D01*
X120449000Y-120148000D02*
X120449000Y-114802000D01*
X120489000Y-120188000D02*
X120489000Y-114762000D01*
X120529000Y-120227000D02*
X120529000Y-114723000D01*
X120569000Y-120265000D02*
X120569000Y-114685000D01*
X120609000Y-120302000D02*
X120609000Y-114648000D01*
X120649000Y-120338000D02*
X120649000Y-114612000D01*
X120689000Y-120373000D02*
X120689000Y-114577000D01*
X120729000Y-120406000D02*
X120729000Y-114544000D01*
X120769000Y-120439000D02*
X120769000Y-114511000D01*
X120809000Y-120471000D02*
X120809000Y-114479000D01*
X120849000Y-120503000D02*
X120849000Y-114447000D01*
X120889000Y-120533000D02*
X120889000Y-114417000D01*
X120929000Y-116435000D02*
X120929000Y-114387000D01*
X120929000Y-120563000D02*
X120929000Y-118515000D01*
X120969000Y-116435000D02*
X120969000Y-114359000D01*
X120969000Y-120591000D02*
X120969000Y-118515000D01*
X121009000Y-116435000D02*
X121009000Y-114331000D01*
X121009000Y-120619000D02*
X121009000Y-118515000D01*
X121049000Y-116435000D02*
X121049000Y-114303000D01*
X121049000Y-120647000D02*
X121049000Y-118515000D01*
X121089000Y-116435000D02*
X121089000Y-114277000D01*
X121089000Y-120673000D02*
X121089000Y-118515000D01*
X121129000Y-116435000D02*
X121129000Y-114251000D01*
X121129000Y-120699000D02*
X121129000Y-118515000D01*
X121169000Y-116435000D02*
X121169000Y-114226000D01*
X121169000Y-120724000D02*
X121169000Y-118515000D01*
X121209000Y-116435000D02*
X121209000Y-114201000D01*
X121209000Y-120749000D02*
X121209000Y-118515000D01*
X121249000Y-116435000D02*
X121249000Y-114178000D01*
X121249000Y-120772000D02*
X121249000Y-118515000D01*
X121289000Y-116435000D02*
X121289000Y-114154000D01*
X121289000Y-120796000D02*
X121289000Y-118515000D01*
X121329000Y-116435000D02*
X121329000Y-114132000D01*
X121329000Y-120818000D02*
X121329000Y-118515000D01*
X121369000Y-116435000D02*
X121369000Y-114110000D01*
X121369000Y-120840000D02*
X121369000Y-118515000D01*
X121409000Y-116435000D02*
X121409000Y-114089000D01*
X121409000Y-120861000D02*
X121409000Y-118515000D01*
X121449000Y-116435000D02*
X121449000Y-114068000D01*
X121449000Y-120882000D02*
X121449000Y-118515000D01*
X121489000Y-116435000D02*
X121489000Y-114048000D01*
X121489000Y-120902000D02*
X121489000Y-118515000D01*
X121529000Y-116435000D02*
X121529000Y-114028000D01*
X121529000Y-120922000D02*
X121529000Y-118515000D01*
X121569000Y-116435000D02*
X121569000Y-114009000D01*
X121569000Y-120941000D02*
X121569000Y-118515000D01*
X121609000Y-116435000D02*
X121609000Y-113991000D01*
X121609000Y-120959000D02*
X121609000Y-118515000D01*
X121649000Y-116435000D02*
X121649000Y-113973000D01*
X121649000Y-120977000D02*
X121649000Y-118515000D01*
X121689000Y-116435000D02*
X121689000Y-113955000D01*
X121689000Y-120995000D02*
X121689000Y-118515000D01*
X121729000Y-116435000D02*
X121729000Y-113939000D01*
X121729000Y-121011000D02*
X121729000Y-118515000D01*
X121769000Y-116435000D02*
X121769000Y-113922000D01*
X121769000Y-121028000D02*
X121769000Y-118515000D01*
X121809000Y-116435000D02*
X121809000Y-113907000D01*
X121809000Y-121043000D02*
X121809000Y-118515000D01*
X121849000Y-116435000D02*
X121849000Y-113891000D01*
X121849000Y-121059000D02*
X121849000Y-118515000D01*
X121889000Y-116435000D02*
X121889000Y-113877000D01*
X121889000Y-121073000D02*
X121889000Y-118515000D01*
X121929000Y-116435000D02*
X121929000Y-113862000D01*
X121929000Y-121088000D02*
X121929000Y-118515000D01*
X121969000Y-116435000D02*
X121969000Y-113849000D01*
X121969000Y-121101000D02*
X121969000Y-118515000D01*
X122009000Y-116435000D02*
X122009000Y-113835000D01*
X122009000Y-121115000D02*
X122009000Y-118515000D01*
X122049000Y-116435000D02*
X122049000Y-113822000D01*
X122049000Y-121128000D02*
X122049000Y-118515000D01*
X122089000Y-116435000D02*
X122089000Y-113810000D01*
X122089000Y-121140000D02*
X122089000Y-118515000D01*
X122129000Y-116435000D02*
X122129000Y-113798000D01*
X122129000Y-121152000D02*
X122129000Y-118515000D01*
X122169000Y-116435000D02*
X122169000Y-113787000D01*
X122169000Y-121163000D02*
X122169000Y-118515000D01*
X122209000Y-116435000D02*
X122209000Y-113776000D01*
X122209000Y-121174000D02*
X122209000Y-118515000D01*
X122249000Y-116435000D02*
X122249000Y-113765000D01*
X122249000Y-121185000D02*
X122249000Y-118515000D01*
X122289000Y-116435000D02*
X122289000Y-113755000D01*
X122289000Y-121195000D02*
X122289000Y-118515000D01*
X122329000Y-116435000D02*
X122329000Y-113746000D01*
X122329000Y-121204000D02*
X122329000Y-118515000D01*
X122369000Y-116435000D02*
X122369000Y-113737000D01*
X122369000Y-121213000D02*
X122369000Y-118515000D01*
X122409000Y-116435000D02*
X122409000Y-113728000D01*
X122409000Y-121222000D02*
X122409000Y-118515000D01*
X122449000Y-116435000D02*
X122449000Y-113720000D01*
X122449000Y-121230000D02*
X122449000Y-118515000D01*
X122489000Y-116435000D02*
X122489000Y-113712000D01*
X122489000Y-121238000D02*
X122489000Y-118515000D01*
X122530000Y-116435000D02*
X122530000Y-113705000D01*
X122530000Y-121245000D02*
X122530000Y-118515000D01*
X122570000Y-116435000D02*
X122570000Y-113698000D01*
X122570000Y-121252000D02*
X122570000Y-118515000D01*
X122610000Y-116435000D02*
X122610000Y-113691000D01*
X122610000Y-121259000D02*
X122610000Y-118515000D01*
X122650000Y-116435000D02*
X122650000Y-113685000D01*
X122650000Y-121265000D02*
X122650000Y-118515000D01*
X122690000Y-116435000D02*
X122690000Y-113680000D01*
X122690000Y-121270000D02*
X122690000Y-118515000D01*
X122730000Y-116435000D02*
X122730000Y-113674000D01*
X122730000Y-121276000D02*
X122730000Y-118515000D01*
X122770000Y-116435000D02*
X122770000Y-113670000D01*
X122770000Y-121280000D02*
X122770000Y-118515000D01*
X122810000Y-116435000D02*
X122810000Y-113665000D01*
X122810000Y-121285000D02*
X122810000Y-118515000D01*
X122850000Y-116435000D02*
X122850000Y-113661000D01*
X122850000Y-121289000D02*
X122850000Y-118515000D01*
X122890000Y-116435000D02*
X122890000Y-113658000D01*
X122890000Y-121292000D02*
X122890000Y-118515000D01*
X122930000Y-116435000D02*
X122930000Y-113655000D01*
X122930000Y-121295000D02*
X122930000Y-118515000D01*
X122970000Y-116435000D02*
X122970000Y-113652000D01*
X122970000Y-121298000D02*
X122970000Y-118515000D01*
X123010000Y-121300000D02*
X123010000Y-113650000D01*
X123050000Y-121302000D02*
X123050000Y-113648000D01*
X123090000Y-121304000D02*
X123090000Y-113646000D01*
X123130000Y-121305000D02*
X123130000Y-113645000D01*
X123170000Y-121305000D02*
X123170000Y-113645000D01*
X123210000Y-121305000D02*
X123210000Y-113645000D01*
X126977211Y-120025000D02*
X126977211Y-119275000D01*
X127352211Y-119650000D02*
X126602211Y-119650000D01*
X127080000Y-117475000D02*
G75*
G02*
X119340000Y-117475000I-3870000J0D01*
G01*
X119340000Y-117475000D02*
G75*
G02*
X127080000Y-117475000I3870000J0D01*
G01*
X94815000Y-76470000D02*
X94815000Y-81010000D01*
X94830000Y-76470000D02*
X94815000Y-76470000D01*
X94830000Y-81010000D02*
X94815000Y-81010000D01*
X96955000Y-76470000D02*
X96940000Y-76470000D01*
X96955000Y-76470000D02*
X96955000Y-81010000D01*
X96955000Y-81010000D02*
X96940000Y-81010000D01*
X202765000Y-65040000D02*
X202765000Y-69580000D01*
X202780000Y-65040000D02*
X202765000Y-65040000D01*
X202780000Y-69580000D02*
X202765000Y-69580000D01*
X204905000Y-65040000D02*
X204890000Y-65040000D01*
X204905000Y-65040000D02*
X204905000Y-69580000D01*
X204905000Y-69580000D02*
X204890000Y-69580000D01*
X102465000Y-77730000D02*
X99682000Y-77730000D01*
X102465000Y-77770000D02*
X99685000Y-77770000D01*
X102465000Y-77810000D02*
X99688000Y-77810000D01*
X102465000Y-77850000D02*
X99691000Y-77850000D01*
X102465000Y-77890000D02*
X99695000Y-77890000D01*
X102465000Y-77930000D02*
X99700000Y-77930000D01*
X102465000Y-77970000D02*
X99704000Y-77970000D01*
X102465000Y-78010000D02*
X99710000Y-78010000D01*
X102465000Y-78050000D02*
X99715000Y-78050000D01*
X102465000Y-78090000D02*
X99721000Y-78090000D01*
X102465000Y-78130000D02*
X99728000Y-78130000D01*
X102465000Y-78170000D02*
X99735000Y-78170000D01*
X102465000Y-78211000D02*
X99742000Y-78211000D01*
X102465000Y-78251000D02*
X99750000Y-78251000D01*
X102465000Y-78291000D02*
X99758000Y-78291000D01*
X102465000Y-78331000D02*
X99767000Y-78331000D01*
X102465000Y-78371000D02*
X99776000Y-78371000D01*
X102465000Y-78411000D02*
X99785000Y-78411000D01*
X102465000Y-78451000D02*
X99795000Y-78451000D01*
X102465000Y-78491000D02*
X99806000Y-78491000D01*
X102465000Y-78531000D02*
X99817000Y-78531000D01*
X102465000Y-78571000D02*
X99828000Y-78571000D01*
X102465000Y-78611000D02*
X99840000Y-78611000D01*
X102465000Y-78651000D02*
X99852000Y-78651000D01*
X102465000Y-78691000D02*
X99865000Y-78691000D01*
X102465000Y-78731000D02*
X99879000Y-78731000D01*
X102465000Y-78771000D02*
X99892000Y-78771000D01*
X102465000Y-78811000D02*
X99907000Y-78811000D01*
X102465000Y-78851000D02*
X99921000Y-78851000D01*
X102465000Y-78891000D02*
X99937000Y-78891000D01*
X102465000Y-78931000D02*
X99952000Y-78931000D01*
X102465000Y-78971000D02*
X99969000Y-78971000D01*
X102465000Y-79011000D02*
X99985000Y-79011000D01*
X102465000Y-79051000D02*
X100003000Y-79051000D01*
X102465000Y-79091000D02*
X100021000Y-79091000D01*
X102465000Y-79131000D02*
X100039000Y-79131000D01*
X102465000Y-79171000D02*
X100058000Y-79171000D01*
X102465000Y-79211000D02*
X100078000Y-79211000D01*
X102465000Y-79251000D02*
X100098000Y-79251000D01*
X102465000Y-79291000D02*
X100119000Y-79291000D01*
X102465000Y-79331000D02*
X100140000Y-79331000D01*
X102465000Y-79371000D02*
X100162000Y-79371000D01*
X102465000Y-79411000D02*
X100184000Y-79411000D01*
X102465000Y-79451000D02*
X100208000Y-79451000D01*
X102465000Y-79491000D02*
X100231000Y-79491000D01*
X102465000Y-79531000D02*
X100256000Y-79531000D01*
X102465000Y-79571000D02*
X100281000Y-79571000D01*
X102465000Y-79611000D02*
X100307000Y-79611000D01*
X102465000Y-79651000D02*
X100333000Y-79651000D01*
X102465000Y-79691000D02*
X100361000Y-79691000D01*
X102465000Y-79731000D02*
X100389000Y-79731000D01*
X102465000Y-79771000D02*
X100417000Y-79771000D01*
X103946000Y-81331000D02*
X103064000Y-81331000D01*
X104198000Y-81291000D02*
X102812000Y-81291000D01*
X104382000Y-81251000D02*
X102628000Y-81251000D01*
X104533000Y-81211000D02*
X102477000Y-81211000D01*
X104663000Y-81171000D02*
X102347000Y-81171000D01*
X104780000Y-81131000D02*
X102230000Y-81131000D01*
X104886000Y-81091000D02*
X102124000Y-81091000D01*
X104983000Y-81051000D02*
X102027000Y-81051000D01*
X105074000Y-81011000D02*
X101936000Y-81011000D01*
X105159000Y-80971000D02*
X101851000Y-80971000D01*
X105238000Y-80931000D02*
X101772000Y-80931000D01*
X105314000Y-80891000D02*
X101696000Y-80891000D01*
X105386000Y-80851000D02*
X101624000Y-80851000D01*
X105454000Y-80811000D02*
X101556000Y-80811000D01*
X105519000Y-80771000D02*
X101491000Y-80771000D01*
X105582000Y-80731000D02*
X101428000Y-80731000D01*
X105642000Y-80691000D02*
X101368000Y-80691000D01*
X105680000Y-73347789D02*
X105680000Y-74097789D01*
X105700000Y-80651000D02*
X101310000Y-80651000D01*
X105755000Y-80611000D02*
X101255000Y-80611000D01*
X105809000Y-80571000D02*
X101201000Y-80571000D01*
X105860000Y-80531000D02*
X101150000Y-80531000D01*
X105910000Y-80491000D02*
X101100000Y-80491000D01*
X105959000Y-80451000D02*
X101051000Y-80451000D01*
X106005000Y-80411000D02*
X101005000Y-80411000D01*
X106051000Y-80371000D02*
X100959000Y-80371000D01*
X106055000Y-73722789D02*
X105305000Y-73722789D01*
X106094000Y-80331000D02*
X100916000Y-80331000D01*
X106137000Y-80291000D02*
X100873000Y-80291000D01*
X106178000Y-80251000D02*
X100832000Y-80251000D01*
X106218000Y-80211000D02*
X100792000Y-80211000D01*
X106257000Y-80171000D02*
X100753000Y-80171000D01*
X106295000Y-80131000D02*
X100715000Y-80131000D01*
X106332000Y-80091000D02*
X100678000Y-80091000D01*
X106368000Y-80051000D02*
X100642000Y-80051000D01*
X106403000Y-80011000D02*
X100607000Y-80011000D01*
X106436000Y-79971000D02*
X100574000Y-79971000D01*
X106469000Y-79931000D02*
X100541000Y-79931000D01*
X106501000Y-79891000D02*
X100509000Y-79891000D01*
X106533000Y-79851000D02*
X100477000Y-79851000D01*
X106563000Y-79811000D02*
X100447000Y-79811000D01*
X106593000Y-79771000D02*
X104545000Y-79771000D01*
X106621000Y-79731000D02*
X104545000Y-79731000D01*
X106649000Y-79691000D02*
X104545000Y-79691000D01*
X106677000Y-79651000D02*
X104545000Y-79651000D01*
X106703000Y-79611000D02*
X104545000Y-79611000D01*
X106729000Y-79571000D02*
X104545000Y-79571000D01*
X106754000Y-79531000D02*
X104545000Y-79531000D01*
X106779000Y-79491000D02*
X104545000Y-79491000D01*
X106802000Y-79451000D02*
X104545000Y-79451000D01*
X106826000Y-79411000D02*
X104545000Y-79411000D01*
X106848000Y-79371000D02*
X104545000Y-79371000D01*
X106870000Y-79331000D02*
X104545000Y-79331000D01*
X106891000Y-79291000D02*
X104545000Y-79291000D01*
X106912000Y-79251000D02*
X104545000Y-79251000D01*
X106932000Y-79211000D02*
X104545000Y-79211000D01*
X106952000Y-79171000D02*
X104545000Y-79171000D01*
X106971000Y-79131000D02*
X104545000Y-79131000D01*
X106989000Y-79091000D02*
X104545000Y-79091000D01*
X107007000Y-79051000D02*
X104545000Y-79051000D01*
X107025000Y-79011000D02*
X104545000Y-79011000D01*
X107041000Y-78971000D02*
X104545000Y-78971000D01*
X107058000Y-78931000D02*
X104545000Y-78931000D01*
X107073000Y-78891000D02*
X104545000Y-78891000D01*
X107089000Y-78851000D02*
X104545000Y-78851000D01*
X107103000Y-78811000D02*
X104545000Y-78811000D01*
X107118000Y-78771000D02*
X104545000Y-78771000D01*
X107131000Y-78731000D02*
X104545000Y-78731000D01*
X107145000Y-78691000D02*
X104545000Y-78691000D01*
X107158000Y-78651000D02*
X104545000Y-78651000D01*
X107170000Y-78611000D02*
X104545000Y-78611000D01*
X107182000Y-78571000D02*
X104545000Y-78571000D01*
X107193000Y-78531000D02*
X104545000Y-78531000D01*
X107204000Y-78491000D02*
X104545000Y-78491000D01*
X107215000Y-78451000D02*
X104545000Y-78451000D01*
X107225000Y-78411000D02*
X104545000Y-78411000D01*
X107234000Y-78371000D02*
X104545000Y-78371000D01*
X107243000Y-78331000D02*
X104545000Y-78331000D01*
X107252000Y-78291000D02*
X104545000Y-78291000D01*
X107260000Y-78251000D02*
X104545000Y-78251000D01*
X107268000Y-78211000D02*
X104545000Y-78211000D01*
X107275000Y-78170000D02*
X104545000Y-78170000D01*
X107282000Y-78130000D02*
X104545000Y-78130000D01*
X107289000Y-78090000D02*
X104545000Y-78090000D01*
X107295000Y-78050000D02*
X104545000Y-78050000D01*
X107300000Y-78010000D02*
X104545000Y-78010000D01*
X107306000Y-77970000D02*
X104545000Y-77970000D01*
X107310000Y-77930000D02*
X104545000Y-77930000D01*
X107315000Y-77890000D02*
X104545000Y-77890000D01*
X107319000Y-77850000D02*
X104545000Y-77850000D01*
X107322000Y-77810000D02*
X104545000Y-77810000D01*
X107325000Y-77770000D02*
X104545000Y-77770000D01*
X107328000Y-77730000D02*
X104545000Y-77730000D01*
X107330000Y-77690000D02*
X99680000Y-77690000D01*
X107332000Y-77650000D02*
X99678000Y-77650000D01*
X107334000Y-77610000D02*
X99676000Y-77610000D01*
X107335000Y-77490000D02*
X99675000Y-77490000D01*
X107335000Y-77530000D02*
X99675000Y-77530000D01*
X107335000Y-77570000D02*
X99675000Y-77570000D01*
X107375000Y-77490000D02*
G75*
G02*
X99635000Y-77490000I-3870000J0D01*
G01*
X99635000Y-77490000D02*
G75*
G02*
X107375000Y-77490000I3870000J0D01*
G01*
X207845000Y-110125000D02*
X207845000Y-114665000D01*
X207860000Y-110125000D02*
X207845000Y-110125000D01*
X207860000Y-114665000D02*
X207845000Y-114665000D01*
X209985000Y-110125000D02*
X209970000Y-110125000D01*
X209985000Y-110125000D02*
X209985000Y-114665000D01*
X209985000Y-114665000D02*
X209970000Y-114665000D01*
X200005000Y-78005000D02*
X207665000Y-78005000D01*
X200005000Y-78045000D02*
X207665000Y-78045000D01*
X200005000Y-78085000D02*
X207665000Y-78085000D01*
X200006000Y-77965000D02*
X207664000Y-77965000D01*
X200008000Y-77925000D02*
X207662000Y-77925000D01*
X200010000Y-77885000D02*
X207660000Y-77885000D01*
X200012000Y-77845000D02*
X202795000Y-77845000D01*
X200015000Y-77805000D02*
X202795000Y-77805000D01*
X200018000Y-77765000D02*
X202795000Y-77765000D01*
X200021000Y-77725000D02*
X202795000Y-77725000D01*
X200025000Y-77685000D02*
X202795000Y-77685000D01*
X200030000Y-77645000D02*
X202795000Y-77645000D01*
X200034000Y-77605000D02*
X202795000Y-77605000D01*
X200040000Y-77565000D02*
X202795000Y-77565000D01*
X200045000Y-77525000D02*
X202795000Y-77525000D01*
X200051000Y-77485000D02*
X202795000Y-77485000D01*
X200058000Y-77445000D02*
X202795000Y-77445000D01*
X200065000Y-77405000D02*
X202795000Y-77405000D01*
X200072000Y-77364000D02*
X202795000Y-77364000D01*
X200080000Y-77324000D02*
X202795000Y-77324000D01*
X200088000Y-77284000D02*
X202795000Y-77284000D01*
X200097000Y-77244000D02*
X202795000Y-77244000D01*
X200106000Y-77204000D02*
X202795000Y-77204000D01*
X200115000Y-77164000D02*
X202795000Y-77164000D01*
X200125000Y-77124000D02*
X202795000Y-77124000D01*
X200136000Y-77084000D02*
X202795000Y-77084000D01*
X200147000Y-77044000D02*
X202795000Y-77044000D01*
X200158000Y-77004000D02*
X202795000Y-77004000D01*
X200170000Y-76964000D02*
X202795000Y-76964000D01*
X200182000Y-76924000D02*
X202795000Y-76924000D01*
X200195000Y-76884000D02*
X202795000Y-76884000D01*
X200209000Y-76844000D02*
X202795000Y-76844000D01*
X200222000Y-76804000D02*
X202795000Y-76804000D01*
X200237000Y-76764000D02*
X202795000Y-76764000D01*
X200251000Y-76724000D02*
X202795000Y-76724000D01*
X200267000Y-76684000D02*
X202795000Y-76684000D01*
X200282000Y-76644000D02*
X202795000Y-76644000D01*
X200299000Y-76604000D02*
X202795000Y-76604000D01*
X200315000Y-76564000D02*
X202795000Y-76564000D01*
X200333000Y-76524000D02*
X202795000Y-76524000D01*
X200351000Y-76484000D02*
X202795000Y-76484000D01*
X200369000Y-76444000D02*
X202795000Y-76444000D01*
X200388000Y-76404000D02*
X202795000Y-76404000D01*
X200408000Y-76364000D02*
X202795000Y-76364000D01*
X200428000Y-76324000D02*
X202795000Y-76324000D01*
X200449000Y-76284000D02*
X202795000Y-76284000D01*
X200470000Y-76244000D02*
X202795000Y-76244000D01*
X200492000Y-76204000D02*
X202795000Y-76204000D01*
X200514000Y-76164000D02*
X202795000Y-76164000D01*
X200538000Y-76124000D02*
X202795000Y-76124000D01*
X200561000Y-76084000D02*
X202795000Y-76084000D01*
X200586000Y-76044000D02*
X202795000Y-76044000D01*
X200611000Y-76004000D02*
X202795000Y-76004000D01*
X200637000Y-75964000D02*
X202795000Y-75964000D01*
X200663000Y-75924000D02*
X202795000Y-75924000D01*
X200691000Y-75884000D02*
X202795000Y-75884000D01*
X200719000Y-75844000D02*
X202795000Y-75844000D01*
X200747000Y-75804000D02*
X202795000Y-75804000D01*
X200777000Y-75764000D02*
X206893000Y-75764000D01*
X200807000Y-75724000D02*
X206863000Y-75724000D01*
X200839000Y-75684000D02*
X206831000Y-75684000D01*
X200871000Y-75644000D02*
X206799000Y-75644000D01*
X200904000Y-75604000D02*
X206766000Y-75604000D01*
X200937000Y-75564000D02*
X206733000Y-75564000D01*
X200972000Y-75524000D02*
X206698000Y-75524000D01*
X201008000Y-75484000D02*
X206662000Y-75484000D01*
X201045000Y-75444000D02*
X206625000Y-75444000D01*
X201083000Y-75404000D02*
X206587000Y-75404000D01*
X201122000Y-75364000D02*
X206548000Y-75364000D01*
X201162000Y-75324000D02*
X206508000Y-75324000D01*
X201203000Y-75284000D02*
X206467000Y-75284000D01*
X201246000Y-75244000D02*
X206424000Y-75244000D01*
X201285000Y-81852211D02*
X202035000Y-81852211D01*
X201289000Y-75204000D02*
X206381000Y-75204000D01*
X201335000Y-75164000D02*
X206335000Y-75164000D01*
X201381000Y-75124000D02*
X206289000Y-75124000D01*
X201430000Y-75084000D02*
X206240000Y-75084000D01*
X201480000Y-75044000D02*
X206190000Y-75044000D01*
X201531000Y-75004000D02*
X206139000Y-75004000D01*
X201585000Y-74964000D02*
X206085000Y-74964000D01*
X201640000Y-74924000D02*
X206030000Y-74924000D01*
X201660000Y-82227211D02*
X201660000Y-81477211D01*
X201698000Y-74884000D02*
X205972000Y-74884000D01*
X201758000Y-74844000D02*
X205912000Y-74844000D01*
X201821000Y-74804000D02*
X205849000Y-74804000D01*
X201886000Y-74764000D02*
X205784000Y-74764000D01*
X201954000Y-74724000D02*
X205716000Y-74724000D01*
X202026000Y-74684000D02*
X205644000Y-74684000D01*
X202102000Y-74644000D02*
X205568000Y-74644000D01*
X202181000Y-74604000D02*
X205489000Y-74604000D01*
X202266000Y-74564000D02*
X205404000Y-74564000D01*
X202357000Y-74524000D02*
X205313000Y-74524000D01*
X202454000Y-74484000D02*
X205216000Y-74484000D01*
X202560000Y-74444000D02*
X205110000Y-74444000D01*
X202677000Y-74404000D02*
X204993000Y-74404000D01*
X202807000Y-74364000D02*
X204863000Y-74364000D01*
X202958000Y-74324000D02*
X204712000Y-74324000D01*
X203142000Y-74284000D02*
X204528000Y-74284000D01*
X203394000Y-74244000D02*
X204276000Y-74244000D01*
X204875000Y-75804000D02*
X206923000Y-75804000D01*
X204875000Y-75844000D02*
X206951000Y-75844000D01*
X204875000Y-75884000D02*
X206979000Y-75884000D01*
X204875000Y-75924000D02*
X207007000Y-75924000D01*
X204875000Y-75964000D02*
X207033000Y-75964000D01*
X204875000Y-76004000D02*
X207059000Y-76004000D01*
X204875000Y-76044000D02*
X207084000Y-76044000D01*
X204875000Y-76084000D02*
X207109000Y-76084000D01*
X204875000Y-76124000D02*
X207132000Y-76124000D01*
X204875000Y-76164000D02*
X207156000Y-76164000D01*
X204875000Y-76204000D02*
X207178000Y-76204000D01*
X204875000Y-76244000D02*
X207200000Y-76244000D01*
X204875000Y-76284000D02*
X207221000Y-76284000D01*
X204875000Y-76324000D02*
X207242000Y-76324000D01*
X204875000Y-76364000D02*
X207262000Y-76364000D01*
X204875000Y-76404000D02*
X207282000Y-76404000D01*
X204875000Y-76444000D02*
X207301000Y-76444000D01*
X204875000Y-76484000D02*
X207319000Y-76484000D01*
X204875000Y-76524000D02*
X207337000Y-76524000D01*
X204875000Y-76564000D02*
X207355000Y-76564000D01*
X204875000Y-76604000D02*
X207371000Y-76604000D01*
X204875000Y-76644000D02*
X207388000Y-76644000D01*
X204875000Y-76684000D02*
X207403000Y-76684000D01*
X204875000Y-76724000D02*
X207419000Y-76724000D01*
X204875000Y-76764000D02*
X207433000Y-76764000D01*
X204875000Y-76804000D02*
X207448000Y-76804000D01*
X204875000Y-76844000D02*
X207461000Y-76844000D01*
X204875000Y-76884000D02*
X207475000Y-76884000D01*
X204875000Y-76924000D02*
X207488000Y-76924000D01*
X204875000Y-76964000D02*
X207500000Y-76964000D01*
X204875000Y-77004000D02*
X207512000Y-77004000D01*
X204875000Y-77044000D02*
X207523000Y-77044000D01*
X204875000Y-77084000D02*
X207534000Y-77084000D01*
X204875000Y-77124000D02*
X207545000Y-77124000D01*
X204875000Y-77164000D02*
X207555000Y-77164000D01*
X204875000Y-77204000D02*
X207564000Y-77204000D01*
X204875000Y-77244000D02*
X207573000Y-77244000D01*
X204875000Y-77284000D02*
X207582000Y-77284000D01*
X204875000Y-77324000D02*
X207590000Y-77324000D01*
X204875000Y-77364000D02*
X207598000Y-77364000D01*
X204875000Y-77405000D02*
X207605000Y-77405000D01*
X204875000Y-77445000D02*
X207612000Y-77445000D01*
X204875000Y-77485000D02*
X207619000Y-77485000D01*
X204875000Y-77525000D02*
X207625000Y-77525000D01*
X204875000Y-77565000D02*
X207630000Y-77565000D01*
X204875000Y-77605000D02*
X207636000Y-77605000D01*
X204875000Y-77645000D02*
X207640000Y-77645000D01*
X204875000Y-77685000D02*
X207645000Y-77685000D01*
X204875000Y-77725000D02*
X207649000Y-77725000D01*
X204875000Y-77765000D02*
X207652000Y-77765000D01*
X204875000Y-77805000D02*
X207655000Y-77805000D01*
X204875000Y-77845000D02*
X207658000Y-77845000D01*
X207705000Y-78085000D02*
G75*
G02*
X199965000Y-78085000I-3870000J0D01*
G01*
X199965000Y-78085000D02*
G75*
G02*
X207705000Y-78085000I3870000J0D01*
G01*
X195540000Y-106260000D02*
X195540000Y-110901000D01*
X195540000Y-106260000D02*
X205780000Y-106260000D01*
X195540000Y-107770000D02*
X205780000Y-107770000D01*
X195540000Y-110901000D02*
X205780000Y-110901000D01*
X198810000Y-106260000D02*
X198810000Y-107770000D01*
X202511000Y-106260000D02*
X202511000Y-107770000D01*
X205780000Y-106260000D02*
X205780000Y-110901000D01*
X144769000Y-118551000D02*
X144769000Y-117669000D01*
X144809000Y-118803000D02*
X144809000Y-117417000D01*
X144849000Y-118987000D02*
X144849000Y-117233000D01*
X144889000Y-119138000D02*
X144889000Y-117082000D01*
X144929000Y-119268000D02*
X144929000Y-116952000D01*
X144969000Y-119385000D02*
X144969000Y-116835000D01*
X145009000Y-119491000D02*
X145009000Y-116729000D01*
X145049000Y-119588000D02*
X145049000Y-116632000D01*
X145089000Y-119679000D02*
X145089000Y-116541000D01*
X145129000Y-119764000D02*
X145129000Y-116456000D01*
X145169000Y-119843000D02*
X145169000Y-116377000D01*
X145209000Y-119919000D02*
X145209000Y-116301000D01*
X145249000Y-119991000D02*
X145249000Y-116229000D01*
X145289000Y-120059000D02*
X145289000Y-116161000D01*
X145329000Y-120124000D02*
X145329000Y-116096000D01*
X145369000Y-120187000D02*
X145369000Y-116033000D01*
X145409000Y-120247000D02*
X145409000Y-115973000D01*
X145449000Y-120305000D02*
X145449000Y-115915000D01*
X145489000Y-120360000D02*
X145489000Y-115860000D01*
X145529000Y-120414000D02*
X145529000Y-115806000D01*
X145569000Y-120465000D02*
X145569000Y-115755000D01*
X145609000Y-120515000D02*
X145609000Y-115705000D01*
X145649000Y-120564000D02*
X145649000Y-115656000D01*
X145689000Y-120610000D02*
X145689000Y-115610000D01*
X145729000Y-120656000D02*
X145729000Y-115564000D01*
X145769000Y-120699000D02*
X145769000Y-115521000D01*
X145809000Y-120742000D02*
X145809000Y-115478000D01*
X145849000Y-120783000D02*
X145849000Y-115437000D01*
X145889000Y-120823000D02*
X145889000Y-115397000D01*
X145929000Y-120862000D02*
X145929000Y-115358000D01*
X145969000Y-120900000D02*
X145969000Y-115320000D01*
X146009000Y-120937000D02*
X146009000Y-115283000D01*
X146049000Y-120973000D02*
X146049000Y-115247000D01*
X146089000Y-121008000D02*
X146089000Y-115212000D01*
X146129000Y-121041000D02*
X146129000Y-115179000D01*
X146169000Y-121074000D02*
X146169000Y-115146000D01*
X146209000Y-121106000D02*
X146209000Y-115114000D01*
X146249000Y-121138000D02*
X146249000Y-115082000D01*
X146289000Y-121168000D02*
X146289000Y-115052000D01*
X146329000Y-117070000D02*
X146329000Y-115022000D01*
X146329000Y-121198000D02*
X146329000Y-119150000D01*
X146369000Y-117070000D02*
X146369000Y-114994000D01*
X146369000Y-121226000D02*
X146369000Y-119150000D01*
X146409000Y-117070000D02*
X146409000Y-114966000D01*
X146409000Y-121254000D02*
X146409000Y-119150000D01*
X146449000Y-117070000D02*
X146449000Y-114938000D01*
X146449000Y-121282000D02*
X146449000Y-119150000D01*
X146489000Y-117070000D02*
X146489000Y-114912000D01*
X146489000Y-121308000D02*
X146489000Y-119150000D01*
X146529000Y-117070000D02*
X146529000Y-114886000D01*
X146529000Y-121334000D02*
X146529000Y-119150000D01*
X146569000Y-117070000D02*
X146569000Y-114861000D01*
X146569000Y-121359000D02*
X146569000Y-119150000D01*
X146609000Y-117070000D02*
X146609000Y-114836000D01*
X146609000Y-121384000D02*
X146609000Y-119150000D01*
X146649000Y-117070000D02*
X146649000Y-114813000D01*
X146649000Y-121407000D02*
X146649000Y-119150000D01*
X146689000Y-117070000D02*
X146689000Y-114789000D01*
X146689000Y-121431000D02*
X146689000Y-119150000D01*
X146729000Y-117070000D02*
X146729000Y-114767000D01*
X146729000Y-121453000D02*
X146729000Y-119150000D01*
X146769000Y-117070000D02*
X146769000Y-114745000D01*
X146769000Y-121475000D02*
X146769000Y-119150000D01*
X146809000Y-117070000D02*
X146809000Y-114724000D01*
X146809000Y-121496000D02*
X146809000Y-119150000D01*
X146849000Y-117070000D02*
X146849000Y-114703000D01*
X146849000Y-121517000D02*
X146849000Y-119150000D01*
X146889000Y-117070000D02*
X146889000Y-114683000D01*
X146889000Y-121537000D02*
X146889000Y-119150000D01*
X146929000Y-117070000D02*
X146929000Y-114663000D01*
X146929000Y-121557000D02*
X146929000Y-119150000D01*
X146969000Y-117070000D02*
X146969000Y-114644000D01*
X146969000Y-121576000D02*
X146969000Y-119150000D01*
X147009000Y-117070000D02*
X147009000Y-114626000D01*
X147009000Y-121594000D02*
X147009000Y-119150000D01*
X147049000Y-117070000D02*
X147049000Y-114608000D01*
X147049000Y-121612000D02*
X147049000Y-119150000D01*
X147089000Y-117070000D02*
X147089000Y-114590000D01*
X147089000Y-121630000D02*
X147089000Y-119150000D01*
X147129000Y-117070000D02*
X147129000Y-114574000D01*
X147129000Y-121646000D02*
X147129000Y-119150000D01*
X147169000Y-117070000D02*
X147169000Y-114557000D01*
X147169000Y-121663000D02*
X147169000Y-119150000D01*
X147209000Y-117070000D02*
X147209000Y-114542000D01*
X147209000Y-121678000D02*
X147209000Y-119150000D01*
X147249000Y-117070000D02*
X147249000Y-114526000D01*
X147249000Y-121694000D02*
X147249000Y-119150000D01*
X147289000Y-117070000D02*
X147289000Y-114512000D01*
X147289000Y-121708000D02*
X147289000Y-119150000D01*
X147329000Y-117070000D02*
X147329000Y-114497000D01*
X147329000Y-121723000D02*
X147329000Y-119150000D01*
X147369000Y-117070000D02*
X147369000Y-114484000D01*
X147369000Y-121736000D02*
X147369000Y-119150000D01*
X147409000Y-117070000D02*
X147409000Y-114470000D01*
X147409000Y-121750000D02*
X147409000Y-119150000D01*
X147449000Y-117070000D02*
X147449000Y-114457000D01*
X147449000Y-121763000D02*
X147449000Y-119150000D01*
X147489000Y-117070000D02*
X147489000Y-114445000D01*
X147489000Y-121775000D02*
X147489000Y-119150000D01*
X147529000Y-117070000D02*
X147529000Y-114433000D01*
X147529000Y-121787000D02*
X147529000Y-119150000D01*
X147569000Y-117070000D02*
X147569000Y-114422000D01*
X147569000Y-121798000D02*
X147569000Y-119150000D01*
X147609000Y-117070000D02*
X147609000Y-114411000D01*
X147609000Y-121809000D02*
X147609000Y-119150000D01*
X147649000Y-117070000D02*
X147649000Y-114400000D01*
X147649000Y-121820000D02*
X147649000Y-119150000D01*
X147689000Y-117070000D02*
X147689000Y-114390000D01*
X147689000Y-121830000D02*
X147689000Y-119150000D01*
X147729000Y-117070000D02*
X147729000Y-114381000D01*
X147729000Y-121839000D02*
X147729000Y-119150000D01*
X147769000Y-117070000D02*
X147769000Y-114372000D01*
X147769000Y-121848000D02*
X147769000Y-119150000D01*
X147809000Y-117070000D02*
X147809000Y-114363000D01*
X147809000Y-121857000D02*
X147809000Y-119150000D01*
X147849000Y-117070000D02*
X147849000Y-114355000D01*
X147849000Y-121865000D02*
X147849000Y-119150000D01*
X147889000Y-117070000D02*
X147889000Y-114347000D01*
X147889000Y-121873000D02*
X147889000Y-119150000D01*
X147930000Y-117070000D02*
X147930000Y-114340000D01*
X147930000Y-121880000D02*
X147930000Y-119150000D01*
X147970000Y-117070000D02*
X147970000Y-114333000D01*
X147970000Y-121887000D02*
X147970000Y-119150000D01*
X148010000Y-117070000D02*
X148010000Y-114326000D01*
X148010000Y-121894000D02*
X148010000Y-119150000D01*
X148050000Y-117070000D02*
X148050000Y-114320000D01*
X148050000Y-121900000D02*
X148050000Y-119150000D01*
X148090000Y-117070000D02*
X148090000Y-114315000D01*
X148090000Y-121905000D02*
X148090000Y-119150000D01*
X148130000Y-117070000D02*
X148130000Y-114309000D01*
X148130000Y-121911000D02*
X148130000Y-119150000D01*
X148170000Y-117070000D02*
X148170000Y-114305000D01*
X148170000Y-121915000D02*
X148170000Y-119150000D01*
X148210000Y-117070000D02*
X148210000Y-114300000D01*
X148210000Y-121920000D02*
X148210000Y-119150000D01*
X148250000Y-117070000D02*
X148250000Y-114296000D01*
X148250000Y-121924000D02*
X148250000Y-119150000D01*
X148290000Y-117070000D02*
X148290000Y-114293000D01*
X148290000Y-121927000D02*
X148290000Y-119150000D01*
X148330000Y-117070000D02*
X148330000Y-114290000D01*
X148330000Y-121930000D02*
X148330000Y-119150000D01*
X148370000Y-117070000D02*
X148370000Y-114287000D01*
X148370000Y-121933000D02*
X148370000Y-119150000D01*
X148410000Y-121935000D02*
X148410000Y-114285000D01*
X148450000Y-121937000D02*
X148450000Y-114283000D01*
X148490000Y-121939000D02*
X148490000Y-114281000D01*
X148530000Y-121940000D02*
X148530000Y-114280000D01*
X148570000Y-121940000D02*
X148570000Y-114280000D01*
X148610000Y-121940000D02*
X148610000Y-114280000D01*
X152377211Y-120660000D02*
X152377211Y-119910000D01*
X152752211Y-120285000D02*
X152002211Y-120285000D01*
X152480000Y-118110000D02*
G75*
G02*
X144740000Y-118110000I-3870000J0D01*
G01*
X144740000Y-118110000D02*
G75*
G02*
X152480000Y-118110000I3870000J0D01*
G01*
X182445000Y-109490000D02*
X182445000Y-114030000D01*
X182460000Y-109490000D02*
X182445000Y-109490000D01*
X182460000Y-114030000D02*
X182445000Y-114030000D01*
X184585000Y-109490000D02*
X184570000Y-109490000D01*
X184585000Y-109490000D02*
X184585000Y-114030000D01*
X184585000Y-114030000D02*
X184570000Y-114030000D01*
X145910000Y-132655000D02*
X145910000Y-135315000D01*
X151050000Y-132655000D02*
X145910000Y-132655000D01*
X151050000Y-132655000D02*
X151050000Y-135315000D01*
X151050000Y-135315000D02*
X145910000Y-135315000D01*
X152320000Y-132655000D02*
X153650000Y-132655000D01*
X153650000Y-132655000D02*
X153650000Y-133985000D01*
X212625000Y-90710000D02*
X212625000Y-97250000D01*
X212625000Y-97250000D02*
X215365000Y-97250000D01*
X213995000Y-89940000D02*
X213995000Y-90710000D01*
X213995000Y-98020000D02*
X213995000Y-97250000D01*
X215365000Y-90710000D02*
X212625000Y-90710000D01*
X215365000Y-97250000D02*
X215365000Y-90710000D01*
X144740000Y-105950000D02*
X144740000Y-110591000D01*
X144740000Y-105950000D02*
X154980000Y-105950000D01*
X144740000Y-107460000D02*
X154980000Y-107460000D01*
X144740000Y-110591000D02*
X154980000Y-110591000D01*
X148010000Y-105950000D02*
X148010000Y-107460000D01*
X151711000Y-105950000D02*
X151711000Y-107460000D01*
X154980000Y-105950000D02*
X154980000Y-110591000D01*
X97523000Y-85665000D02*
X98853000Y-85665000D01*
X97523000Y-86995000D02*
X97523000Y-85665000D01*
X97523000Y-88265000D02*
X97523000Y-90865000D01*
X97523000Y-88265000D02*
X100183000Y-88265000D01*
X97523000Y-90865000D02*
X100183000Y-90865000D01*
X100183000Y-88265000D02*
X100183000Y-90865000D01*
X191540000Y-99060000D02*
X192310000Y-99060000D01*
X192310000Y-97690000D02*
X192310000Y-100430000D01*
X192310000Y-100430000D02*
X198850000Y-100430000D01*
X198850000Y-97690000D02*
X192310000Y-97690000D01*
X198850000Y-100430000D02*
X198850000Y-97690000D01*
X199620000Y-99060000D02*
X198850000Y-99060000D01*
X119650000Y-124040000D02*
X119650000Y-124025000D01*
X119650000Y-126165000D02*
X119650000Y-126150000D01*
X124190000Y-124025000D02*
X119650000Y-124025000D01*
X124190000Y-124040000D02*
X124190000Y-124025000D01*
X124190000Y-126165000D02*
X119650000Y-126165000D01*
X124190000Y-126165000D02*
X124190000Y-126150000D01*
X95310000Y-111760000D02*
X95310000Y-114360000D01*
X92650000Y-114360000D02*
X95310000Y-114360000D01*
X92650000Y-111760000D02*
X95310000Y-111760000D01*
X92650000Y-111760000D02*
X92650000Y-114360000D01*
X92650000Y-110490000D02*
X92650000Y-109160000D01*
X92650000Y-109160000D02*
X93980000Y-109160000D01*
X192045000Y-63450000D02*
X192045000Y-73730000D01*
X192045000Y-73730000D02*
X196545000Y-73730000D01*
X193295000Y-63450000D02*
X192045000Y-63450000D01*
X196545000Y-63450000D02*
X195295000Y-63450000D01*
X196545000Y-73730000D02*
X196545000Y-63450000D01*
X195295000Y-63450000D02*
G75*
G02*
X193295000Y-63450000I-1000000J0D01*
G01*
X196710000Y-132655000D02*
X196710000Y-135315000D01*
X201850000Y-132655000D02*
X196710000Y-132655000D01*
X201850000Y-132655000D02*
X201850000Y-135315000D01*
X201850000Y-135315000D02*
X196710000Y-135315000D01*
X203120000Y-132655000D02*
X204450000Y-132655000D01*
X204450000Y-132655000D02*
X204450000Y-133985000D01*
X179975000Y-94815000D02*
X179975000Y-94830000D01*
X179975000Y-94815000D02*
X184515000Y-94815000D01*
X179975000Y-96940000D02*
X179975000Y-96955000D01*
X179975000Y-96955000D02*
X184515000Y-96955000D01*
X184515000Y-94815000D02*
X184515000Y-94830000D01*
X184515000Y-96940000D02*
X184515000Y-96955000D01*
X167840000Y-71390000D02*
X167855000Y-71390000D01*
X167840000Y-75930000D02*
X167840000Y-71390000D01*
X167840000Y-75930000D02*
X167855000Y-75930000D01*
X169965000Y-71390000D02*
X169980000Y-71390000D01*
X169965000Y-75930000D02*
X169980000Y-75930000D01*
X169980000Y-75930000D02*
X169980000Y-71390000D01*
X120510000Y-132655000D02*
X120510000Y-135315000D01*
X125650000Y-132655000D02*
X120510000Y-132655000D01*
X125650000Y-132655000D02*
X125650000Y-135315000D01*
X125650000Y-135315000D02*
X120510000Y-135315000D01*
X126920000Y-132655000D02*
X128250000Y-132655000D01*
X128250000Y-132655000D02*
X128250000Y-133985000D01*
X144550000Y-74930000D02*
X145320000Y-74930000D01*
X145320000Y-73560000D02*
X145320000Y-76300000D01*
X145320000Y-76300000D02*
X151860000Y-76300000D01*
X151860000Y-73560000D02*
X145320000Y-73560000D01*
X151860000Y-76300000D02*
X151860000Y-73560000D01*
X152630000Y-74930000D02*
X151860000Y-74930000D01*
X132915000Y-76470000D02*
X132915000Y-81010000D01*
X132930000Y-76470000D02*
X132915000Y-76470000D01*
X132930000Y-81010000D02*
X132915000Y-81010000D01*
X135055000Y-76470000D02*
X135040000Y-76470000D01*
X135055000Y-76470000D02*
X135055000Y-81010000D01*
X135055000Y-81010000D02*
X135040000Y-81010000D01*
X128675000Y-95250000D02*
X129445000Y-95250000D01*
X129445000Y-93880000D02*
X129445000Y-96620000D01*
X129445000Y-96620000D02*
X135985000Y-96620000D01*
X135985000Y-93880000D02*
X129445000Y-93880000D01*
X135985000Y-96620000D02*
X135985000Y-93880000D01*
X136755000Y-95250000D02*
X135985000Y-95250000D01*
X166140000Y-99060000D02*
X166910000Y-99060000D01*
X166910000Y-97690000D02*
X166910000Y-100430000D01*
X166910000Y-100430000D02*
X173450000Y-100430000D01*
X173450000Y-97690000D02*
X166910000Y-97690000D01*
X173450000Y-100430000D02*
X173450000Y-97690000D01*
X174220000Y-99060000D02*
X173450000Y-99060000D01*
X115340000Y-99060000D02*
X116110000Y-99060000D01*
X116110000Y-97690000D02*
X116110000Y-100430000D01*
X116110000Y-100430000D02*
X122650000Y-100430000D01*
X122650000Y-97690000D02*
X116110000Y-97690000D01*
X122650000Y-100430000D02*
X122650000Y-97690000D01*
X123420000Y-99060000D02*
X122650000Y-99060000D01*
X144550000Y-90170000D02*
X145320000Y-90170000D01*
X145320000Y-88800000D02*
X145320000Y-91540000D01*
X145320000Y-91540000D02*
X151860000Y-91540000D01*
X151860000Y-88800000D02*
X145320000Y-88800000D01*
X151860000Y-91540000D02*
X151860000Y-88800000D01*
X152630000Y-90170000D02*
X151860000Y-90170000D01*
X191540000Y-93980000D02*
X192310000Y-93980000D01*
X192310000Y-92610000D02*
X192310000Y-95350000D01*
X192310000Y-95350000D02*
X198850000Y-95350000D01*
X198850000Y-92610000D02*
X192310000Y-92610000D01*
X198850000Y-95350000D02*
X198850000Y-92610000D01*
X199620000Y-93980000D02*
X198850000Y-93980000D01*
X128675000Y-90170000D02*
X129445000Y-90170000D01*
X129445000Y-88800000D02*
X129445000Y-91540000D01*
X129445000Y-91540000D02*
X135985000Y-91540000D01*
X135985000Y-88800000D02*
X129445000Y-88800000D01*
X135985000Y-91540000D02*
X135985000Y-88800000D01*
X136755000Y-90170000D02*
X135985000Y-90170000D01*
X191540000Y-88900000D02*
X192310000Y-88900000D01*
X192310000Y-87530000D02*
X192310000Y-90270000D01*
X192310000Y-90270000D02*
X198850000Y-90270000D01*
X198850000Y-87530000D02*
X192310000Y-87530000D01*
X198850000Y-90270000D02*
X198850000Y-87530000D01*
X199620000Y-88900000D02*
X198850000Y-88900000D01*
X144550000Y-69850000D02*
X145320000Y-69850000D01*
X145320000Y-68480000D02*
X145320000Y-71220000D01*
X145320000Y-71220000D02*
X151860000Y-71220000D01*
X151860000Y-68480000D02*
X145320000Y-68480000D01*
X151860000Y-71220000D02*
X151860000Y-68480000D01*
X152630000Y-69850000D02*
X151860000Y-69850000D01*
X206910000Y-90710000D02*
X206910000Y-97250000D01*
X206910000Y-97250000D02*
X209650000Y-97250000D01*
X208280000Y-89940000D02*
X208280000Y-90710000D01*
X208280000Y-98020000D02*
X208280000Y-97250000D01*
X209650000Y-90710000D02*
X206910000Y-90710000D01*
X209650000Y-97250000D02*
X209650000Y-90710000D01*
X180570000Y-68908606D02*
X177787000Y-68908606D01*
X180570000Y-68948606D02*
X177790000Y-68948606D01*
X180570000Y-68988606D02*
X177793000Y-68988606D01*
X180570000Y-69028606D02*
X177796000Y-69028606D01*
X180570000Y-69068606D02*
X177800000Y-69068606D01*
X180570000Y-69108606D02*
X177805000Y-69108606D01*
X180570000Y-69148606D02*
X177809000Y-69148606D01*
X180570000Y-69188606D02*
X177815000Y-69188606D01*
X180570000Y-69228606D02*
X177820000Y-69228606D01*
X180570000Y-69268606D02*
X177826000Y-69268606D01*
X180570000Y-69308606D02*
X177833000Y-69308606D01*
X180570000Y-69348606D02*
X177840000Y-69348606D01*
X180570000Y-69389606D02*
X177847000Y-69389606D01*
X180570000Y-69429606D02*
X177855000Y-69429606D01*
X180570000Y-69469606D02*
X177863000Y-69469606D01*
X180570000Y-69509606D02*
X177872000Y-69509606D01*
X180570000Y-69549606D02*
X177881000Y-69549606D01*
X180570000Y-69589606D02*
X177890000Y-69589606D01*
X180570000Y-69629606D02*
X177900000Y-69629606D01*
X180570000Y-69669606D02*
X177911000Y-69669606D01*
X180570000Y-69709606D02*
X177922000Y-69709606D01*
X180570000Y-69749606D02*
X177933000Y-69749606D01*
X180570000Y-69789606D02*
X177945000Y-69789606D01*
X180570000Y-69829606D02*
X177957000Y-69829606D01*
X180570000Y-69869606D02*
X177970000Y-69869606D01*
X180570000Y-69909606D02*
X177984000Y-69909606D01*
X180570000Y-69949606D02*
X177997000Y-69949606D01*
X180570000Y-69989606D02*
X178012000Y-69989606D01*
X180570000Y-70029606D02*
X178026000Y-70029606D01*
X180570000Y-70069606D02*
X178042000Y-70069606D01*
X180570000Y-70109606D02*
X178057000Y-70109606D01*
X180570000Y-70149606D02*
X178074000Y-70149606D01*
X180570000Y-70189606D02*
X178090000Y-70189606D01*
X180570000Y-70229606D02*
X178108000Y-70229606D01*
X180570000Y-70269606D02*
X178126000Y-70269606D01*
X180570000Y-70309606D02*
X178144000Y-70309606D01*
X180570000Y-70349606D02*
X178163000Y-70349606D01*
X180570000Y-70389606D02*
X178183000Y-70389606D01*
X180570000Y-70429606D02*
X178203000Y-70429606D01*
X180570000Y-70469606D02*
X178224000Y-70469606D01*
X180570000Y-70509606D02*
X178245000Y-70509606D01*
X180570000Y-70549606D02*
X178267000Y-70549606D01*
X180570000Y-70589606D02*
X178289000Y-70589606D01*
X180570000Y-70629606D02*
X178313000Y-70629606D01*
X180570000Y-70669606D02*
X178336000Y-70669606D01*
X180570000Y-70709606D02*
X178361000Y-70709606D01*
X180570000Y-70749606D02*
X178386000Y-70749606D01*
X180570000Y-70789606D02*
X178412000Y-70789606D01*
X180570000Y-70829606D02*
X178438000Y-70829606D01*
X180570000Y-70869606D02*
X178466000Y-70869606D01*
X180570000Y-70909606D02*
X178494000Y-70909606D01*
X180570000Y-70949606D02*
X178522000Y-70949606D01*
X182051000Y-72509606D02*
X181169000Y-72509606D01*
X182303000Y-72469606D02*
X180917000Y-72469606D01*
X182487000Y-72429606D02*
X180733000Y-72429606D01*
X182638000Y-72389606D02*
X180582000Y-72389606D01*
X182768000Y-72349606D02*
X180452000Y-72349606D01*
X182885000Y-72309606D02*
X180335000Y-72309606D01*
X182991000Y-72269606D02*
X180229000Y-72269606D01*
X183088000Y-72229606D02*
X180132000Y-72229606D01*
X183179000Y-72189606D02*
X180041000Y-72189606D01*
X183264000Y-72149606D02*
X179956000Y-72149606D01*
X183343000Y-72109606D02*
X179877000Y-72109606D01*
X183419000Y-72069606D02*
X179801000Y-72069606D01*
X183491000Y-72029606D02*
X179729000Y-72029606D01*
X183559000Y-71989606D02*
X179661000Y-71989606D01*
X183624000Y-71949606D02*
X179596000Y-71949606D01*
X183687000Y-71909606D02*
X179533000Y-71909606D01*
X183747000Y-71869606D02*
X179473000Y-71869606D01*
X183785000Y-64526395D02*
X183785000Y-65276395D01*
X183805000Y-71829606D02*
X179415000Y-71829606D01*
X183860000Y-71789606D02*
X179360000Y-71789606D01*
X183914000Y-71749606D02*
X179306000Y-71749606D01*
X183965000Y-71709606D02*
X179255000Y-71709606D01*
X184015000Y-71669606D02*
X179205000Y-71669606D01*
X184064000Y-71629606D02*
X179156000Y-71629606D01*
X184110000Y-71589606D02*
X179110000Y-71589606D01*
X184156000Y-71549606D02*
X179064000Y-71549606D01*
X184160000Y-64901395D02*
X183410000Y-64901395D01*
X184199000Y-71509606D02*
X179021000Y-71509606D01*
X184242000Y-71469606D02*
X178978000Y-71469606D01*
X184283000Y-71429606D02*
X178937000Y-71429606D01*
X184323000Y-71389606D02*
X178897000Y-71389606D01*
X184362000Y-71349606D02*
X178858000Y-71349606D01*
X184400000Y-71309606D02*
X178820000Y-71309606D01*
X184437000Y-71269606D02*
X178783000Y-71269606D01*
X184473000Y-71229606D02*
X178747000Y-71229606D01*
X184508000Y-71189606D02*
X178712000Y-71189606D01*
X184541000Y-71149606D02*
X178679000Y-71149606D01*
X184574000Y-71109606D02*
X178646000Y-71109606D01*
X184606000Y-71069606D02*
X178614000Y-71069606D01*
X184638000Y-71029606D02*
X178582000Y-71029606D01*
X184668000Y-70989606D02*
X178552000Y-70989606D01*
X184698000Y-70949606D02*
X182650000Y-70949606D01*
X184726000Y-70909606D02*
X182650000Y-70909606D01*
X184754000Y-70869606D02*
X182650000Y-70869606D01*
X184782000Y-70829606D02*
X182650000Y-70829606D01*
X184808000Y-70789606D02*
X182650000Y-70789606D01*
X184834000Y-70749606D02*
X182650000Y-70749606D01*
X184859000Y-70709606D02*
X182650000Y-70709606D01*
X184884000Y-70669606D02*
X182650000Y-70669606D01*
X184907000Y-70629606D02*
X182650000Y-70629606D01*
X184931000Y-70589606D02*
X182650000Y-70589606D01*
X184953000Y-70549606D02*
X182650000Y-70549606D01*
X184975000Y-70509606D02*
X182650000Y-70509606D01*
X184996000Y-70469606D02*
X182650000Y-70469606D01*
X185017000Y-70429606D02*
X182650000Y-70429606D01*
X185037000Y-70389606D02*
X182650000Y-70389606D01*
X185057000Y-70349606D02*
X182650000Y-70349606D01*
X185076000Y-70309606D02*
X182650000Y-70309606D01*
X185094000Y-70269606D02*
X182650000Y-70269606D01*
X185112000Y-70229606D02*
X182650000Y-70229606D01*
X185130000Y-70189606D02*
X182650000Y-70189606D01*
X185146000Y-70149606D02*
X182650000Y-70149606D01*
X185163000Y-70109606D02*
X182650000Y-70109606D01*
X185178000Y-70069606D02*
X182650000Y-70069606D01*
X185194000Y-70029606D02*
X182650000Y-70029606D01*
X185208000Y-69989606D02*
X182650000Y-69989606D01*
X185223000Y-69949606D02*
X182650000Y-69949606D01*
X185236000Y-69909606D02*
X182650000Y-69909606D01*
X185250000Y-69869606D02*
X182650000Y-69869606D01*
X185263000Y-69829606D02*
X182650000Y-69829606D01*
X185275000Y-69789606D02*
X182650000Y-69789606D01*
X185287000Y-69749606D02*
X182650000Y-69749606D01*
X185298000Y-69709606D02*
X182650000Y-69709606D01*
X185309000Y-69669606D02*
X182650000Y-69669606D01*
X185320000Y-69629606D02*
X182650000Y-69629606D01*
X185330000Y-69589606D02*
X182650000Y-69589606D01*
X185339000Y-69549606D02*
X182650000Y-69549606D01*
X185348000Y-69509606D02*
X182650000Y-69509606D01*
X185357000Y-69469606D02*
X182650000Y-69469606D01*
X185365000Y-69429606D02*
X182650000Y-69429606D01*
X185373000Y-69389606D02*
X182650000Y-69389606D01*
X185380000Y-69348606D02*
X182650000Y-69348606D01*
X185387000Y-69308606D02*
X182650000Y-69308606D01*
X185394000Y-69268606D02*
X182650000Y-69268606D01*
X185400000Y-69228606D02*
X182650000Y-69228606D01*
X185405000Y-69188606D02*
X182650000Y-69188606D01*
X185411000Y-69148606D02*
X182650000Y-69148606D01*
X185415000Y-69108606D02*
X182650000Y-69108606D01*
X185420000Y-69068606D02*
X182650000Y-69068606D01*
X185424000Y-69028606D02*
X182650000Y-69028606D01*
X185427000Y-68988606D02*
X182650000Y-68988606D01*
X185430000Y-68948606D02*
X182650000Y-68948606D01*
X185433000Y-68908606D02*
X182650000Y-68908606D01*
X185435000Y-68868606D02*
X177785000Y-68868606D01*
X185437000Y-68828606D02*
X177783000Y-68828606D01*
X185439000Y-68788606D02*
X177781000Y-68788606D01*
X185440000Y-68668606D02*
X177780000Y-68668606D01*
X185440000Y-68708606D02*
X177780000Y-68708606D01*
X185440000Y-68748606D02*
X177780000Y-68748606D01*
X185480000Y-68668606D02*
G75*
G02*
X177740000Y-68668606I-3870000J0D01*
G01*
X177740000Y-68668606D02*
G75*
G02*
X185480000Y-68668606I3870000J0D01*
G01*
X131645000Y-109490000D02*
X131645000Y-114030000D01*
X131660000Y-109490000D02*
X131645000Y-109490000D01*
X131660000Y-114030000D02*
X131645000Y-114030000D01*
X133785000Y-109490000D02*
X133770000Y-109490000D01*
X133785000Y-109490000D02*
X133785000Y-114030000D01*
X133785000Y-114030000D02*
X133770000Y-114030000D01*
X119340000Y-105950000D02*
X119340000Y-110591000D01*
X119340000Y-105950000D02*
X129580000Y-105950000D01*
X119340000Y-107460000D02*
X129580000Y-107460000D01*
X119340000Y-110591000D02*
X129580000Y-110591000D01*
X122610000Y-105950000D02*
X122610000Y-107460000D01*
X126311000Y-105950000D02*
X126311000Y-107460000D01*
X129580000Y-105950000D02*
X129580000Y-110591000D01*
X144550000Y-64770000D02*
X145320000Y-64770000D01*
X145320000Y-63400000D02*
X145320000Y-66140000D01*
X145320000Y-66140000D02*
X151860000Y-66140000D01*
X151860000Y-63400000D02*
X145320000Y-63400000D01*
X151860000Y-66140000D02*
X151860000Y-63400000D01*
X152630000Y-64770000D02*
X151860000Y-64770000D01*
X159965000Y-82825000D02*
X159965000Y-87325000D01*
X159965000Y-87325000D02*
X177865000Y-87325000D01*
X177865000Y-82825000D02*
X159965000Y-82825000D01*
X177865000Y-84075000D02*
X177865000Y-82825000D01*
X177865000Y-87325000D02*
X177865000Y-86075000D01*
X177865000Y-86075000D02*
G75*
G02*
X177865000Y-84075000I0J1000000D01*
G01*
M02*
